SplineFontDB: 3.2
FontName: Krub-Medium
FullName: Krub Medium
FamilyName: Krub Medium
Weight: Medium
Copyright: Copyright 2018 The Krub Project Authors (https://github.com/cadsondemak/Krub)
Version: 1.000; ttfautohint (v1.6)
ItalicAngle: 0
UnderlinePosition: -100
UnderlineWidth: 50
Ascent: 800
Descent: 200
InvalidEm: 0
sfntRevision: 0x00010000
LayerCount: 2
Layer: 0 1 "Back" 1
Layer: 1 1 "Fore" 0
XUID: [1021 226 -1497385041 12846369]
StyleMap: 0x0040
FSType: 0
OS2Version: 3
OS2_WeightWidthSlopeOnly: 0
OS2_UseTypoMetrics: 0
CreationTime: 1534948280
ModificationTime: 1627863029
PfmFamily: 81
TTFWeight: 500
TTFWidth: 5
LineGap: 0
VLineGap: 0
Panose: 0 0 6 0 0 0 0 0 0 0
OS2TypoAscent: 1007
OS2TypoAOffset: 0
OS2TypoDescent: -293
OS2TypoDOffset: 0
OS2TypoLinegap: 0
OS2WinAscent: 1232
OS2WinAOffset: 0
OS2WinDescent: 507
OS2WinDOffset: 0
HheadAscent: 1007
HheadAOffset: 0
HheadDescent: -293
HheadDOffset: 0
OS2SubXSize: 650
OS2SubYSize: 600
OS2SubXOff: 0
OS2SubYOff: 75
OS2SupXSize: 650
OS2SupYSize: 600
OS2SupXOff: 0
OS2SupYOff: 350
OS2StrikeYSize: 50
OS2StrikeYPos: 330
OS2CapHeight: 700
OS2XHeight: 550
OS2Vendor: 'CDK '
OS2CodePages: 20010193.00000000
OS2UnicodeRanges: 21000007.00000001.00000000.00000000
Lookup: 1 0 0 "'aalt' Access All Alternates lookup 0" { "'aalt' Access All Alternates lookup 0 subtable"  } ['aalt' ('DFLT' <'dflt' > 'latn' <'CAT ' 'MOL ' 'ROM ' 'dflt' > 'thai' <'dflt' > ) ]
Lookup: 3 0 0 "'aalt' Access All Alternates lookup 1" { "'aalt' Access All Alternates lookup 1 subtable"  } ['aalt' ('DFLT' <'dflt' > 'latn' <'CAT ' 'MOL ' 'ROM ' 'dflt' > 'thai' <'dflt' > ) ]
Lookup: 6 0 0 "'ccmp' Glyph Composition/Decomposition in Latin lookup 2" { "'ccmp' Glyph Composition/Decomposition in Latin lookup 2 contextual 0"  "'ccmp' Glyph Composition/Decomposition in Latin lookup 2 contextual 1"  } ['ccmp' ('latn' <'dflt' > ) ]

StartChar: A
Encoding: 65 65 4
Width: 633
GlyphClass: 2
Flags: W
AnchorPoint: "Anchor-10" 0 0 basechar 0
AnchorPoint: "Anchor-9" 317 660 basechar 0
AnchorPoint: "Anchor-8" 618 0 basechar 0
AnchorPoint: "Anchor-7" 317 0 basechar 0
LayerCount: 2
Fore
SplineSet
476 193 m 1,1,-1
 157 193 l 1,2,3
 134 109 134 109 114 0 c 1,4,-1
 15 0 l 1,5,6
 56 202 56 202 116.5 371.5 c 128,-1,7
 177 541 177 541 266 700 c 1,8,-1
 368 700 l 1,9,10
 457 542 457 542 517.5 373 c 128,-1,11
 578 204 578 204 618 0 c 1,12,-1
 519 0 l 1,13,0
 499 109 499 109 476 193 c 1,1,-1
455 270 m 1,14,15
 401 454 401 454 317 614 c 1,16,17
 232 456 232 456 178 270 c 1,18,-1
 455 270 l 1,14,15
EndSplineSet
Substitution2: "Single Substitution lookup 20 subtable" ordfeminine
Substitution2: "'aalt' Access All Alternates lookup 0 subtable" ordfeminine
EndChar

StartChar: AE
Encoding: 198 198 28
Width: 943
GlyphClass: 2
Flags: W
AnchorPoint: "Anchor-10" 0 0 basechar 0
AnchorPoint: "Anchor-9" 535 700 basechar 0
AnchorPoint: "Anchor-8" 0 0 basechar 0
AnchorPoint: "Anchor-7" 475 0 basechar 0
LayerCount: 2
Fore
SplineSet
563 627 m 1,0,-1
 563 403 l 1,1,-1
 847 403 l 1,2,-1
 847 330 l 1,3,-1
 563 330 l 1,4,-1
 563 73 l 1,5,-1
 888 73 l 1,6,7
 888 31 888 31 877 15.5 c 128,-1,8
 866 0 866 0 830 0 c 2,9,-1
 472 0 l 1,10,-1
 472 206 l 1,11,-1
 176 206 l 1,12,13
 136 106 136 106 116 0 c 1,14,-1
 15 0 l 1,15,16
 54 194 54 194 154 378 c 128,-1,17
 254 562 254 562 413 700 c 1,18,-1
 890 700 l 1,19,-1
 890 627 l 1,20,-1
 563 627 l 1,0,-1
472 279 m 1,21,-1
 472 627 l 1,22,-1
 463 627 l 1,23,24
 387 562 387 562 322 472.5 c 128,-1,25
 257 383 257 383 208 279 c 1,26,-1
 472 279 l 1,21,-1
EndSplineSet
EndChar

StartChar: B
Encoding: 66 66 30
Width: 618
GlyphClass: 2
Flags: W
AnchorPoint: "Anchor-10" 0 0 basechar 0
AnchorPoint: "Anchor-9" 308 660 basechar 0
AnchorPoint: "Anchor-8" 0 0 basechar 0
AnchorPoint: "Anchor-7" 308 0 basechar 0
LayerCount: 2
Fore
SplineSet
544.5 301.5 m 128,-1,1
 579 256 579 256 579 197 c 0,2,3
 579 103 579 103 513.5 51.5 c 128,-1,4
 448 0 448 0 329 0 c 2,5,-1
 83 0 l 1,6,-1
 83 700 l 1,7,-1
 319 700 l 2,8,9
 424 700 424 700 485.5 649.5 c 128,-1,10
 547 599 547 599 547 513 c 0,11,12
 547 460 547 460 522 419.5 c 128,-1,13
 497 379 497 379 455 362 c 1,14,0
 510 347 510 347 544.5 301.5 c 128,-1,1
410.5 596 m 128,-1,16
 374 625 374 625 306 625 c 2,17,-1
 182 625 l 1,18,-1
 182 393 l 1,19,-1
 303 393 l 2,20,21
 376 393 376 393 411.5 422.5 c 128,-1,22
 447 452 447 452 447 513 c 0,23,15
 447 567 447 567 410.5 596 c 128,-1,16
441.5 103 m 128,-1,25
 479 131 479 131 479 197 c 0,26,27
 479 262 479 262 439.5 291 c 128,-1,28
 400 320 400 320 311 320 c 2,29,-1
 182 320 l 1,30,-1
 182 75 l 1,31,-1
 313 75 l 2,32,24
 404 75 404 75 441.5 103 c 128,-1,25
EndSplineSet
EndChar

StartChar: C
Encoding: 67 67 31
Width: 609
GlyphClass: 2
Flags: W
AnchorPoint: "Anchor-10" 0 0 basechar 0
AnchorPoint: "Anchor-9" 359 660 basechar 0
AnchorPoint: "Anchor-8" 0 0 basechar 0
AnchorPoint: "Anchor-7" 359 0 basechar 0
LayerCount: 2
Fore
SplineSet
132.5 83.5 m 128,-1,1
 52 177 52 177 52 350 c 0,2,3
 52 522 52 522 133 616 c 128,-1,4
 214 710 214 710 362 710 c 0,5,6
 422 710 422 710 474.5 689.5 c 128,-1,7
 527 669 527 669 563 632 c 1,8,9
 557 609 557 609 543 593 c 128,-1,10
 529 577 529 577 514 577 c 0,11,12
 500 577 500 577 488 586 c 0,13,14
 458 609 458 609 427.5 619.5 c 128,-1,15
 397 630 397 630 360 630 c 0,16,17
 258 630 258 630 206 559.5 c 128,-1,18
 154 489 154 489 154 350 c 0,19,20
 154 213 154 213 206.5 142 c 128,-1,21
 259 71 259 71 360 71 c 0,22,23
 406 71 406 71 445 85.5 c 128,-1,24
 484 100 484 100 519 131 c 1,25,26
 535 127 535 127 546 114 c 128,-1,27
 557 101 557 101 557 85 c 0,28,29
 557 60 557 60 530 38.5 c 128,-1,30
 503 17 503 17 457.5 3.5 c 128,-1,31
 412 -10 412 -10 362 -10 c 0,32,0
 213 -10 213 -10 132.5 83.5 c 128,-1,1
EndSplineSet
EndChar

StartChar: Ccedilla
Encoding: 199 199 34
Width: 609
GlyphClass: 2
Flags: W
AnchorPoint: "Anchor-10" 0 0 basechar 0
AnchorPoint: "Anchor-9" 0 0 basechar 0
AnchorPoint: "Anchor-8" 0 0 basechar 0
AnchorPoint: "Anchor-7" 359 -214 basechar 0
LayerCount: 2
Fore
SplineSet
546 114 m 128,-1,1
 557 101 557 101 557 85 c 0,2,3
 557 52 557 52 508.5 24.5 c 128,-1,4
 460 -3 460 -3 392 -9 c 1,5,-1
 353 -54 l 1,6,-1
 362 -54 l 2,7,8
 405 -54 405 -54 432 -76 c 128,-1,9
 459 -98 459 -98 459 -136 c 0,10,11
 459 -181 459 -181 424.5 -206.5 c 128,-1,12
 390 -232 390 -232 331 -232 c 0,13,14
 282 -232 282 -232 258 -220 c 128,-1,15
 234 -208 234 -208 234 -186 c 0,16,17
 234 -177 234 -177 238 -170 c 1,18,19
 279 -181 279 -181 322 -181 c 0,20,21
 382 -181 382 -181 382 -138 c 0,22,23
 382 -125 382 -125 370.5 -114.5 c 128,-1,24
 359 -104 359 -104 337 -104 c 0,25,26
 322 -104 322 -104 301 -110 c 1,27,-1
 278 -75 l 1,28,-1
 325 -8 l 1,29,30
 194 3 194 3 123 95.5 c 128,-1,31
 52 188 52 188 52 350 c 0,32,33
 52 522 52 522 133 616 c 128,-1,34
 214 710 214 710 362 710 c 0,35,36
 422 710 422 710 474.5 689.5 c 128,-1,37
 527 669 527 669 563 632 c 1,38,39
 557 609 557 609 543 593 c 128,-1,40
 529 577 529 577 514 577 c 0,41,42
 500 577 500 577 488 586 c 0,43,44
 458 609 458 609 427.5 619.5 c 128,-1,45
 397 630 397 630 360 630 c 0,46,47
 258 630 258 630 206 559.5 c 128,-1,48
 154 489 154 489 154 350 c 0,49,50
 154 213 154 213 206.5 142 c 128,-1,51
 259 71 259 71 360 71 c 0,52,53
 406 71 406 71 445 85.5 c 128,-1,54
 484 100 484 100 519 131 c 1,55,0
 535 127 535 127 546 114 c 128,-1,1
EndSplineSet
EndChar

StartChar: D
Encoding: 68 68 37
Width: 675
GlyphClass: 2
Flags: W
AnchorPoint: "Anchor-10" 0 0 basechar 0
AnchorPoint: "Anchor-9" 336 660 basechar 0
AnchorPoint: "Anchor-8" 0 0 basechar 0
AnchorPoint: "Anchor-7" 336 0 basechar 0
LayerCount: 2
Fore
SplineSet
539 608.5 m 128,-1,1
 625 517 625 517 625 350 c 0,2,3
 625 243 625 243 585 164 c 128,-1,4
 545 85 545 85 471 42.5 c 128,-1,5
 397 0 397 0 296 0 c 2,6,-1
 79 0 l 1,7,-1
 79 700 l 1,8,-1
 296 700 l 2,9,0
 453 700 453 700 539 608.5 c 128,-1,1
464 145.5 m 128,-1,11
 524 216 524 216 524 349 c 0,12,13
 524 488 524 488 466 556.5 c 128,-1,14
 408 625 408 625 290 625 c 2,15,-1
 179 625 l 1,16,-1
 179 75 l 1,17,-1
 290 75 l 2,18,10
 404 75 404 75 464 145.5 c 128,-1,11
EndSplineSet
EndChar

StartChar: Eth
Encoding: 208 208 38
Width: 672
GlyphClass: 2
Flags: W
AnchorPoint: "Anchor-10" 0 0 basechar 0
AnchorPoint: "Anchor-9" 336 660 basechar 0
AnchorPoint: "Anchor-8" 0 0 basechar 0
AnchorPoint: "Anchor-7" 336 0 basechar 0
LayerCount: 2
Fore
SplineSet
539 608.5 m 128,-1,1
 625 517 625 517 625 350 c 0,2,3
 625 243 625 243 585 164 c 128,-1,4
 545 85 545 85 471 42.5 c 128,-1,5
 397 0 397 0 296 0 c 2,6,-1
 79 0 l 1,7,-1
 79 320 l 1,8,-1
 1 320 l 1,9,-1
 1 391 l 1,10,-1
 79 391 l 1,11,-1
 79 700 l 1,12,-1
 296 700 l 2,13,0
 453 700 453 700 539 608.5 c 128,-1,1
464 145.5 m 128,-1,15
 524 216 524 216 524 349 c 0,16,17
 524 488 524 488 466 556.5 c 128,-1,18
 408 625 408 625 290 625 c 2,19,-1
 179 625 l 1,20,-1
 179 391 l 1,21,-1
 346 391 l 1,22,-1
 346 320 l 1,23,-1
 179 320 l 1,24,-1
 179 75 l 1,25,-1
 290 75 l 2,26,14
 404 75 404 75 464 145.5 c 128,-1,15
EndSplineSet
EndChar

StartChar: Dcroat
Encoding: 272 272 40
Width: 672
GlyphClass: 2
Flags: W
AnchorPoint: "Anchor-10" 0 0 basechar 0
AnchorPoint: "Anchor-9" 336 660 basechar 0
AnchorPoint: "Anchor-8" 0 0 basechar 0
AnchorPoint: "Anchor-7" 336 0 basechar 0
LayerCount: 2
Fore
SplineSet
539 608.5 m 128,-1,1
 625 517 625 517 625 350 c 0,2,3
 625 243 625 243 585 164 c 128,-1,4
 545 85 545 85 471 42.5 c 128,-1,5
 397 0 397 0 296 0 c 2,6,-1
 79 0 l 1,7,-1
 79 320 l 1,8,-1
 1 320 l 1,9,-1
 1 391 l 1,10,-1
 79 391 l 1,11,-1
 79 700 l 1,12,-1
 296 700 l 2,13,0
 453 700 453 700 539 608.5 c 128,-1,1
464 145.5 m 128,-1,15
 524 216 524 216 524 349 c 0,16,17
 524 488 524 488 466 556.5 c 128,-1,18
 408 625 408 625 290 625 c 2,19,-1
 179 625 l 1,20,-1
 179 391 l 1,21,-1
 346 391 l 1,22,-1
 346 320 l 1,23,-1
 179 320 l 1,24,-1
 179 75 l 1,25,-1
 290 75 l 2,26,14
 404 75 404 75 464 145.5 c 128,-1,15
EndSplineSet
EndChar

StartChar: E
Encoding: 69 69 43
Width: 560
GlyphClass: 2
Flags: W
AnchorPoint: "Anchor-10" 0 0 basechar 0
AnchorPoint: "Anchor-9" 280 660 basechar 0
AnchorPoint: "Anchor-8" 493 10 basechar 0
AnchorPoint: "Anchor-7" 280 0 basechar 0
LayerCount: 2
Fore
SplineSet
508 75 m 1,0,1
 508 30 508 30 497.5 15 c 128,-1,2
 487 0 487 0 456 0 c 2,3,-1
 79 0 l 1,4,-1
 79 700 l 1,5,-1
 504 700 l 1,6,-1
 504 625 l 1,7,-1
 179 625 l 1,8,-1
 179 397 l 1,9,-1
 456 397 l 1,10,-1
 456 321 l 1,11,-1
 179 321 l 1,12,-1
 179 75 l 1,13,-1
 508 75 l 1,0,1
EndSplineSet
EndChar

StartChar: Eogonek
Encoding: 280 280 59
Width: 560
GlyphClass: 2
Flags: W
AnchorPoint: "Anchor-10" 0 0 basechar 0
AnchorPoint: "Anchor-9" 280 660 basechar 0
AnchorPoint: "Anchor-8" 493 10 basechar 0
AnchorPoint: "Anchor-7" 280 0 basechar 0
LayerCount: 2
Fore
SplineSet
532 -161 m 0,1,2
 532 -178 532 -178 512.5 -189 c 128,-1,3
 493 -200 493 -200 459 -200 c 0,4,5
 410 -200 410 -200 381 -177 c 128,-1,6
 352 -154 352 -154 352 -114 c 0,7,8
 352 -44 352 -44 426 0 c 1,9,-1
 79 0 l 1,10,-1
 79 700 l 1,11,-1
 504 700 l 1,12,-1
 504 625 l 1,13,-1
 179 625 l 1,14,-1
 179 397 l 1,15,-1
 456 397 l 1,16,-1
 456 321 l 1,17,-1
 179 321 l 1,18,-1
 179 75 l 1,19,-1
 508 75 l 1,20,21
 508 45 508 45 504 29 c 128,-1,22
 500 13 500 13 489 7 c 0,23,24
 430 -41 430 -41 430 -99 c 0,25,26
 430 -121 430 -121 442 -133.5 c 128,-1,27
 454 -146 454 -146 475 -146 c 0,28,29
 501 -146 501 -146 521 -136 c 1,30,0
 532 -147 532 -147 532 -161 c 0,1,2
EndSplineSet
EndChar

StartChar: F
Encoding: 70 70 61
Width: 530
GlyphClass: 2
Flags: W
AnchorPoint: "Anchor-10" 0 0 basechar 0
AnchorPoint: "Anchor-9" 292 660 basechar 0
AnchorPoint: "Anchor-8" 0 0 basechar 0
AnchorPoint: "Anchor-7" 122 0 basechar 0
LayerCount: 2
Fore
SplineSet
179 625 m 1,0,-1
 179 398 l 1,1,-1
 455 398 l 1,2,-1
 455 323 l 1,3,-1
 179 323 l 1,4,-1
 179 0 l 1,5,-1
 79 0 l 1,6,-1
 79 700 l 1,7,-1
 498 700 l 1,8,-1
 498 625 l 1,9,-1
 179 625 l 1,0,-1
EndSplineSet
EndChar

StartChar: G
Encoding: 71 71 62
Width: 673
GlyphClass: 2
Flags: W
AnchorPoint: "Anchor-10" 0 0 basechar 0
AnchorPoint: "Anchor-9" 377 660 basechar 0
AnchorPoint: "Anchor-8" 0 0 basechar 0
AnchorPoint: "Anchor-7" 377 0 basechar 0
LayerCount: 2
Fore
SplineSet
614 377 m 1,0,-1
 614 73 l 1,1,2
 574 33 574 33 512.5 11.5 c 128,-1,3
 451 -10 451 -10 379 -10 c 0,4,5
 221 -10 221 -10 140 81.5 c 128,-1,6
 59 173 59 173 59 350 c 0,7,8
 59 463 59 463 97.5 544 c 128,-1,9
 136 625 136 625 208.5 667.5 c 128,-1,10
 281 710 281 710 382 710 c 0,11,12
 454 710 454 710 515 686 c 128,-1,13
 576 662 576 662 611 621 c 1,14,15
 602 599 602 599 587 583.5 c 128,-1,16
 572 568 572 568 559 568 c 0,17,18
 544 568 544 568 528 581 c 0,19,20
 494 607 494 607 458.5 619 c 128,-1,21
 423 631 423 631 381 631 c 0,22,23
 273 631 273 631 217 559.5 c 128,-1,24
 161 488 161 488 161 350 c 0,25,26
 161 208 161 208 214.5 138.5 c 128,-1,27
 268 69 268 69 377 69 c 0,28,29
 422 69 422 69 459.5 79.5 c 128,-1,30
 497 90 497 90 515 108 c 1,31,-1
 515 300 l 1,32,-1
 401 300 l 2,33,34
 377 300 377 300 367 317.5 c 128,-1,35
 357 335 357 335 357 377 c 1,36,-1
 614 377 l 1,0,-1
EndSplineSet
EndChar

StartChar: H
Encoding: 72 72 69
Width: 687
GlyphClass: 2
Flags: W
AnchorPoint: "Anchor-10" 0 0 basechar 0
AnchorPoint: "Anchor-9" 343 660 basechar 0
AnchorPoint: "Anchor-8" 0 0 basechar 0
AnchorPoint: "Anchor-7" 343 0 basechar 0
LayerCount: 2
Fore
SplineSet
607 700 m 1,0,-1
 607 0 l 1,1,-1
 508 0 l 1,2,-1
 508 320 l 1,3,-1
 179 320 l 1,4,-1
 179 0 l 1,5,-1
 79 0 l 1,6,-1
 79 700 l 1,7,-1
 179 700 l 1,8,-1
 179 397 l 1,9,-1
 508 397 l 1,10,-1
 508 700 l 1,11,-1
 607 700 l 1,0,-1
EndSplineSet
EndChar

StartChar: Hbar
Encoding: 294 294 70
Width: 687
GlyphClass: 2
Flags: W
AnchorPoint: "Anchor-10" 0 0 basechar 0
AnchorPoint: "Anchor-9" 343 660 basechar 0
AnchorPoint: "Anchor-8" 0 0 basechar 0
AnchorPoint: "Anchor-7" 343 0 basechar 0
LayerCount: 2
Fore
SplineSet
677 524 m 1,0,-1
 607 524 l 1,1,-1
 607 0 l 1,2,-1
 508 0 l 1,3,-1
 508 320 l 1,4,-1
 179 320 l 1,5,-1
 179 0 l 1,6,-1
 79 0 l 1,7,-1
 79 524 l 1,8,-1
 10 524 l 1,9,-1
 10 584 l 1,10,-1
 79 584 l 1,11,-1
 79 700 l 1,12,-1
 179 700 l 1,13,-1
 179 584 l 1,14,-1
 508 584 l 1,15,-1
 508 700 l 1,16,-1
 607 700 l 1,17,-1
 607 584 l 1,18,-1
 677 584 l 1,19,-1
 677 524 l 1,0,-1
508 524 m 1,20,-1
 179 524 l 1,21,-1
 179 397 l 1,22,-1
 508 397 l 1,23,-1
 508 524 l 1,20,-1
EndSplineSet
EndChar

StartChar: I
Encoding: 73 73 74
Width: 350
GlyphClass: 2
Flags: W
AnchorPoint: "Anchor-10" 0 0 basechar 0
AnchorPoint: "Anchor-9" 175 660 basechar 0
AnchorPoint: "Anchor-8" 225 0 basechar 0
AnchorPoint: "Anchor-7" 175 0 basechar 0
LayerCount: 2
Fore
SplineSet
125 700 m 1,0,-1
 225 700 l 1,1,-1
 225 0 l 1,2,-1
 125 0 l 1,3,-1
 125 700 l 1,0,-1
EndSplineSet
EndChar

StartChar: J
Encoding: 74 74 88
Width: 434
GlyphClass: 2
Flags: W
AnchorPoint: "Anchor-10" 0 0 basechar 0
AnchorPoint: "Anchor-9" 305 660 basechar 0
AnchorPoint: "Anchor-8" 0 0 basechar 0
AnchorPoint: "Anchor-7" 217 0 basechar 0
LayerCount: 2
Fore
SplineSet
78 -1.5 m 128,-1,1
 39 7 39 7 21 17 c 1,2,3
 21 85 21 85 51 85 c 0,4,5
 58 85 58 85 76 80 c 0,6,7
 117 68 117 68 149 68 c 0,8,9
 202 68 202 68 229 98 c 128,-1,10
 256 128 256 128 256 186 c 2,11,-1
 256 700 l 1,12,-1
 355 700 l 1,13,-1
 355 186 l 2,14,15
 355 97 355 97 300.5 43.5 c 128,-1,16
 246 -10 246 -10 154 -10 c 0,17,0
 117 -10 117 -10 78 -1.5 c 128,-1,1
EndSplineSet
EndChar

StartChar: K
Encoding: 75 75 90
Width: 630
GlyphClass: 2
Flags: W
AnchorPoint: "Anchor-10" 0 0 basechar 0
AnchorPoint: "Anchor-9" 331 660 basechar 0
AnchorPoint: "Anchor-8" 0 0 basechar 0
AnchorPoint: "Anchor-7" 338 0 basechar 0
LayerCount: 2
Fore
SplineSet
608 4 m 1,0,1
 585 -9 585 -9 546 -9 c 0,2,3
 525 -9 525 -9 512 -2 c 128,-1,4
 499 5 499 5 488 22 c 2,5,-1
 343 258 l 2,6,7
 319 296 319 296 296.5 308 c 128,-1,8
 274 320 274 320 224 320 c 2,9,-1
 196 320 l 1,10,-1
 196 0 l 1,11,-1
 97 0 l 1,12,-1
 97 700 l 1,13,-1
 196 700 l 1,14,-1
 196 395 l 1,15,-1
 251 395 l 2,16,17
 263 395 263 395 269 394 c 1,18,-1
 491 700 l 1,19,-1
 600 700 l 1,20,-1
 354 369 l 1,21,22
 396 344 396 344 432 286 c 2,23,-1
 608 4 l 1,0,1
EndSplineSet
EndChar

StartChar: L
Encoding: 76 76 92
Width: 513
GlyphClass: 2
Flags: W
AnchorPoint: "Anchor-10" 460 673 basechar 0
AnchorPoint: "Anchor-9" 136 660 basechar 0
AnchorPoint: "Anchor-8" 0 0 basechar 0
AnchorPoint: "Anchor-7" 292 0 basechar 0
LayerCount: 2
Fore
SplineSet
498 75 m 1,0,-1
 498 0 l 1,1,-1
 86 0 l 1,2,-1
 86 700 l 1,3,-1
 185 700 l 1,4,-1
 185 75 l 1,5,-1
 498 75 l 1,0,-1
EndSplineSet
EndChar

StartChar: Lslash
Encoding: 321 321 100
Width: 547
GlyphClass: 2
Flags: W
AnchorPoint: "Anchor-10" 480 673 basechar 0
AnchorPoint: "Anchor-9" 156 660 basechar 0
AnchorPoint: "Anchor-8" 0 0 basechar 0
AnchorPoint: "Anchor-7" 312 0 basechar 0
LayerCount: 2
Fore
SplineSet
518 75 m 1,0,-1
 518 0 l 1,1,-1
 106 0 l 1,2,-1
 106 340 l 1,3,-1
 17 304 l 1,4,-1
 17 386 l 1,5,-1
 106 422 l 1,6,-1
 106 700 l 1,7,-1
 205 700 l 1,8,-1
 205 461 l 1,9,-1
 369 527 l 1,10,-1
 369 445 l 1,11,-1
 205 379 l 1,12,-1
 205 75 l 1,13,-1
 518 75 l 1,0,-1
EndSplineSet
EndChar

StartChar: M
Encoding: 77 77 101
Width: 835
GlyphClass: 2
Flags: W
AnchorPoint: "Anchor-10" 0 0 basechar 0
AnchorPoint: "Anchor-9" 418 660 basechar 0
AnchorPoint: "Anchor-8" 0 0 basechar 0
AnchorPoint: "Anchor-7" 418 0 basechar 0
LayerCount: 2
Fore
SplineSet
667 0 m 1,0,1
 663 323 663 323 617 579 c 1,2,3
 580 487 580 487 548.5 392.5 c 128,-1,4
 517 298 517 298 454 83 c 1,5,-1
 379 83 l 1,6,7
 325 272 325 272 291 374.5 c 128,-1,8
 257 477 257 477 217 576 c 1,9,10
 173 324 173 324 166 0 c 1,11,-1
 67 0 l 1,12,13
 76 399 76 399 149 700 c 1,14,-1
 260 700 l 1,15,16
 318 565 318 565 351.5 472.5 c 128,-1,17
 385 380 385 380 416 265 c 1,18,19
 450 382 450 382 484 475 c 128,-1,20
 518 568 518 568 575 700 c 1,21,-1
 686 700 l 1,22,23
 761 394 761 394 767 0 c 1,24,-1
 667 0 l 1,0,1
EndSplineSet
EndChar

StartChar: N
Encoding: 78 78 103
Width: 693
GlyphClass: 2
Flags: W
AnchorPoint: "Anchor-10" 0 0 basechar 0
AnchorPoint: "Anchor-9" 346 660 basechar 0
AnchorPoint: "Anchor-8" 0 0 basechar 0
AnchorPoint: "Anchor-7" 346 0 basechar 0
LayerCount: 2
Fore
SplineSet
612 64 m 0,1,2
 614 36 614 36 614 27 c 0,3,4
 614 0 614 0 588 0 c 2,5,-1
 511 0 l 1,6,-1
 511 47 l 2,7,8
 511 104 511 104 472 158 c 2,9,-1
 178 562 l 1,10,-1
 178 0 l 1,11,-1
 79 0 l 1,12,-1
 79 700 l 1,13,-1
 164 700 l 2,14,15
 177 700 177 700 185 696.5 c 128,-1,16
 193 693 193 693 202 680 c 2,17,-1
 511 256 l 1,18,-1
 511 700 l 1,19,-1
 610 700 l 1,20,-1
 610 137 l 2,21,0
 610 106 610 106 612 64 c 0,1,2
EndSplineSet
EndChar

StartChar: Eng
Encoding: 330 330 109
Width: 685
Flags: W
LayerCount: 2
Fore
SplineSet
606 700 m 1,0,-1
 606 -40 l 2,1,2
 606 -114 606 -114 562.5 -156.5 c 128,-1,3
 519 -199 519 -199 443 -199 c 0,4,5
 407 -199 407 -199 375.5 -187.5 c 128,-1,6
 344 -176 344 -176 344 -153 c 0,7,8
 344 -142 344 -142 349.5 -131.5 c 128,-1,9
 355 -121 355 -121 361 -119 c 1,10,11
 393 -134 393 -134 436 -134 c 0,12,13
 470 -134 470 -134 488.5 -112.5 c 128,-1,14
 507 -91 507 -91 507 -49 c 2,15,-1
 507 44 l 2,16,17
 507 99 507 99 468 155 c 2,18,-1
 178 559 l 1,19,-1
 178 0 l 1,20,-1
 79 0 l 1,21,-1
 79 700 l 1,22,-1
 164 700 l 2,23,24
 177 700 177 700 185 696.5 c 128,-1,25
 193 693 193 693 202 680 c 2,26,-1
 507 256 l 1,27,-1
 507 700 l 1,28,-1
 606 700 l 1,0,-1
EndSplineSet
EndChar

StartChar: O
Encoding: 79 79 112
Width: 680
GlyphClass: 2
Flags: W
AnchorPoint: "Anchor-10" 482 639 basechar 0
AnchorPoint: "Anchor-9" 340 660 basechar 0
AnchorPoint: "Anchor-8" 439 31 basechar 0
AnchorPoint: "Anchor-7" 340 0 basechar 0
LayerCount: 2
Fore
SplineSet
121.5 84.5 m 128,-1,1
 45 179 45 179 45 354 c 0,2,3
 45 525 45 525 121.5 617.5 c 128,-1,4
 198 710 198 710 340 710 c 256,5,6
 482 710 482 710 558.5 617.5 c 128,-1,7
 635 525 635 525 635 354 c 0,8,9
 635 179 635 179 558.5 84.5 c 128,-1,10
 482 -10 482 -10 340 -10 c 256,11,0
 198 -10 198 -10 121.5 84.5 c 128,-1,1
533 354 m 0,13,14
 533 494 533 494 485.5 562.5 c 128,-1,15
 438 631 438 631 340 631 c 256,16,17
 242 631 242 631 194.5 562.5 c 128,-1,18
 147 494 147 494 147 354 c 0,19,20
 147 69 147 69 340 69 c 256,21,12
 533 69 533 69 533 354 c 0,13,14
EndSplineSet
Substitution2: "Single Substitution lookup 20 subtable" ordmasculine
Substitution2: "'aalt' Access All Alternates lookup 0 subtable" ordmasculine
EndChar

StartChar: Ohorn
Encoding: 416 416 126
Width: 680
GlyphClass: 2
Flags: W
AnchorPoint: "Anchor-10" 482 639 basechar 0
AnchorPoint: "Anchor-9" 340 660 basechar 0
AnchorPoint: "Anchor-8" 439 31 basechar 0
AnchorPoint: "Anchor-7" 340 0 basechar 0
LayerCount: 2
Fore
SplineSet
635 354 m 0,1,2
 635 179 635 179 558.5 84.5 c 128,-1,3
 482 -10 482 -10 340 -10 c 256,4,5
 198 -10 198 -10 121.5 84.5 c 128,-1,6
 45 179 45 179 45 354 c 0,7,8
 45 525 45 525 121.5 617.5 c 128,-1,9
 198 710 198 710 340 710 c 0,10,11
 435 710 435 710 501 668 c 1,12,13
 523 673 523 673 535 690.5 c 128,-1,14
 547 708 547 708 547 733 c 0,15,16
 547 763 547 763 518 785 c 1,17,18
 520 800 520 800 533.5 810.5 c 128,-1,19
 547 821 547 821 566 821 c 0,20,21
 596 821 596 821 615 800.5 c 128,-1,22
 634 780 634 780 634 743 c 0,23,24
 634 700 634 700 613.5 669.5 c 128,-1,25
 593 639 593 639 554 623 c 1,26,0
 635 530 635 530 635 354 c 0,1,2
533 354 m 0,28,29
 533 494 533 494 485.5 562.5 c 128,-1,30
 438 631 438 631 340 631 c 256,31,32
 242 631 242 631 194.5 562.5 c 128,-1,33
 147 494 147 494 147 354 c 0,34,35
 147 69 147 69 340 69 c 256,36,27
 533 69 533 69 533 354 c 0,28,29
EndSplineSet
EndChar

StartChar: Oslash
Encoding: 216 216 134
Width: 680
GlyphClass: 2
Flags: W
AnchorPoint: "Anchor-10" 482 639 basechar 0
AnchorPoint: "Anchor-9" 340 660 basechar 0
AnchorPoint: "Anchor-8" 439 31 basechar 0
AnchorPoint: "Anchor-7" 340 0 basechar 0
LayerCount: 2
Fore
SplineSet
635 354 m 0,1,2
 635 179 635 179 558.5 84.5 c 128,-1,3
 482 -10 482 -10 340 -10 c 0,4,5
 231 -10 231 -10 159 48 c 1,6,-1
 125 0 l 1,7,-1
 53 0 l 1,8,-1
 117 90 l 1,9,10
 45 185 45 185 45 354 c 0,11,12
 45 525 45 525 121.5 617.5 c 128,-1,13
 198 710 198 710 340 710 c 0,14,15
 447 710 447 710 518 657 c 1,16,-1
 549 701 l 1,17,-1
 621 701 l 1,18,-1
 560 615 l 1,19,0
 635 523 635 523 635 354 c 0,1,2
176 174 m 1,21,-1
 467 585 l 1,22,23
 421 631 421 631 340 631 c 0,24,25
 242 631 242 631 194.5 562.5 c 128,-1,26
 147 494 147 494 147 354 c 0,27,20
 147 244 147 244 176 174 c 1,21,-1
533 354 m 0,29,30
 533 468 533 468 502 533 c 1,31,-1
 210 121 l 1,32,33
 258 69 258 69 340 69 c 0,34,28
 533 69 533 69 533 354 c 0,29,30
EndSplineSet
EndChar

StartChar: OE
Encoding: 338 338 137
Width: 1035
GlyphClass: 2
Flags: W
AnchorPoint: "Anchor-10" 482 639 basechar 0
AnchorPoint: "Anchor-9" 755 660 basechar 0
AnchorPoint: "Anchor-8" 968 10 basechar 0
AnchorPoint: "Anchor-7" 755 0 basechar 0
LayerCount: 2
Fore
SplineSet
983 75 m 1,0,1
 983 30 983 30 972.5 15 c 128,-1,2
 962 0 962 0 931 0 c 2,3,-1
 554 0 l 1,4,-1
 554 79 l 1,5,6
 477 -10 477 -10 340 -10 c 0,7,8
 198 -10 198 -10 121.5 84.5 c 128,-1,9
 45 179 45 179 45 354 c 0,10,11
 45 525 45 525 121.5 617.5 c 128,-1,12
 198 710 198 710 340 710 c 0,13,14
 478 710 478 710 554 623 c 1,15,-1
 554 700 l 1,16,-1
 979 700 l 1,17,-1
 979 625 l 1,18,-1
 654 625 l 1,19,-1
 654 397 l 1,20,-1
 931 397 l 1,21,-1
 931 321 l 1,22,-1
 654 321 l 1,23,-1
 654 75 l 1,24,-1
 983 75 l 1,0,1
533 354 m 0,26,27
 533 494 533 494 485.5 562.5 c 128,-1,28
 438 631 438 631 340 631 c 256,29,30
 242 631 242 631 194.5 562.5 c 128,-1,31
 147 494 147 494 147 354 c 0,32,33
 147 69 147 69 340 69 c 256,34,25
 533 69 533 69 533 354 c 0,26,27
EndSplineSet
EndChar

StartChar: P
Encoding: 80 80 138
Width: 615
GlyphClass: 2
Flags: W
AnchorPoint: "Anchor-10" 0 0 basechar 0
AnchorPoint: "Anchor-9" 308 660 basechar 0
AnchorPoint: "Anchor-8" 0 0 basechar 0
AnchorPoint: "Anchor-7" 308 0 basechar 0
LayerCount: 2
Fore
SplineSet
501.5 643 m 128,-1,1
 572 586 572 586 572 475 c 0,2,3
 572 362 572 362 501 303 c 128,-1,4
 430 244 430 244 294 244 c 2,5,-1
 182 244 l 1,6,-1
 182 0 l 1,7,-1
 83 0 l 1,8,-1
 83 700 l 1,9,-1
 294 700 l 2,10,0
 431 700 431 700 501.5 643 c 128,-1,1
429 360 m 128,-1,12
 472 396 472 396 472 475 c 0,13,14
 472 553 472 553 429 588.5 c 128,-1,15
 386 624 386 624 291 624 c 2,16,-1
 182 624 l 1,17,-1
 182 324 l 1,18,-1
 291 324 l 2,19,11
 386 324 386 324 429 360 c 128,-1,12
EndSplineSet
EndChar

StartChar: Thorn
Encoding: 222 222 139
Width: 641
GlyphClass: 2
Flags: W
AnchorPoint: "Anchor-10" 0 0 basechar 0
AnchorPoint: "Anchor-9" 321 700 basechar 0
AnchorPoint: "Anchor-8" 0 0 basechar 0
AnchorPoint: "Anchor-7" 317 0 basechar 0
LayerCount: 2
Fore
SplineSet
517.5 536.5 m 128,-1,1
 583 474 583 474 583 366 c 0,2,3
 583 257 583 257 517 193 c 128,-1,4
 451 129 451 129 316 129 c 2,5,-1
 196 129 l 1,6,-1
 196 0 l 1,7,-1
 98 0 l 1,8,-1
 98 700 l 1,9,-1
 196 700 l 1,10,-1
 196 599 l 1,11,-1
 316 599 l 2,12,0
 452 599 452 599 517.5 536.5 c 128,-1,1
442.5 247 m 128,-1,14
 483 288 483 288 483 366 c 0,15,16
 483 443 483 443 442.5 482 c 128,-1,17
 402 521 402 521 313 521 c 2,18,-1
 196 521 l 1,19,-1
 196 206 l 1,20,-1
 313 206 l 2,21,13
 402 206 402 206 442.5 247 c 128,-1,14
EndSplineSet
EndChar

StartChar: Q
Encoding: 81 81 140
Width: 680
GlyphClass: 2
Flags: W
AnchorPoint: "Anchor-10" 482 639 basechar 0
AnchorPoint: "Anchor-9" 340 660 basechar 0
AnchorPoint: "Anchor-8" 439 31 basechar 0
AnchorPoint: "Anchor-7" 340 0 basechar 0
LayerCount: 2
Fore
SplineSet
597 148 m 128,-1,1
 559 64 559 64 487 24 c 1,2,3
 525 -22 525 -22 555 -55 c 1,4,5
 532 -85 532 -85 490 -85 c 0,6,7
 454 -85 454 -85 430 -53 c 0,8,9
 411 -25 411 -25 398 -5 c 1,10,11
 368 -10 368 -10 340 -10 c 0,12,13
 198 -10 198 -10 121.5 84.5 c 128,-1,14
 45 179 45 179 45 354 c 0,15,16
 45 525 45 525 121.5 617.5 c 128,-1,17
 198 710 198 710 340 710 c 256,18,19
 482 710 482 710 558.5 617.5 c 128,-1,20
 635 525 635 525 635 354 c 0,21,0
 635 232 635 232 597 148 c 128,-1,1
353 69 m 1,22,23
 342 90 342 90 332.5 105.5 c 128,-1,24
 323 121 323 121 317 132 c 2,25,-1
 301 159 l 1,26,-1
 391 159 l 1,27,28
 410 126 410 126 435 92 c 1,29,30
 533 151 533 151 533 354 c 0,31,32
 533 494 533 494 485.5 562.5 c 128,-1,33
 438 631 438 631 340 631 c 256,34,35
 242 631 242 631 194.5 562.5 c 128,-1,36
 147 494 147 494 147 354 c 0,37,38
 147 69 147 69 340 69 c 2,39,-1
 353 69 l 1,22,23
EndSplineSet
EndChar

StartChar: R
Encoding: 82 82 141
Width: 633
GlyphClass: 2
Flags: W
AnchorPoint: "Anchor-10" 0 0 basechar 0
AnchorPoint: "Anchor-9" 313 660 basechar 0
AnchorPoint: "Anchor-8" 0 0 basechar 0
AnchorPoint: "Anchor-7" 315 0 basechar 0
LayerCount: 2
Fore
SplineSet
595 6 m 1,0,1
 585 0 585 0 569 -4 c 128,-1,2
 553 -8 553 -8 537 -8 c 0,3,4
 514 -8 514 -8 500.5 -0.5 c 128,-1,5
 487 7 487 7 477 25 c 2,6,-1
 377 211 l 2,7,8
 355 252 355 252 326 268 c 128,-1,9
 297 284 297 284 245 284 c 2,10,-1
 182 284 l 1,11,-1
 182 0 l 1,12,-1
 83 0 l 1,13,-1
 83 700 l 1,14,-1
 313 700 l 2,15,16
 439 700 439 700 509 645 c 128,-1,17
 579 590 579 590 579 492 c 0,18,19
 579 421 579 421 536 369.5 c 128,-1,20
 493 318 493 318 420 298 c 1,21,22
 449 271 449 271 467 237 c 2,23,-1
 595 6 l 1,0,1
307 361 m 2,24,25
 390 361 390 361 433.5 394.5 c 128,-1,26
 477 428 477 428 477 492 c 0,27,28
 477 623 477 623 310 623 c 2,29,-1
 182 623 l 1,30,-1
 182 361 l 1,31,-1
 307 361 l 2,24,25
EndSplineSet
EndChar

StartChar: S
Encoding: 83 83 148
Width: 642
GlyphClass: 2
Flags: W
AnchorPoint: "Anchor-10" 0 0 basechar 0
AnchorPoint: "Anchor-9" 321 660 basechar 0
AnchorPoint: "Anchor-8" 0 0 basechar 0
AnchorPoint: "Anchor-7" 324 0 basechar 0
LayerCount: 2
Fore
SplineSet
193.5 10.5 m 128,-1,1
 135 31 135 31 102 67.5 c 128,-1,2
 69 104 69 104 69 150 c 0,3,4
 69 175 69 175 88.5 190 c 128,-1,5
 108 205 108 205 142 206 c 1,6,7
 155 139 155 139 202.5 103.5 c 128,-1,8
 250 68 250 68 327 68 c 256,9,10
 404 68 404 68 448.5 101.5 c 128,-1,11
 493 135 493 135 493 192 c 0,12,13
 493 241 493 241 453 270.5 c 128,-1,14
 413 300 413 300 313 327 c 0,15,16
 229 350 229 350 180 376.5 c 128,-1,17
 131 403 131 403 108.5 438.5 c 128,-1,18
 86 474 86 474 86 524 c 0,19,20
 86 610 86 610 151 660 c 128,-1,21
 216 710 216 710 329 710 c 0,22,23
 425 710 425 710 490.5 665 c 128,-1,24
 556 620 556 620 579 538 c 1,25,26
 569 528 569 528 552 521.5 c 128,-1,27
 535 515 535 515 519 515 c 0,28,29
 504 515 504 515 493.5 522 c 128,-1,30
 483 529 483 529 476 545 c 0,31,32
 455 587 455 587 416.5 610 c 128,-1,33
 378 633 378 633 329 633 c 0,34,35
 258 633 258 633 222 607 c 128,-1,36
 186 581 186 581 186 529 c 0,37,38
 186 500 186 500 199.5 480.5 c 128,-1,39
 213 461 213 461 245.5 444.5 c 128,-1,40
 278 428 278 428 339 410 c 0,41,42
 444 379 444 379 498 352 c 128,-1,43
 552 325 552 325 573.5 291.5 c 128,-1,44
 595 258 595 258 595 206 c 0,45,46
 595 141 595 141 561.5 92 c 128,-1,47
 528 43 528 43 467 16.5 c 128,-1,48
 406 -10 406 -10 325 -10 c 0,49,0
 252 -10 252 -10 193.5 10.5 c 128,-1,1
EndSplineSet
EndChar

StartChar: Scedilla
Encoding: 350 350 151
Width: 642
GlyphClass: 2
Flags: W
AnchorPoint: "Anchor-10" 0 0 basechar 0
AnchorPoint: "Anchor-9" 0 0 basechar 0
AnchorPoint: "Anchor-8" 0 0 basechar 0
AnchorPoint: "Anchor-7" 324 -214 basechar 0
LayerCount: 2
Fore
SplineSet
531 57 m 128,-1,1
 467 -1 467 -1 358 -9 c 1,2,-1
 319 -54 l 1,3,-1
 328 -54 l 2,4,5
 370 -54 370 -54 397 -76 c 128,-1,6
 424 -98 424 -98 424 -136 c 0,7,8
 424 -181 424 -181 389.5 -206.5 c 128,-1,9
 355 -232 355 -232 297 -232 c 0,10,11
 248 -232 248 -232 224 -220 c 128,-1,12
 200 -208 200 -208 200 -186 c 0,13,14
 200 -178 200 -178 203 -170 c 1,15,16
 244 -181 244 -181 287 -181 c 0,17,18
 317 -181 317 -181 332.5 -170 c 128,-1,19
 348 -159 348 -159 348 -138 c 0,20,21
 348 -125 348 -125 336.5 -114.5 c 128,-1,22
 325 -104 325 -104 303 -104 c 0,23,24
 288 -104 288 -104 267 -110 c 1,25,-1
 243 -75 l 1,26,-1
 291 -9 l 1,27,28
 226 -4 226 -4 175.5 17.5 c 128,-1,29
 125 39 125 39 97 73.5 c 128,-1,30
 69 108 69 108 69 150 c 0,31,32
 69 175 69 175 88.5 190 c 128,-1,33
 108 205 108 205 142 206 c 1,34,35
 155 139 155 139 202.5 103.5 c 128,-1,36
 250 68 250 68 327 68 c 256,37,38
 404 68 404 68 448.5 101.5 c 128,-1,39
 493 135 493 135 493 192 c 0,40,41
 493 241 493 241 453 270.5 c 128,-1,42
 413 300 413 300 313 327 c 0,43,44
 229 350 229 350 180 376.5 c 128,-1,45
 131 403 131 403 108.5 438.5 c 128,-1,46
 86 474 86 474 86 524 c 0,47,48
 86 610 86 610 151 660 c 128,-1,49
 216 710 216 710 329 710 c 0,50,51
 425 710 425 710 490.5 665 c 128,-1,52
 556 620 556 620 579 538 c 1,53,54
 569 528 569 528 552 521.5 c 128,-1,55
 535 515 535 515 519 515 c 0,56,57
 504 515 504 515 493.5 522 c 128,-1,58
 483 529 483 529 476 545 c 0,59,60
 455 587 455 587 416.5 610 c 128,-1,61
 378 633 378 633 329 633 c 0,62,63
 258 633 258 633 222 607 c 128,-1,64
 186 581 186 581 186 529 c 0,65,66
 186 500 186 500 199.5 480.5 c 128,-1,67
 213 461 213 461 245.5 444.5 c 128,-1,68
 278 428 278 428 339 410 c 0,69,70
 444 379 444 379 498 352 c 128,-1,71
 552 325 552 325 573.5 291.5 c 128,-1,72
 595 258 595 258 595 206 c 0,73,0
 595 115 595 115 531 57 c 128,-1,1
EndSplineSet
Substitution2: "'locl' Localized Forms in Latin lookup 7 subtable" uni0218
Substitution2: "'locl' Localized Forms in Latin lookup 6 subtable" uni0218
Substitution2: "'aalt' Access All Alternates lookup 0 subtable" uni0218
EndChar

StartChar: uni1E9E
Encoding: 7838 7838 156
Width: 710
Flags: W
LayerCount: 2
Fore
SplineSet
597 329.5 m 128,-1,1
 649 281 649 281 649 194 c 0,2,3
 649 129 649 129 618.5 83 c 128,-1,4
 588 37 588 37 536 13.5 c 128,-1,5
 484 -10 484 -10 418 -10 c 0,6,7
 374 -10 374 -10 331 2 c 128,-1,8
 288 14 288 14 264 34 c 0,9,10
 255 41 255 41 250.5 52 c 128,-1,11
 246 63 246 63 246 74 c 0,12,13
 246 90 246 90 254.5 101.5 c 128,-1,14
 263 113 263 113 277 115 c 1,15,16
 338 65 338 65 415 65 c 0,17,18
 477 65 477 65 513 98 c 128,-1,19
 549 131 549 131 549 193 c 0,20,21
 549 265 549 265 508.5 297 c 128,-1,22
 468 329 468 329 394 329 c 0,23,24
 369 329 369 329 354 344 c 128,-1,25
 339 359 339 359 339 381 c 1,26,-1
 496 547 l 1,27,28
 460 633 460 633 338 633 c 0,29,30
 266 633 266 633 221 588.5 c 128,-1,31
 176 544 176 544 176 466 c 2,32,-1
 176 0 l 1,33,-1
 77 0 l 1,34,-1
 77 466 l 2,35,36
 77 540 77 540 112 595 c 128,-1,37
 147 650 147 650 207 679 c 128,-1,38
 267 708 267 708 341 708 c 0,39,40
 449 708 449 708 518 659.5 c 128,-1,41
 587 611 587 611 604 536 c 1,42,-1
 465 392 l 1,43,0
 545 378 545 378 597 329.5 c 128,-1,1
EndSplineSet
EndChar

StartChar: uni018F
Encoding: 399 399 157
Width: 702
Flags: W
LayerCount: 2
Fore
SplineSet
564 616 m 128,-1,1
 644 522 644 522 644 348 c 256,2,3
 644 174 644 174 564.5 82 c 128,-1,4
 485 -10 485 -10 335 -10 c 0,5,6
 194 -10 194 -10 119.5 73.5 c 128,-1,7
 45 157 45 157 45 315 c 2,8,-1
 45 370 l 1,9,-1
 543 370 l 1,10,11
 534 634 534 634 337 634 c 0,12,13
 287 634 287 634 249 619.5 c 128,-1,14
 211 605 211 605 165 567 c 0,15,16
 151 556 151 556 138 556 c 0,17,18
 122 556 122 556 105.5 570.5 c 128,-1,19
 89 585 89 585 78 608 c 1,20,21
 113 653 113 653 184.5 681.5 c 128,-1,22
 256 710 256 710 336 710 c 0,23,0
 484 710 484 710 564 616 c 128,-1,1
541 294 m 1,25,-1
 144 294 l 1,26,27
 144 183 144 183 193 124.5 c 128,-1,28
 242 66 242 66 336 66 c 0,29,24
 523 66 523 66 541 294 c 1,25,-1
EndSplineSet
EndChar

StartChar: T
Encoding: 84 84 158
Width: 534
GlyphClass: 2
Flags: W
AnchorPoint: "Anchor-10" 0 0 basechar 0
AnchorPoint: "Anchor-9" 268 660 basechar 0
AnchorPoint: "Anchor-8" 0 0 basechar 0
AnchorPoint: "Anchor-7" 269 0 basechar 0
LayerCount: 2
Fore
SplineSet
523 669 m 0,1,2
 523 647 523 647 513 635 c 128,-1,3
 503 623 503 623 484 623 c 2,4,-1
 316 623 l 1,5,-1
 316 0 l 1,6,-1
 218 0 l 1,7,-1
 218 623 l 1,8,-1
 15 623 l 1,9,-1
 15 700 l 1,10,-1
 519 700 l 1,11,0
 523 680 523 680 523 669 c 0,1,2
EndSplineSet
EndChar

StartChar: Tbar
Encoding: 358 358 159
Width: 533
GlyphClass: 2
Flags: W
AnchorPoint: "Anchor-10" 0 0 basechar 0
AnchorPoint: "Anchor-9" 268 660 basechar 0
AnchorPoint: "Anchor-8" 0 0 basechar 0
AnchorPoint: "Anchor-7" 269 0 basechar 0
LayerCount: 2
Fore
SplineSet
523 669 m 0,1,2
 523 647 523 647 513 635 c 128,-1,3
 503 623 503 623 484 623 c 2,4,-1
 316 623 l 1,5,-1
 316 363 l 1,6,-1
 437 363 l 1,7,-1
 437 292 l 1,8,-1
 316 292 l 1,9,-1
 316 0 l 1,10,-1
 218 0 l 1,11,-1
 218 292 l 1,12,-1
 99 292 l 1,13,-1
 99 363 l 1,14,-1
 218 363 l 1,15,-1
 218 623 l 1,16,-1
 15 623 l 1,17,-1
 15 700 l 1,18,-1
 519 700 l 1,19,0
 523 680 523 680 523 669 c 0,1,2
EndSplineSet
EndChar

StartChar: U
Encoding: 85 85 165
Width: 709
GlyphClass: 2
Flags: W
AnchorPoint: "Anchor-10" 625 673 basechar 0
AnchorPoint: "Anchor-9" 354 660 basechar 0
AnchorPoint: "Anchor-8" 445 10 basechar 0
AnchorPoint: "Anchor-7" 355 0 basechar 0
LayerCount: 2
Fore
SplineSet
151 55 m 128,-1,1
 83 120 83 120 83 251 c 2,2,-1
 83 700 l 1,3,-1
 182 700 l 1,4,-1
 182 237 l 2,5,6
 182 151 182 151 225 109.5 c 128,-1,7
 268 68 268 68 356 68 c 0,8,9
 445 68 445 68 487 109 c 128,-1,10
 529 150 529 150 529 237 c 2,11,-1
 529 700 l 1,12,-1
 628 700 l 1,13,-1
 628 251 l 2,14,15
 628 117 628 117 561.5 53.5 c 128,-1,16
 495 -10 495 -10 356 -10 c 0,17,0
 219 -10 219 -10 151 55 c 128,-1,1
EndSplineSet
EndChar

StartChar: Uhorn
Encoding: 431 431 178
Width: 709
GlyphClass: 2
Flags: W
AnchorPoint: "Anchor-10" 625 673 basechar 0
AnchorPoint: "Anchor-9" 354 660 basechar 0
AnchorPoint: "Anchor-8" 445 10 basechar 0
AnchorPoint: "Anchor-7" 355 0 basechar 0
LayerCount: 2
Fore
SplineSet
739 682.5 m 128,-1,1
 701 647 701 647 628 643 c 1,2,-1
 628 251 l 2,3,4
 628 117 628 117 561.5 53.5 c 128,-1,5
 495 -10 495 -10 356 -10 c 0,6,7
 219 -10 219 -10 151 55 c 128,-1,8
 83 120 83 120 83 251 c 2,9,-1
 83 700 l 1,10,-1
 182 700 l 1,11,-1
 182 237 l 2,12,13
 182 151 182 151 225 109.5 c 128,-1,14
 268 68 268 68 356 68 c 0,15,16
 445 68 445 68 487 109 c 128,-1,17
 529 150 529 150 529 237 c 2,18,-1
 529 700 l 1,19,-1
 625 700 l 2,20,21
 656 700 656 700 673 718 c 128,-1,22
 690 736 690 736 690 767 c 0,23,24
 690 797 690 797 661 819 c 1,25,26
 663 834 663 834 676.5 844.5 c 128,-1,27
 690 855 690 855 709 855 c 0,28,29
 739 855 739 855 758 834.5 c 128,-1,30
 777 814 777 814 777 777 c 0,31,0
 777 718 777 718 739 682.5 c 128,-1,1
EndSplineSet
EndChar

StartChar: Uogonek
Encoding: 370 370 186
Width: 709
GlyphClass: 2
Flags: W
AnchorPoint: "Anchor-10" 625 673 basechar 0
AnchorPoint: "Anchor-9" 354 660 basechar 0
AnchorPoint: "Anchor-8" 445 10 basechar 0
AnchorPoint: "Anchor-7" 355 0 basechar 0
LayerCount: 2
Fore
SplineSet
628 700 m 1,0,-1
 628 251 l 2,1,2
 628 136 628 136 579 73 c 128,-1,3
 530 10 530 10 428 -5 c 1,4,5
 382 -49 382 -49 382 -99 c 0,6,7
 382 -121 382 -121 394 -133.5 c 128,-1,8
 406 -146 406 -146 427 -146 c 0,9,10
 453 -146 453 -146 473 -136 c 1,11,12
 484 -146 484 -146 484 -161 c 0,13,14
 484 -178 484 -178 465 -189 c 128,-1,15
 446 -200 446 -200 411 -200 c 0,16,17
 362 -200 362 -200 333 -177 c 128,-1,18
 304 -154 304 -154 304 -114 c 0,19,20
 304 -50 304 -50 363 -10 c 1,21,-1
 356 -10 l 2,22,23
 219 -10 219 -10 151 55 c 128,-1,24
 83 120 83 120 83 251 c 2,25,-1
 83 700 l 1,26,-1
 182 700 l 1,27,-1
 182 237 l 2,28,29
 182 151 182 151 225 109.5 c 128,-1,30
 268 68 268 68 356 68 c 0,31,32
 445 68 445 68 487 109 c 128,-1,33
 529 150 529 150 529 237 c 2,34,-1
 529 700 l 1,35,-1
 628 700 l 1,0,-1
EndSplineSet
EndChar

StartChar: V
Encoding: 86 86 189
Width: 638
GlyphClass: 2
Flags: W
AnchorPoint: "Anchor-10" 0 0 basechar 0
AnchorPoint: "Anchor-9" 319 660 basechar 0
AnchorPoint: "Anchor-8" 0 0 basechar 0
AnchorPoint: "Anchor-7" 319 0 basechar 0
LayerCount: 2
Fore
SplineSet
611 700 m 1,0,1
 583 508 583 508 523.5 336 c 128,-1,2
 464 164 464 164 367 0 c 1,3,-1
 272 0 l 1,4,5
 175 165 175 165 115 337 c 128,-1,6
 55 509 55 509 27 700 c 1,7,-1
 130 700 l 1,8,9
 177 364 177 364 319 106 c 1,10,11
 461 364 461 364 508 700 c 1,12,-1
 611 700 l 1,0,1
EndSplineSet
EndChar

StartChar: W
Encoding: 87 87 190
Width: 869
GlyphClass: 2
Flags: W
AnchorPoint: "Anchor-10" 0 0 basechar 0
AnchorPoint: "Anchor-9" 440 660 basechar 0
AnchorPoint: "Anchor-8" 0 0 basechar 0
AnchorPoint: "Anchor-7" 440 0 basechar 0
LayerCount: 2
Fore
SplineSet
854 700 m 1,0,1
 832 532 832 532 795 377 c 128,-1,2
 758 222 758 222 686 0 c 1,3,-1
 577 0 l 1,4,5
 516 198 516 198 487.5 303 c 128,-1,6
 459 408 459 408 440 507 c 1,7,8
 417 397 417 397 387 287 c 128,-1,9
 357 177 357 177 302 0 c 1,10,-1
 193 0 l 1,11,12
 121 208 121 208 81 367 c 128,-1,13
 41 526 41 526 15 700 c 1,14,-1
 114 700 l 1,15,16
 133 549 133 549 162 424 c 128,-1,17
 191 299 191 299 248 115 c 1,18,19
 288 240 288 240 319.5 358 c 128,-1,20
 351 476 351 476 403 700 c 1,21,-1
 472 700 l 1,22,23
 548 404 548 404 574.5 308.5 c 128,-1,24
 601 213 601 213 632 116 c 1,25,26
 687 299 687 299 714 423 c 128,-1,27
 741 547 741 547 760 700 c 1,28,-1
 854 700 l 1,0,1
EndSplineSet
EndChar

StartChar: X
Encoding: 88 88 195
Width: 589
GlyphClass: 2
Flags: W
AnchorPoint: "Anchor-10" 0 0 basechar 0
AnchorPoint: "Anchor-9" 298 660 basechar 0
AnchorPoint: "Anchor-8" 0 0 basechar 0
AnchorPoint: "Anchor-7" 298 0 basechar 0
LayerCount: 2
Fore
SplineSet
468 0 m 1,0,1
 453 91 453 91 409.5 162 c 128,-1,2
 366 233 366 233 294 308 c 1,3,4
 223 232 223 232 179.5 161.5 c 128,-1,5
 136 91 136 91 121 0 c 1,6,-1
 17 0 l 1,7,8
 32 82 32 82 64 147.5 c 128,-1,9
 96 213 96 213 136 262.5 c 128,-1,10
 176 312 176 312 234 370 c 1,11,12
 179 427 179 427 142 472 c 128,-1,13
 105 517 105 517 75.5 574.5 c 128,-1,14
 46 632 46 632 32 700 c 1,15,-1
 134 700 l 1,16,17
 151 621 151 621 190.5 560 c 128,-1,18
 230 499 230 499 294 431 c 1,19,20
 358 498 358 498 398 559.5 c 128,-1,21
 438 621 438 621 455 700 c 1,22,-1
 556 700 l 1,23,24
 542 632 542 632 512.5 575 c 128,-1,25
 483 518 483 518 446.5 473 c 128,-1,26
 410 428 410 428 355 370 c 1,27,28
 413 312 413 312 452.5 262.5 c 128,-1,29
 492 213 492 213 524 147.5 c 128,-1,30
 556 82 556 82 571 0 c 1,31,-1
 468 0 l 1,0,1
EndSplineSet
EndChar

StartChar: Y
Encoding: 89 89 196
Width: 590
GlyphClass: 2
Flags: W
AnchorPoint: "Anchor-10" 0 0 basechar 0
AnchorPoint: "Anchor-9" 295 660 basechar 0
AnchorPoint: "Anchor-8" 0 0 basechar 0
AnchorPoint: "Anchor-7" 295 0 basechar 0
LayerCount: 2
Fore
SplineSet
573 700 m 1,0,-1
 344 294 l 1,1,-1
 344 0 l 1,2,-1
 246 0 l 1,3,-1
 246 294 l 1,4,-1
 17 700 l 1,5,-1
 121 700 l 1,6,-1
 296 383 l 1,7,-1
 470 700 l 1,8,-1
 573 700 l 1,0,-1
EndSplineSet
EndChar

StartChar: Z
Encoding: 90 90 205
Width: 580
GlyphClass: 2
Flags: W
AnchorPoint: "Anchor-10" 0 0 basechar 0
AnchorPoint: "Anchor-9" 287 660 basechar 0
AnchorPoint: "Anchor-8" 0 0 basechar 0
AnchorPoint: "Anchor-7" 287 0 basechar 0
LayerCount: 2
Fore
SplineSet
531 73 m 1,0,-1
 531 0 l 1,1,-1
 51 0 l 1,2,-1
 51 73 l 1,3,-1
 417 627 l 1,4,-1
 49 627 l 1,5,-1
 49 700 l 1,6,-1
 523 700 l 1,7,-1
 523 623 l 1,8,-1
 163 73 l 1,9,-1
 531 73 l 1,0,-1
EndSplineSet
EndChar

StartChar: a
Encoding: 97 97 210
Width: 561
GlyphClass: 2
Flags: W
AnchorPoint: "Anchor-10" 0 0 basechar 0
AnchorPoint: "Anchor-9" 277 550 basechar 0
AnchorPoint: "Anchor-8" 502 10 basechar 0
AnchorPoint: "Anchor-7" 279 0 basechar 0
LayerCount: 2
Fore
SplineSet
493.5 72 m 128,-1,1
 501 42 501 42 520 20 c 1,2,3
 506 9 506 9 486 1.5 c 128,-1,4
 466 -6 466 -6 449 -6 c 0,5,6
 403 -6 403 -6 394 76 c 1,7,8
 364 35 364 35 317.5 12.5 c 128,-1,9
 271 -10 271 -10 213 -10 c 0,10,11
 138 -10 138 -10 92.5 29 c 128,-1,12
 47 68 47 68 47 133 c 0,13,14
 47 317 47 317 391 334 c 1,15,-1
 391 373 l 2,16,17
 391 431 391 431 362 459 c 128,-1,18
 333 487 333 487 272 487 c 0,19,20
 232 487 232 487 197 471 c 128,-1,21
 162 455 162 455 117 415 c 0,22,23
 110 410 110 410 104 410 c 0,24,25
 91 410 91 410 76 423.5 c 128,-1,26
 61 437 61 437 48 461 c 1,27,28
 90 508 90 508 152 534 c 128,-1,29
 214 560 214 560 281 560 c 0,30,31
 377 560 377 560 431.5 510.5 c 128,-1,32
 486 461 486 461 486 373 c 2,33,-1
 486 160 l 2,34,0
 486 102 486 102 493.5 72 c 128,-1,1
320 86.5 m 128,-1,36
 360 114 360 114 391 165 c 1,37,-1
 391 272 l 1,38,39
 143 261 143 261 143 139 c 0,40,41
 143 100 143 100 166.5 79.5 c 128,-1,42
 190 59 190 59 234 59 c 0,43,35
 280 59 280 59 320 86.5 c 128,-1,36
EndSplineSet
Substitution2: "Single Substitution lookup 20 subtable" ordfeminine
Substitution2: "'aalt' Access All Alternates lookup 0 subtable" ordfeminine
EndChar

StartChar: uni0251
Encoding: 593 593 229
Width: 598
Flags: W
LayerCount: 2
Fore
SplineSet
537 14 m 1,1,2
 499 -5 499 -5 467 -5 c 0,3,4
 436 -5 436 -5 426 56 c 1,5,6
 399 23 399 23 360 6.5 c 128,-1,7
 321 -10 321 -10 266 -10 c 0,8,9
 165 -10 165 -10 101 59.5 c 128,-1,10
 37 129 37 129 37 272 c 0,11,12
 37 362 37 362 68.5 427 c 128,-1,13
 100 492 100 492 156.5 526 c 128,-1,14
 213 560 213 560 289 560 c 0,15,16
 327 560 327 560 362 548 c 128,-1,17
 397 536 397 536 422 519 c 1,18,-1
 422 550 l 1,19,-1
 517 550 l 1,20,-1
 517 151 l 2,21,0
 517 54 517 54 537 14 c 1,1,2
422 138 m 1,23,-1
 422 443 l 1,24,25
 401 465 401 465 367 479 c 128,-1,26
 333 493 333 493 297 493 c 0,27,28
 221 493 221 493 177 436.5 c 128,-1,29
 133 380 133 380 133 272 c 0,30,31
 133 165 133 165 173.5 112 c 128,-1,32
 214 59 214 59 284 59 c 0,33,22
 374 59 374 59 422 138 c 1,23,-1
EndSplineSet
EndChar

StartChar: aogonek
Encoding: 261 261 231
Width: 561
GlyphClass: 2
Flags: W
AnchorPoint: "Anchor-10" 0 0 basechar 0
AnchorPoint: "Anchor-9" 277 550 basechar 0
AnchorPoint: "Anchor-8" 502 10 basechar 0
AnchorPoint: "Anchor-7" 279 0 basechar 0
LayerCount: 2
Fore
SplineSet
541 -161 m 0,1,2
 541 -178 541 -178 522 -189 c 128,-1,3
 503 -200 503 -200 468 -200 c 0,4,5
 419 -200 419 -200 390 -177 c 128,-1,6
 361 -154 361 -154 361 -114 c 0,7,8
 361 -45 361 -45 432 -2 c 1,9,10
 402 12 402 12 394 76 c 1,11,12
 364 35 364 35 317.5 12.5 c 128,-1,13
 271 -10 271 -10 213 -10 c 0,14,15
 138 -10 138 -10 92.5 29 c 128,-1,16
 47 68 47 68 47 133 c 0,17,18
 47 317 47 317 391 334 c 1,19,-1
 391 373 l 2,20,21
 391 431 391 431 362 459 c 128,-1,22
 333 487 333 487 272 487 c 0,23,24
 232 487 232 487 197 471 c 128,-1,25
 162 455 162 455 117 415 c 0,26,27
 110 410 110 410 104 410 c 0,28,29
 91 410 91 410 76 423.5 c 128,-1,30
 61 437 61 437 48 461 c 1,31,32
 90 508 90 508 152 534 c 128,-1,33
 214 560 214 560 281 560 c 0,34,35
 377 560 377 560 431.5 510.5 c 128,-1,36
 486 461 486 461 486 373 c 2,37,-1
 486 160 l 2,38,39
 486 102 486 102 493.5 72 c 128,-1,40
 501 42 501 42 520 20 c 1,41,42
 506 10 506 10 497 6 c 0,43,44
 439 -42 439 -42 439 -99 c 0,45,46
 439 -121 439 -121 451 -133.5 c 128,-1,47
 463 -146 463 -146 484 -146 c 0,48,49
 510 -146 510 -146 530 -136 c 1,50,0
 541 -146 541 -146 541 -161 c 0,1,2
320 86.5 m 128,-1,52
 360 114 360 114 391 165 c 1,53,-1
 391 272 l 1,54,55
 143 261 143 261 143 139 c 0,56,57
 143 100 143 100 166.5 79.5 c 128,-1,58
 190 59 190 59 234 59 c 0,59,51
 280 59 280 59 320 86.5 c 128,-1,52
EndSplineSet
EndChar

StartChar: ae
Encoding: 230 230 235
Width: 909
GlyphClass: 2
Flags: W
AnchorPoint: "Anchor-10" 0 0 basechar 0
AnchorPoint: "Anchor-9" 450 550 basechar 0
AnchorPoint: "Anchor-8" 0 0 basechar 0
AnchorPoint: "Anchor-7" 450 0 basechar 0
LayerCount: 2
Fore
SplineSet
867 261 m 1,1,-1
 490 261 l 1,2,3
 496 59 496 59 639 59 c 0,4,5
 695 59 695 59 726 80.5 c 128,-1,6
 757 102 757 102 779 144 c 0,7,8
 786 156 786 156 800 156 c 0,9,10
 822 156 822 156 861 128 c 1,11,12
 839 63 839 63 783.5 25.5 c 128,-1,13
 728 -12 728 -12 639 -12 c 0,14,15
 572 -12 572 -12 520.5 13.5 c 128,-1,16
 469 39 469 39 438 89 c 1,17,18
 401 41 401 41 346.5 14.5 c 128,-1,19
 292 -12 292 -12 223 -12 c 0,20,21
 145 -12 145 -12 96 26 c 128,-1,22
 47 64 47 64 47 132 c 0,23,24
 47 327 47 327 393 332 c 1,25,-1
 393 373 l 2,26,27
 393 487 393 487 277 487 c 0,28,29
 228 487 228 487 194.5 469 c 128,-1,30
 161 451 161 451 116 414 c 0,31,32
 110 408 110 408 102 408 c 0,33,34
 90 408 90 408 75 422.5 c 128,-1,35
 60 437 60 437 48 461 c 1,36,37
 91 505 91 505 150 532.5 c 128,-1,38
 209 560 209 560 281 560 c 0,39,40
 340 560 340 560 385.5 539.5 c 128,-1,41
 431 519 431 519 457 481 c 1,42,43
 490 520 490 520 538.5 540 c 128,-1,44
 587 560 587 560 645 560 c 0,45,46
 754 560 754 560 813 500 c 128,-1,47
 872 440 872 440 872 321 c 0,48,0
 872 291 872 291 867 261 c 1,1,-1
775 325 m 1,49,50
 775 493 775 493 642 493 c 0,51,52
 578 493 578 493 539.5 451 c 128,-1,53
 501 409 501 409 492 325 c 1,54,-1
 775 325 l 1,49,50
334.5 89.5 m 128,-1,56
 381 122 381 122 403 177 c 1,57,58
 395 215 395 215 393 266 c 1,59,60
 260 261 260 261 201.5 228.5 c 128,-1,61
 143 196 143 196 143 138 c 0,62,63
 143 99 143 99 166.5 78 c 128,-1,64
 190 57 190 57 234 57 c 0,65,55
 288 57 288 57 334.5 89.5 c 128,-1,56
EndSplineSet
EndChar

StartChar: b
Encoding: 98 98 237
Width: 610
Flags: W
LayerCount: 2
Fore
SplineSet
509.5 486 m 128,-1,1
 570 412 570 412 570 281 c 0,2,3
 570 145 570 145 508 67.5 c 128,-1,4
 446 -10 446 -10 338 -10 c 0,5,6
 237 -10 237 -10 179 57 c 1,7,8
 170 -2 170 -2 138 -2 c 0,9,10
 98 -2 98 -2 65 17 c 1,11,12
 78 40 78 40 83 71.5 c 128,-1,13
 88 103 88 103 88 157 c 2,14,-1
 88 791 l 1,15,-1
 184 791 l 1,16,-1
 184 507 l 1,17,18
 252 560 252 560 341 560 c 0,19,0
 449 560 449 560 509.5 486 c 128,-1,1
436.5 117 m 128,-1,21
 473 173 473 173 473 281 c 0,22,23
 473 383 473 383 436 437 c 128,-1,24
 399 491 399 491 329 491 c 0,25,26
 289 491 289 491 251.5 476.5 c 128,-1,27
 214 462 214 462 184 435 c 1,28,-1
 184 137 l 1,29,30
 238 61 238 61 329 61 c 0,31,20
 400 61 400 61 436.5 117 c 128,-1,21
EndSplineSet
EndChar

StartChar: c
Encoding: 99 99 238
Width: 560
GlyphClass: 2
Flags: W
AnchorPoint: "Anchor-10" 0 0 basechar 0
AnchorPoint: "Anchor-9" 294 550 basechar 0
AnchorPoint: "Anchor-8" 0 0 basechar 0
AnchorPoint: "Anchor-7" 294 0 basechar 0
LayerCount: 2
Fore
SplineSet
105 64.5 m 128,-1,1
 37 139 37 139 37 278 c 0,2,3
 37 364 37 364 68 428 c 128,-1,4
 99 492 99 492 157 526 c 128,-1,5
 215 560 215 560 294 560 c 0,6,7
 388 560 388 560 448.5 512.5 c 128,-1,8
 509 465 509 465 520 385 c 1,9,10
 504 376 504 376 486 370.5 c 128,-1,11
 468 365 468 365 454 365 c 0,12,13
 442 365 442 365 435.5 372 c 128,-1,14
 429 379 429 379 424 398 c 0,15,16
 411 444 411 444 378 467.5 c 128,-1,17
 345 491 345 491 294 491 c 0,18,19
 220 491 220 491 176.5 433.5 c 128,-1,20
 133 376 133 376 133 278 c 0,21,22
 133 175 133 175 177 118 c 128,-1,23
 221 61 221 61 299 61 c 0,24,25
 417 61 417 61 456 183 c 1,26,27
 483 183 483 183 497.5 168.5 c 128,-1,28
 512 154 512 154 512 128 c 0,29,30
 512 92 512 92 482.5 60 c 128,-1,31
 453 28 453 28 404 9 c 128,-1,32
 355 -10 355 -10 299 -10 c 0,33,0
 173 -10 173 -10 105 64.5 c 128,-1,1
EndSplineSet
EndChar

StartChar: ccedilla
Encoding: 231 231 241
Width: 560
GlyphClass: 2
Flags: W
AnchorPoint: "Anchor-10" 0 0 basechar 0
AnchorPoint: "Anchor-9" 0 0 basechar 0
AnchorPoint: "Anchor-8" 0 0 basechar 0
AnchorPoint: "Anchor-7" 294 -214 basechar 0
LayerCount: 2
Fore
SplineSet
497.5 168.5 m 128,-1,1
 512 154 512 154 512 128 c 0,2,3
 512 95 512 95 487 65.5 c 128,-1,4
 462 36 462 36 419.5 16 c 128,-1,5
 377 -4 377 -4 327 -9 c 1,6,-1
 288 -54 l 1,7,-1
 297 -54 l 2,8,9
 340 -54 340 -54 367 -76 c 128,-1,10
 394 -98 394 -98 394 -136 c 0,11,12
 394 -181 394 -181 359.5 -206.5 c 128,-1,13
 325 -232 325 -232 266 -232 c 0,14,15
 217 -232 217 -232 193 -220 c 128,-1,16
 169 -208 169 -208 169 -186 c 0,17,18
 169 -177 169 -177 173 -170 c 1,19,20
 214 -181 214 -181 257 -181 c 0,21,22
 317 -181 317 -181 317 -138 c 0,23,24
 317 -125 317 -125 305.5 -114.5 c 128,-1,25
 294 -104 294 -104 272 -104 c 0,26,27
 257 -104 257 -104 236 -110 c 1,28,-1
 213 -75 l 1,29,-1
 260 -8 l 1,30,31
 152 3 152 3 94.5 77 c 128,-1,32
 37 151 37 151 37 278 c 0,33,34
 37 364 37 364 68 428 c 128,-1,35
 99 492 99 492 157 526 c 128,-1,36
 215 560 215 560 294 560 c 0,37,38
 388 560 388 560 448.5 512.5 c 128,-1,39
 509 465 509 465 520 385 c 1,40,41
 504 376 504 376 486 370.5 c 128,-1,42
 468 365 468 365 454 365 c 0,43,44
 442 365 442 365 435.5 372 c 128,-1,45
 429 379 429 379 424 398 c 0,46,47
 411 444 411 444 378 467.5 c 128,-1,48
 345 491 345 491 294 491 c 0,49,50
 220 491 220 491 176.5 433.5 c 128,-1,51
 133 376 133 376 133 278 c 0,52,53
 133 175 133 175 177 118 c 128,-1,54
 221 61 221 61 299 61 c 0,55,56
 417 61 417 61 456 183 c 1,57,0
 483 183 483 183 497.5 168.5 c 128,-1,1
EndSplineSet
EndChar

StartChar: d
Encoding: 100 100 244
Width: 598
GlyphClass: 2
Flags: W
AnchorPoint: "Anchor-10" 578 550 basechar 0
AnchorPoint: "Anchor-9" 299 750 basechar 0
AnchorPoint: "Anchor-8" 0 0 basechar 0
AnchorPoint: "Anchor-7" 299 0 basechar 0
LayerCount: 2
Fore
SplineSet
537 14 m 1,1,2
 501 -5 501 -5 467 -5 c 0,3,4
 434 -5 434 -5 425 63 c 1,5,6
 395 25 395 25 357 7.5 c 128,-1,7
 319 -10 319 -10 266 -10 c 0,8,9
 159 -10 159 -10 98 65 c 128,-1,10
 37 140 37 140 37 273 c 0,11,12
 37 407 37 407 104 483.5 c 128,-1,13
 171 560 171 560 289 560 c 0,14,15
 323 560 323 560 360.5 548.5 c 128,-1,16
 398 537 398 537 422 520 c 1,17,-1
 422 791 l 1,18,-1
 517 791 l 1,19,-1
 517 154 l 2,20,0
 517 58 517 58 537 14 c 1,1,2
359 79.5 m 128,-1,22
 394 100 394 100 422 143 c 1,23,-1
 422 443 l 1,24,25
 401 465 401 465 365.5 479 c 128,-1,26
 330 493 330 493 294 493 c 0,27,28
 216 493 216 493 174.5 436.5 c 128,-1,29
 133 380 133 380 133 273 c 0,30,31
 133 167 133 167 170 113 c 128,-1,32
 207 59 207 59 278 59 c 0,33,21
 324 59 324 59 359 79.5 c 128,-1,22
EndSplineSet
EndChar

StartChar: eth
Encoding: 240 240 245
Width: 567
Flags: W
LayerCount: 2
Fore
SplineSet
489.5 505 m 128,-1,1
 527 406 527 406 527 285 c 0,2,3
 527 149 527 149 468.5 68.5 c 128,-1,4
 410 -12 410 -12 284 -12 c 0,5,6
 159 -12 159 -12 99.5 67.5 c 128,-1,7
 40 147 40 147 40 272 c 0,8,9
 40 347 40 347 65 410.5 c 128,-1,10
 90 474 90 474 144.5 513.5 c 128,-1,11
 199 553 199 553 284 553 c 0,12,13
 331 553 331 553 368 538 c 1,14,15
 337 592 337 592 294 637 c 1,16,-1
 210 585 l 1,17,-1
 172 639 l 1,18,-1
 245 684 l 1,19,20
 214 711 214 711 172 740 c 1,21,-1
 238 797 l 1,22,23
 291 761 291 761 323 733 c 1,24,-1
 423 795 l 1,25,-1
 459 740 l 1,26,-1
 373 686 l 1,27,0
 452 604 452 604 489.5 505 c 128,-1,1
396 108.5 m 128,-1,29
 430 162 430 162 430 272 c 0,30,31
 430 376 430 376 395.5 431 c 128,-1,32
 361 486 361 486 284 486 c 256,33,34
 207 486 207 486 172 431 c 128,-1,35
 137 376 137 376 137 272 c 0,36,37
 137 162 137 162 171.5 108.5 c 128,-1,38
 206 55 206 55 284 55 c 256,39,28
 362 55 362 55 396 108.5 c 128,-1,29
EndSplineSet
EndChar

StartChar: dcroat
Encoding: 273 273 247
Width: 602
GlyphClass: 2
Flags: W
AnchorPoint: "Anchor-10" 578 550 basechar 0
AnchorPoint: "Anchor-9" 299 750 basechar 0
AnchorPoint: "Anchor-8" 0 0 basechar 0
AnchorPoint: "Anchor-7" 299 0 basechar 0
LayerCount: 2
Fore
SplineSet
517 643 m 1,0,-1
 517 154 l 2,1,2
 517 58 517 58 537 14 c 1,3,4
 501 -5 501 -5 467 -5 c 0,5,6
 434 -5 434 -5 425 63 c 1,7,8
 395 25 395 25 357 7.5 c 128,-1,9
 319 -10 319 -10 266 -10 c 0,10,11
 159 -10 159 -10 98 65 c 128,-1,12
 37 140 37 140 37 273 c 0,13,14
 37 407 37 407 104 483.5 c 128,-1,15
 171 560 171 560 289 560 c 0,16,17
 323 560 323 560 360.5 548.5 c 128,-1,18
 398 537 398 537 422 520 c 1,19,-1
 422 643 l 1,20,-1
 291 643 l 1,21,-1
 291 707 l 1,22,-1
 422 707 l 1,23,-1
 422 791 l 1,24,-1
 517 791 l 1,25,-1
 517 707 l 1,26,-1
 602 707 l 1,27,-1
 602 643 l 1,28,-1
 517 643 l 1,0,-1
359 79.5 m 128,-1,30
 394 100 394 100 422 143 c 1,31,-1
 422 443 l 1,32,33
 401 465 401 465 365.5 479 c 128,-1,34
 330 493 330 493 294 493 c 0,35,36
 216 493 216 493 174.5 436.5 c 128,-1,37
 133 380 133 380 133 273 c 0,38,39
 133 167 133 167 170 113 c 128,-1,40
 207 59 207 59 278 59 c 0,41,29
 324 59 324 59 359 79.5 c 128,-1,30
EndSplineSet
EndChar

StartChar: e
Encoding: 101 101 250
Width: 567
GlyphClass: 2
Flags: W
AnchorPoint: "Anchor-10" 0 0 basechar 0
AnchorPoint: "Anchor-9" 289 550 basechar 0
AnchorPoint: "Anchor-8" 394 10 basechar 0
AnchorPoint: "Anchor-7" 293 0 basechar 0
LayerCount: 2
Fore
SplineSet
527 261 m 1,1,-1
 143 261 l 1,2,3
 147 166 147 166 187 113.5 c 128,-1,4
 227 61 227 61 297 61 c 0,5,6
 344 61 344 61 375.5 80 c 128,-1,7
 407 99 407 99 437 146 c 0,8,9
 445 157 445 157 459 157 c 0,10,11
 482 157 482 157 519 130 c 1,12,13
 493 64 493 64 435 27 c 128,-1,14
 377 -10 377 -10 297 -10 c 0,15,16
 220 -10 220 -10 163.5 24.5 c 128,-1,17
 107 59 107 59 77 123.5 c 128,-1,18
 47 188 47 188 47 276 c 0,19,20
 47 409 47 409 114.5 484.5 c 128,-1,21
 182 560 182 560 301 560 c 0,22,23
 410 560 410 560 470 495 c 128,-1,24
 530 430 530 430 530 313 c 0,25,0
 530 293 530 293 527 261 c 1,1,-1
433 325 m 1,26,27
 433 490 433 490 298 490 c 0,28,29
 231 490 231 490 192 448 c 128,-1,30
 153 406 153 406 145 325 c 1,31,-1
 433 325 l 1,26,27
EndSplineSet
EndChar

StartChar: eogonek
Encoding: 281 281 266
Width: 567
GlyphClass: 2
Flags: W
AnchorPoint: "Anchor-10" 0 0 basechar 0
AnchorPoint: "Anchor-9" 289 550 basechar 0
AnchorPoint: "Anchor-8" 394 10 basechar 0
AnchorPoint: "Anchor-7" 293 0 basechar 0
LayerCount: 2
Fore
SplineSet
527 261 m 1,1,-1
 143 261 l 1,2,3
 147 166 147 166 187 113.5 c 128,-1,4
 227 61 227 61 297 61 c 0,5,6
 344 61 344 61 375.5 80 c 128,-1,7
 407 99 407 99 437 146 c 0,8,9
 445 157 445 157 459 157 c 0,10,11
 482 157 482 157 519 130 c 1,12,13
 501 84 501 84 467 52 c 128,-1,14
 433 20 433 20 387 4 c 1,15,16
 331 -44 331 -44 331 -99 c 0,17,18
 331 -121 331 -121 343 -133.5 c 128,-1,19
 355 -146 355 -146 376 -146 c 0,20,21
 404 -146 404 -146 422 -136 c 1,22,23
 433 -146 433 -146 433 -161 c 0,24,25
 433 -178 433 -178 414 -189 c 128,-1,26
 395 -200 395 -200 360 -200 c 0,27,28
 311 -200 311 -200 282.5 -177 c 128,-1,29
 254 -154 254 -154 254 -114 c 0,30,31
 254 -50 254 -50 313 -10 c 1,32,-1
 297 -10 l 2,33,34
 220 -10 220 -10 163.5 24.5 c 128,-1,35
 107 59 107 59 77 123.5 c 128,-1,36
 47 188 47 188 47 276 c 0,37,38
 47 409 47 409 114.5 484.5 c 128,-1,39
 182 560 182 560 301 560 c 0,40,41
 410 560 410 560 470 495 c 128,-1,42
 530 430 530 430 530 313 c 0,43,0
 530 293 530 293 527 261 c 1,1,-1
433 325 m 1,44,45
 433 490 433 490 298 490 c 0,46,47
 231 490 231 490 192 448 c 128,-1,48
 153 406 153 406 145 325 c 1,49,-1
 433 325 l 1,44,45
EndSplineSet
EndChar

StartChar: uni0259
Encoding: 601 601 268
Width: 567
GlyphClass: 2
Flags: W
AnchorPoint: "Anchor-10" 0 0 basechar 0
AnchorPoint: "Anchor-9" 273 550 basechar 0
AnchorPoint: "Anchor-8" 172 540 basechar 0
AnchorPoint: "Anchor-7" 277 0 basechar 0
LayerCount: 2
Fore
SplineSet
403.5 525.5 m 128,-1,1
 460 491 460 491 490 426.5 c 128,-1,2
 520 362 520 362 520 274 c 0,3,4
 520 141 520 141 452.5 65.5 c 128,-1,5
 385 -10 385 -10 266 -10 c 0,6,7
 157 -10 157 -10 97 55 c 128,-1,8
 37 120 37 120 37 237 c 0,9,10
 37 257 37 257 40 289 c 1,11,-1
 423 289 l 1,12,13
 419 384 419 384 379 436.5 c 128,-1,14
 339 489 339 489 270 489 c 0,15,16
 222 489 222 489 190.5 470 c 128,-1,17
 159 451 159 451 129 404 c 0,18,19
 121 393 121 393 108 393 c 0,20,21
 86 393 86 393 48 420 c 1,22,23
 73 486 73 486 131.5 523 c 128,-1,24
 190 560 190 560 270 560 c 0,25,0
 347 560 347 560 403.5 525.5 c 128,-1,1
374 102 m 128,-1,27
 413 144 413 144 421 225 c 1,28,-1
 133 225 l 1,29,30
 133 60 133 60 269 60 c 0,31,26
 335 60 335 60 374 102 c 128,-1,27
EndSplineSet
EndChar

StartChar: f
Encoding: 102 102 269
Width: 345
Flags: W
LayerCount: 2
Fore
SplineSet
333 771.5 m 128,-1,1
 361 758 361 758 361 734 c 0,2,3
 361 723 361 723 357 712.5 c 128,-1,4
 353 702 353 702 348 699 c 1,5,6
 315 714 315 714 276 714 c 0,7,8
 239 714 239 714 219.5 690 c 128,-1,9
 200 666 200 666 200 620 c 2,10,-1
 200 550 l 1,11,-1
 317 550 l 1,12,-1
 317 485 l 1,13,-1
 200 485 l 1,14,-1
 200 0 l 1,15,-1
 105 0 l 1,16,-1
 105 485 l 1,17,-1
 9 485 l 1,18,-1
 9 550 l 1,19,-1
 105 550 l 1,20,-1
 105 621 l 2,21,22
 105 698 105 698 145.5 741.5 c 128,-1,23
 186 785 186 785 256 785 c 0,24,0
 305 785 305 785 333 771.5 c 128,-1,1
EndSplineSet
EndChar

StartChar: g
Encoding: 103 103 270
Width: 585
GlyphClass: 2
Flags: W
AnchorPoint: "Anchor-10" 0 0 basechar 0
AnchorPoint: "Anchor-9" 293 550 basechar 0
AnchorPoint: "Anchor-8" 0 0 basechar 0
AnchorPoint: "Anchor-7" 293 -189 basechar 0
LayerCount: 2
Fore
SplineSet
560.5 575.5 m 128,-1,1
 571 562 571 562 571 531 c 0,2,3
 571 516 571 516 570 508 c 1,4,5
 498 508 498 508 469 489 c 1,6,7
 507 442 507 442 507 376 c 0,8,9
 507 281 507 281 449 232.5 c 128,-1,10
 391 184 391 184 279 184 c 0,11,12
 218 184 218 184 191.5 175.5 c 128,-1,13
 165 167 165 167 165 148 c 0,14,15
 165 127 165 127 198.5 117.5 c 128,-1,16
 232 108 232 108 309 108 c 0,17,18
 424 108 424 108 486.5 69 c 128,-1,19
 549 30 549 30 549 -41 c 0,20,21
 549 -118 549 -118 481 -161 c 128,-1,22
 413 -204 413 -204 289 -204 c 0,23,24
 170 -204 170 -204 106.5 -166.5 c 128,-1,25
 43 -129 43 -129 43 -58 c 0,26,27
 43 -16 43 -16 72.5 13.5 c 128,-1,28
 102 43 102 43 157 55 c 1,29,-1
 157 58 l 1,30,31
 124 66 124 66 104.5 87.5 c 128,-1,32
 85 109 85 109 85 138 c 0,33,34
 85 163 85 163 105.5 183 c 128,-1,35
 126 203 126 203 161 212 c 1,36,37
 116 236 116 236 90.5 275.5 c 128,-1,38
 65 315 65 315 65 364 c 0,39,40
 65 460 65 460 124.5 510 c 128,-1,41
 184 560 184 560 298 560 c 0,42,43
 364 560 364 560 415 533 c 1,44,45
 439 559 439 559 469 574 c 128,-1,46
 499 589 499 589 527 589 c 0,47,0
 550 589 550 589 560.5 575.5 c 128,-1,1
380 281 m 128,-1,49
 409 309 409 309 409 372 c 256,50,51
 409 435 409 435 379.5 464 c 128,-1,52
 350 493 350 493 285 493 c 0,53,54
 222 493 222 493 192 463.5 c 128,-1,55
 162 434 162 434 162 372 c 0,56,57
 162 253 162 253 285 253 c 0,58,48
 351 253 351 253 380 281 c 128,-1,49
141 -47 m 0,60,61
 141 -134 141 -134 289 -134 c 0,62,63
 371 -134 371 -134 413 -112 c 128,-1,64
 455 -90 455 -90 455 -47 c 256,65,66
 455 -4 455 -4 416.5 16 c 128,-1,67
 378 36 378 36 293 36 c 0,68,59
 141 36 141 36 141 -47 c 0,60,61
EndSplineSet
EndChar

StartChar: h
Encoding: 104 104 277
Width: 630
GlyphClass: 2
Flags: W
AnchorPoint: "Anchor-10" 0 0 basechar 0
AnchorPoint: "Anchor-9" 125 723 basechar 0
AnchorPoint: "Anchor-8" 0 0 basechar 0
AnchorPoint: "Anchor-7" 315 0 basechar 0
LayerCount: 2
Fore
SplineSet
494.5 512.5 m 128,-1,1
 542 465 542 465 542 383 c 2,2,-1
 542 0 l 1,3,-1
 448 0 l 1,4,-1
 448 372 l 2,5,6
 448 429 448 429 421.5 458 c 128,-1,7
 395 487 395 487 344 487 c 0,8,9
 303 487 303 487 257.5 468.5 c 128,-1,10
 212 450 212 450 172 417 c 1,11,-1
 172 0 l 1,12,-1
 78 0 l 1,13,-1
 78 791 l 1,14,-1
 172 791 l 1,15,-1
 172 489 l 1,16,17
 213 522 213 522 264 541 c 128,-1,18
 315 560 315 560 366 560 c 0,19,0
 447 560 447 560 494.5 512.5 c 128,-1,1
EndSplineSet
EndChar

StartChar: hbar
Encoding: 295 295 278
Width: 643
GlyphClass: 2
Flags: W
AnchorPoint: "Anchor-10" 0 0 basechar 0
AnchorPoint: "Anchor-9" 138 723 basechar 0
AnchorPoint: "Anchor-8" 0 0 basechar 0
AnchorPoint: "Anchor-7" 328 0 basechar 0
LayerCount: 2
Fore
SplineSet
508.5 512.5 m 128,-1,1
 556 465 556 465 556 383 c 2,2,-1
 556 0 l 1,3,-1
 461 0 l 1,4,-1
 461 372 l 2,5,6
 461 429 461 429 434.5 458 c 128,-1,7
 408 487 408 487 357 487 c 0,8,9
 316 487 316 487 270.5 468.5 c 128,-1,10
 225 450 225 450 186 418 c 1,11,-1
 186 0 l 1,12,-1
 91 0 l 1,13,-1
 91 642 l 1,14,-1
 13 642 l 1,15,-1
 13 704 l 1,16,-1
 91 704 l 1,17,-1
 91 791 l 1,18,-1
 186 791 l 1,19,-1
 186 704 l 1,20,-1
 312 704 l 1,21,-1
 312 642 l 1,22,-1
 186 642 l 1,23,-1
 186 490 l 1,24,25
 227 523 227 523 278.5 541.5 c 128,-1,26
 330 560 330 560 380 560 c 0,27,0
 461 560 461 560 508.5 512.5 c 128,-1,1
EndSplineSet
EndChar

StartChar: dotlessi
Encoding: 305 305 283
Width: 288
GlyphClass: 2
Flags: W
AnchorPoint: "Anchor-10" 0 0 basechar 0
AnchorPoint: "Anchor-9" 144 550 basechar 0
AnchorPoint: "Anchor-8" 191 0 basechar 0
AnchorPoint: "Anchor-7" 144 0 basechar 0
LayerCount: 2
Fore
SplineSet
97 550 m 1,0,-1
 191 550 l 1,1,-1
 191 0 l 1,2,-1
 97 0 l 1,3,-1
 97 550 l 1,0,-1
EndSplineSet
EndChar

StartChar: uni0237
Encoding: 567 567 297
Width: 270
GlyphClass: 2
Flags: W
AnchorPoint: "Anchor-10" 0 0 basechar 0
AnchorPoint: "Anchor-9" 134 550 basechar 0
AnchorPoint: "Anchor-8" 0 0 basechar 0
AnchorPoint: "Anchor-7" 34 -199 basechar 0
LayerCount: 2
Fore
SplineSet
-18.5 -192 m 128,-1,1
 -45 -185 -45 -185 -56 -174 c 0,2,3
 -65 -165 -65 -165 -65 -152 c 0,4,5
 -65 -141 -65 -141 -59.5 -130.5 c 128,-1,6
 -54 -120 -54 -120 -48 -119 c 0,7,8
 -18 -134 -18 -134 24 -134 c 0,9,10
 54 -134 54 -134 70.5 -116 c 128,-1,11
 87 -98 87 -98 87 -62 c 2,12,-1
 87 550 l 1,13,-1
 181 550 l 1,14,-1
 181 -53 l 2,15,16
 181 -122 181 -122 143 -160.5 c 128,-1,17
 105 -199 105 -199 34 -199 c 0,18,0
 8 -199 8 -199 -18.5 -192 c 128,-1,1
EndSplineSet
EndChar

StartChar: k
Encoding: 107 107 299
Width: 570
Flags: W
LayerCount: 2
Fore
SplineSet
555 0 m 1,0,1
 533 0 533 0 505 -2 c 0,2,3
 483 -4 483 -4 478 -4 c 0,4,5
 462 -4 462 -4 452 2 c 128,-1,6
 442 8 442 8 435 20 c 2,7,-1
 323 205 l 2,8,9
 308 230 308 230 283.5 241 c 128,-1,10
 259 252 259 252 218 251 c 2,11,-1
 179 249 l 1,12,-1
 179 0 l 1,13,-1
 84 0 l 1,14,-1
 84 791 l 1,15,-1
 179 791 l 1,16,-1
 179 324 l 1,17,-1
 212 325 l 2,18,19
 239 326 239 326 254.5 335 c 128,-1,20
 270 344 270 344 284 367 c 2,21,-1
 411 550 l 1,22,-1
 522 550 l 1,23,-1
 366 339 l 2,24,25
 356 324 356 324 348 314.5 c 128,-1,26
 340 305 340 305 327 298 c 1,27,28
 377 286 377 286 401 246 c 2,29,-1
 555 0 l 1,0,1
EndSplineSet
EndChar

StartChar: kgreenlandic
Encoding: 312 312 301
Width: 600
Flags: W
LayerCount: 2
Fore
SplineSet
548 15 m 1,0,1
 503 -1 503 -1 478 -1 c 0,2,3
 449 -1 449 -1 434 22 c 2,4,-1
 316 192 l 2,5,6
 298 217 298 217 276 228 c 128,-1,7
 254 239 254 239 215 238 c 2,8,-1
 179 235 l 1,9,-1
 179 0 l 1,10,-1
 84 0 l 1,11,-1
 84 550 l 1,12,-1
 179 550 l 1,13,-1
 179 311 l 1,14,-1
 208 312 l 2,15,16
 234 313 234 313 248.5 322 c 128,-1,17
 263 331 263 331 278 354 c 2,18,-1
 411 550 l 1,19,-1
 522 550 l 1,20,-1
 353 317 l 2,21,22
 340 298 340 298 326 285 c 1,23,24
 368 270 368 270 394 232 c 2,25,-1
 548 15 l 1,0,1
EndSplineSet
EndChar

StartChar: l
Encoding: 108 108 302
Width: 268
GlyphClass: 2
Flags: W
AnchorPoint: "Anchor-10" 248 550 basechar 0
AnchorPoint: "Anchor-9" 134 750 basechar 0
AnchorPoint: "Anchor-8" 0 0 basechar 0
AnchorPoint: "Anchor-7" 134 0 basechar 0
LayerCount: 2
Fore
SplineSet
87 791 m 1,0,-1
 181 791 l 1,1,-1
 181 0 l 1,2,-1
 87 0 l 1,3,-1
 87 791 l 1,0,-1
EndSplineSet
EndChar

StartChar: lslash
Encoding: 322 322 310
Width: 268
GlyphClass: 2
Flags: W
AnchorPoint: "Anchor-10" 248 550 basechar 0
AnchorPoint: "Anchor-9" 134 750 basechar 0
AnchorPoint: "Anchor-8" 0 0 basechar 0
AnchorPoint: "Anchor-7" 134 0 basechar 0
LayerCount: 2
Fore
SplineSet
268 432 m 1,0,-1
 181 391 l 1,1,-1
 181 0 l 1,2,-1
 87 0 l 1,3,-1
 87 348 l 1,4,-1
 0 307 l 1,5,-1
 0 390 l 1,6,-1
 87 430 l 1,7,-1
 87 791 l 1,8,-1
 181 791 l 1,9,-1
 181 474 l 1,10,-1
 268 514 l 1,11,-1
 268 432 l 1,0,-1
EndSplineSet
EndChar

StartChar: m
Encoding: 109 109 311
Width: 912
GlyphClass: 2
Flags: W
AnchorPoint: "Anchor-10" 0 0 basechar 0
AnchorPoint: "Anchor-9" 456 550 basechar 0
AnchorPoint: "Anchor-8" 0 0 basechar 0
AnchorPoint: "Anchor-7" 456 0 basechar 0
LayerCount: 2
Fore
SplineSet
783 514 m 128,-1,1
 828 468 828 468 828 392 c 2,2,-1
 828 0 l 1,3,-1
 732 0 l 1,4,-1
 732 389 l 2,5,6
 732 444 732 444 710.5 468.5 c 128,-1,7
 689 493 689 493 640 493 c 0,8,9
 566 493 566 493 503 424 c 1,10,11
 504 417 504 417 504 404 c 2,12,-1
 504 0 l 1,13,-1
 410 0 l 1,14,-1
 410 399 l 2,15,16
 410 444 410 444 387 468.5 c 128,-1,17
 364 493 364 493 322 493 c 0,18,19
 285 493 285 493 250.5 474.5 c 128,-1,20
 216 456 216 456 180 417 c 1,21,-1
 180 0 l 1,22,-1
 85 0 l 1,23,-1
 85 360 l 2,24,25
 85 505 85 505 73 535 c 1,26,27
 90 543 90 543 108.5 548.5 c 128,-1,28
 127 554 127 554 141 554 c 0,29,30
 161 554 161 554 170 538.5 c 128,-1,31
 179 523 179 523 180 489 c 1,32,33
 217 526 217 526 257 543 c 128,-1,34
 297 560 297 560 348 560 c 0,35,36
 394 560 394 560 430 539.5 c 128,-1,37
 466 519 466 519 485 483 c 1,38,39
 522 523 522 523 565.5 541.5 c 128,-1,40
 609 560 609 560 664 560 c 0,41,0
 738 560 738 560 783 514 c 128,-1,1
EndSplineSet
EndChar

StartChar: n
Encoding: 110 110 313
Width: 610
GlyphClass: 2
Flags: W
AnchorPoint: "Anchor-10" 0 0 basechar 0
AnchorPoint: "Anchor-9" 305 550 basechar 0
AnchorPoint: "Anchor-8" 0 0 basechar 0
AnchorPoint: "Anchor-7" 305 0 basechar 0
LayerCount: 2
Fore
SplineSet
529.5 52 m 128,-1,1
 532 29 532 29 539 10 c 1,2,3
 503 -5 503 -5 464 -5 c 0,4,5
 445 -5 445 -5 438.5 17.5 c 128,-1,6
 432 40 432 40 432 102 c 2,7,-1
 432 370 l 2,8,9
 432 434 432 434 409.5 461.5 c 128,-1,10
 387 489 387 489 335 489 c 0,11,12
 258 489 258 489 175 414 c 1,13,-1
 175 0 l 1,14,-1
 80 0 l 1,15,-1
 80 365 l 2,16,17
 80 503 80 503 68 536 c 1,18,19
 115 554 115 554 142 554 c 0,20,21
 175 554 175 554 175 496 c 2,22,-1
 175 486 l 1,23,24
 223 525 223 525 265.5 542.5 c 128,-1,25
 308 560 308 560 356 560 c 0,26,27
 442 560 442 560 484.5 513.5 c 128,-1,28
 527 467 527 467 527 372 c 2,29,-1
 527 131 l 2,30,0
 527 75 527 75 529.5 52 c 128,-1,1
EndSplineSet
EndChar

StartChar: eng
Encoding: 331 331 320
Width: 609
Flags: W
LayerCount: 2
Fore
SplineSet
484.5 513.5 m 128,-1,1
 527 467 527 467 527 372 c 2,2,-1
 527 -40 l 2,3,4
 527 -114 527 -114 484.5 -156.5 c 128,-1,5
 442 -199 442 -199 366 -199 c 0,6,7
 330 -199 330 -199 298.5 -187.5 c 128,-1,8
 267 -176 267 -176 267 -153 c 0,9,10
 267 -142 267 -142 272.5 -131.5 c 128,-1,11
 278 -121 278 -121 284 -119 c 1,12,13
 316 -134 316 -134 359 -134 c 0,14,15
 393 -134 393 -134 412.5 -112 c 128,-1,16
 432 -90 432 -90 432 -49 c 2,17,-1
 432 370 l 2,18,19
 432 433 432 433 410 461 c 128,-1,20
 388 489 388 489 335 489 c 0,21,22
 258 489 258 489 175 414 c 1,23,-1
 175 0 l 1,24,-1
 80 0 l 1,25,-1
 80 365 l 2,26,27
 80 499 80 499 68 533 c 1,28,29
 112 551 112 551 142 551 c 0,30,31
 175 551 175 551 175 493 c 2,32,-1
 175 486 l 1,33,34
 216 520 216 520 259.5 540 c 128,-1,35
 303 560 303 560 356 560 c 0,36,0
 442 560 442 560 484.5 513.5 c 128,-1,1
EndSplineSet
EndChar

StartChar: o
Encoding: 111 111 323
Width: 555
GlyphClass: 2
Flags: W
AnchorPoint: "Anchor-10" 416 474 basechar 0
AnchorPoint: "Anchor-9" 277 550 basechar 0
AnchorPoint: "Anchor-8" 362 10 basechar 0
AnchorPoint: "Anchor-7" 277 0 basechar 0
LayerCount: 2
Fore
SplineSet
98 63 m 128,-1,1
 37 136 37 136 37 276 c 256,2,3
 37 416 37 416 98 488 c 128,-1,4
 159 560 159 560 277 560 c 256,5,6
 395 560 395 560 456.5 488 c 128,-1,7
 518 416 518 416 518 276 c 256,8,9
 518 136 518 136 456.5 63 c 128,-1,10
 395 -10 395 -10 277 -10 c 256,11,0
 159 -10 159 -10 98 63 c 128,-1,1
386.5 111 m 128,-1,13
 421 163 421 163 421 276 c 0,14,15
 421 388 421 388 386.5 439.5 c 128,-1,16
 352 491 352 491 277 491 c 256,17,18
 202 491 202 491 167.5 439.5 c 128,-1,19
 133 388 133 388 133 276 c 0,20,21
 133 163 133 163 168 111 c 128,-1,22
 203 59 203 59 277 59 c 0,23,12
 352 59 352 59 386.5 111 c 128,-1,13
EndSplineSet
Substitution2: "Single Substitution lookup 20 subtable" ordmasculine
Substitution2: "'aalt' Access All Alternates lookup 0 subtable" ordmasculine
EndChar

StartChar: ohorn
Encoding: 417 417 337
Width: 555
GlyphClass: 2
Flags: W
AnchorPoint: "Anchor-10" 416 474 basechar 0
AnchorPoint: "Anchor-9" 274 550 basechar 0
AnchorPoint: "Anchor-8" 362 10 basechar 0
AnchorPoint: "Anchor-7" 274 0 basechar 0
LayerCount: 2
Fore
SplineSet
546 500.5 m 128,-1,1
 524 469 524 469 480 455 c 1,2,3
 518 385 518 385 518 276 c 0,4,5
 518 136 518 136 456.5 63 c 128,-1,6
 395 -10 395 -10 277 -10 c 256,7,8
 159 -10 159 -10 98 63 c 128,-1,9
 37 136 37 136 37 276 c 256,10,11
 37 416 37 416 98 488 c 128,-1,12
 159 560 159 560 277 560 c 0,13,14
 380 560 380 560 441 505 c 1,15,16
 460 511 460 511 470.5 527.5 c 128,-1,17
 481 544 481 544 481 568 c 0,18,19
 481 598 481 598 452 620 c 1,20,21
 454 635 454 635 467.5 645.5 c 128,-1,22
 481 656 481 656 500 656 c 0,23,24
 531 656 531 656 549.5 635.5 c 128,-1,25
 568 615 568 615 568 578 c 0,26,0
 568 532 568 532 546 500.5 c 128,-1,1
386.5 111 m 128,-1,28
 421 163 421 163 421 276 c 0,29,30
 421 388 421 388 386.5 439.5 c 128,-1,31
 352 491 352 491 277 491 c 256,32,33
 202 491 202 491 167.5 439.5 c 128,-1,34
 133 388 133 388 133 276 c 0,35,36
 133 163 133 163 168 111 c 128,-1,37
 203 59 203 59 277 59 c 0,38,27
 352 59 352 59 386.5 111 c 128,-1,28
EndSplineSet
EndChar

StartChar: oslash
Encoding: 248 248 345
Width: 555
GlyphClass: 2
Flags: W
AnchorPoint: "Anchor-10" 416 474 basechar 0
AnchorPoint: "Anchor-9" 277 550 basechar 0
AnchorPoint: "Anchor-8" 362 10 basechar 0
AnchorPoint: "Anchor-7" 277 0 basechar 0
LayerCount: 2
Fore
SplineSet
464 479 m 1,0,1
 518 407 518 407 518 276 c 0,2,3
 518 136 518 136 456.5 63 c 128,-1,4
 395 -10 395 -10 277 -10 c 0,5,6
 185 -10 185 -10 127 35 c 1,7,-1
 101 0 l 1,8,-1
 30 0 l 1,9,-1
 88 76 l 1,10,11
 37 148 37 148 37 276 c 0,12,13
 37 416 37 416 98 488 c 128,-1,14
 159 560 159 560 277 560 c 0,15,16
 365 560 365 560 423 519 c 1,17,-1
 447 550 l 1,18,-1
 518 550 l 1,19,-1
 464 479 l 1,0,1
148 155 m 1,21,-1
 375 454 l 1,22,23
 339 491 339 491 277 491 c 0,24,25
 202 491 202 491 167.5 439.5 c 128,-1,26
 133 388 133 388 133 276 c 0,27,20
 133 203 133 203 148 155 c 1,21,-1
405 401 m 1,29,-1
 176 100 l 1,30,31
 211 59 211 59 277 59 c 0,32,33
 352 59 352 59 386.5 111 c 128,-1,34
 421 163 421 163 421 276 c 0,35,28
 421 354 421 354 405 401 c 1,29,-1
EndSplineSet
EndChar

StartChar: oe
Encoding: 339 339 348
Width: 943
GlyphClass: 2
Flags: W
AnchorPoint: "Anchor-10" 416 474 basechar 0
AnchorPoint: "Anchor-9" 666 550 basechar 0
AnchorPoint: "Anchor-8" 771 10 basechar 0
AnchorPoint: "Anchor-7" 670 0 basechar 0
LayerCount: 2
Fore
SplineSet
904 261 m 1,1,-1
 520 261 l 1,2,3
 524 166 524 166 564 113.5 c 128,-1,4
 604 61 604 61 673 61 c 0,5,6
 721 61 721 61 752.5 80 c 128,-1,7
 784 99 784 99 814 146 c 0,8,9
 822 157 822 157 835 157 c 0,10,11
 857 157 857 157 896 130 c 1,12,13
 870 64 870 64 811.5 27 c 128,-1,14
 753 -10 753 -10 673 -10 c 0,15,16
 608 -10 608 -10 557.5 15 c 128,-1,17
 507 40 507 40 474 87 c 1,18,19
 413 -10 413 -10 277 -10 c 0,20,21
 159 -10 159 -10 98 63 c 128,-1,22
 37 136 37 136 37 276 c 256,23,24
 37 416 37 416 98 488 c 128,-1,25
 159 560 159 560 277 560 c 0,26,27
 415 560 415 560 474 464 c 1,28,29
 507 511 507 511 559 535.5 c 128,-1,30
 611 560 611 560 678 560 c 0,31,32
 786 560 786 560 846.5 495 c 128,-1,33
 907 430 907 430 907 313 c 0,34,0
 907 293 907 293 904 261 c 1,1,-1
386.5 111 m 128,-1,36
 421 163 421 163 421 276 c 0,37,38
 421 388 421 388 386.5 439.5 c 128,-1,39
 352 491 352 491 277 491 c 256,40,41
 202 491 202 491 167.5 439.5 c 128,-1,42
 133 388 133 388 133 276 c 0,43,44
 133 163 133 163 168 111 c 128,-1,45
 203 59 203 59 277 59 c 0,46,35
 352 59 352 59 386.5 111 c 128,-1,36
810 325 m 1,47,48
 810 490 810 490 675 490 c 0,49,50
 608 490 608 490 569 448 c 128,-1,51
 530 406 530 406 522 325 c 1,52,-1
 810 325 l 1,47,48
EndSplineSet
EndChar

StartChar: p
Encoding: 112 112 349
Width: 598
Flags: W
LayerCount: 2
Fore
SplineSet
504 488 m 128,-1,1
 562 416 562 416 562 279 c 0,2,3
 562 192 562 192 531 126.5 c 128,-1,4
 500 61 500 61 442.5 25.5 c 128,-1,5
 385 -10 385 -10 308 -10 c 0,6,7
 239 -10 239 -10 177 14 c 1,8,-1
 177 -223 l 1,9,-1
 82 -223 l 1,10,-1
 82 355 l 2,11,12
 82 500 82 500 63 533 c 1,13,14
 82 543 82 543 102 548.5 c 128,-1,15
 122 554 122 554 137 554 c 0,16,17
 170 554 170 554 176 495 c 1,18,19
 243 560 243 560 336 560 c 0,20,0
 446 560 446 560 504 488 c 128,-1,1
421.5 116 m 128,-1,22
 464 173 464 173 464 279 c 0,23,24
 464 386 464 386 429.5 438.5 c 128,-1,25
 395 491 395 491 325 491 c 0,26,27
 284 491 284 491 245 472 c 128,-1,28
 206 453 206 453 177 420 c 1,29,-1
 177 85 l 1,30,31
 203 73 203 73 235.5 66 c 128,-1,32
 268 59 268 59 301 59 c 0,33,21
 379 59 379 59 421.5 116 c 128,-1,22
EndSplineSet
EndChar

StartChar: thorn
Encoding: 254 254 350
Width: 609
Flags: W
LayerCount: 2
Fore
SplineSet
499.5 493.5 m 128,-1,1
 562 427 562 427 562 281 c 0,2,3
 562 186 562 186 529.5 120.5 c 128,-1,4
 497 55 497 55 440 21.5 c 128,-1,5
 383 -12 383 -12 309 -12 c 0,6,7
 240 -12 240 -12 178 13 c 1,8,-1
 178 -223 l 1,9,-1
 82 -223 l 1,10,-1
 82 787 l 1,11,-1
 178 787 l 1,12,-1
 178 500 l 1,13,14
 240 560 240 560 331 560 c 0,15,0
 437 560 437 560 499.5 493.5 c 128,-1,1
420.5 112.5 m 128,-1,17
 464 168 464 168 464 281 c 0,18,19
 464 392 464 392 428 441.5 c 128,-1,20
 392 491 392 491 323 491 c 0,21,22
 241 491 241 491 178 423 c 1,23,-1
 178 85 l 1,24,25
 234 57 234 57 301 57 c 0,26,16
 377 57 377 57 420.5 112.5 c 128,-1,17
EndSplineSet
EndChar

StartChar: q
Encoding: 113 113 351
Width: 608
Flags: W
LayerCount: 2
Fore
SplineSet
541 533 m 1,1,2
 529 513 529 513 523 464.5 c 128,-1,3
 517 416 517 416 517 355 c 2,4,-1
 517 -223 l 1,5,-1
 422 -223 l 1,6,-1
 422 37 l 1,7,8
 386 11 386 11 351 0.5 c 128,-1,9
 316 -10 316 -10 268 -10 c 0,10,11
 159 -10 159 -10 98 66 c 128,-1,12
 37 142 37 142 37 276 c 0,13,14
 37 363 37 363 65 427 c 128,-1,15
 93 491 93 491 145 525.5 c 128,-1,16
 197 560 197 560 268 560 c 0,17,18
 322 560 322 560 359.5 546 c 128,-1,19
 397 532 397 532 429 500 c 1,20,21
 440 554 440 554 470 554 c 0,22,0
 505 554 505 554 541 533 c 1,1,2
422 110 m 1,24,-1
 422 420 l 1,25,-1
 422 425 l 1,26,27
 368 493 368 493 283 493 c 0,28,29
 210 493 210 493 172 437.5 c 128,-1,30
 134 382 134 382 134 276 c 0,31,32
 134 165 134 165 172 111 c 128,-1,33
 210 57 210 57 287 57 c 0,34,23
 366 57 366 57 422 110 c 1,24,-1
EndSplineSet
EndChar

StartChar: r
Encoding: 114 114 352
Width: 413
GlyphClass: 2
Flags: W
AnchorPoint: "Anchor-10" 0 0 basechar 0
AnchorPoint: "Anchor-9" 207 550 basechar 0
AnchorPoint: "Anchor-8" 0 0 basechar 0
AnchorPoint: "Anchor-7" 126 0 basechar 0
LayerCount: 2
Fore
SplineSet
395 498 m 0,1,2
 395 474 395 474 382 459 c 1,3,4
 356 472 356 472 314 472 c 0,5,6
 248 472 248 472 210.5 423.5 c 128,-1,7
 173 375 173 375 173 290 c 2,8,-1
 173 0 l 1,9,-1
 78 0 l 1,10,-1
 78 550 l 1,11,-1
 173 550 l 1,12,-1
 173 458 l 1,13,14
 195 503 195 503 233.5 530 c 128,-1,15
 272 557 272 557 316 557 c 0,16,0
 395 557 395 557 395 498 c 0,1,2
EndSplineSet
EndChar

StartChar: s
Encoding: 115 115 359
Width: 492
GlyphClass: 2
Flags: W
AnchorPoint: "Anchor-10" 0 0 basechar 0
AnchorPoint: "Anchor-9" 243 550 basechar 0
AnchorPoint: "Anchor-8" 0 0 basechar 0
AnchorPoint: "Anchor-7" 243 0 basechar 0
LayerCount: 2
Fore
SplineSet
145 5 m 128,-1,1
 97 20 97 20 67.5 44.5 c 128,-1,2
 38 69 38 69 38 98 c 0,3,4
 38 116 38 116 50.5 129.5 c 128,-1,5
 63 143 63 143 83 146 c 1,6,7
 114 101 114 101 153 80 c 128,-1,8
 192 59 192 59 249 59 c 256,9,10
 306 59 306 59 335 84.5 c 128,-1,11
 364 110 364 110 364 152 c 0,12,13
 364 179 364 179 346.5 196.5 c 128,-1,14
 329 214 329 214 302.5 224.5 c 128,-1,15
 276 235 276 235 231 247 c 0,16,17
 172 263 172 263 136.5 278.5 c 128,-1,18
 101 294 101 294 75.5 324.5 c 128,-1,19
 50 355 50 355 50 405 c 256,20,21
 50 455 50 455 78 490 c 128,-1,22
 106 525 106 525 150 542.5 c 128,-1,23
 194 560 194 560 242 560 c 0,24,25
 309 560 309 560 361.5 533.5 c 128,-1,26
 414 507 414 507 443 460 c 1,27,28
 431 443 431 443 417 433 c 128,-1,29
 403 423 403 423 391 423 c 0,30,31
 376 423 376 423 364 437 c 0,32,33
 316 493 316 493 241 493 c 0,34,35
 195 493 195 493 168 472 c 128,-1,36
 141 451 141 451 141 408 c 0,37,38
 141 381 141 381 158 364.5 c 128,-1,39
 175 348 175 348 201 338.5 c 128,-1,40
 227 329 227 329 271 318 c 0,41,42
 331 302 331 302 367 287 c 128,-1,43
 403 272 403 272 429 240 c 128,-1,44
 455 208 455 208 455 155 c 0,45,46
 455 78 455 78 398.5 34 c 128,-1,47
 342 -10 342 -10 245 -10 c 0,48,0
 193 -10 193 -10 145 5 c 128,-1,1
EndSplineSet
EndChar

StartChar: scedilla
Encoding: 351 351 362
Width: 492
GlyphClass: 2
Flags: W
AnchorPoint: "Anchor-10" 0 0 basechar 0
AnchorPoint: "Anchor-9" 0 0 basechar 0
AnchorPoint: "Anchor-8" 0 0 basechar 0
AnchorPoint: "Anchor-7" 243 -214 basechar 0
LayerCount: 2
Fore
SplineSet
407.5 42 m 128,-1,1
 360 -1 360 -1 277 -9 c 1,2,-1
 238 -54 l 1,3,-1
 246 -54 l 2,4,5
 289 -54 289 -54 316 -76 c 128,-1,6
 343 -98 343 -98 343 -136 c 0,7,8
 343 -181 343 -181 308.5 -206.5 c 128,-1,9
 274 -232 274 -232 215 -232 c 0,10,11
 167 -232 167 -232 143 -220 c 128,-1,12
 119 -208 119 -208 119 -186 c 0,13,14
 119 -178 119 -178 122 -170 c 1,15,16
 163 -181 163 -181 206 -181 c 0,17,18
 236 -181 236 -181 251.5 -170 c 128,-1,19
 267 -159 267 -159 267 -138 c 0,20,21
 267 -125 267 -125 255.5 -114.5 c 128,-1,22
 244 -104 244 -104 222 -104 c 0,23,24
 205 -104 205 -104 186 -110 c 1,25,-1
 162 -75 l 1,26,-1
 210 -8 l 1,27,28
 140 -1 140 -1 89 29.5 c 128,-1,29
 38 60 38 60 38 98 c 0,30,31
 38 116 38 116 50.5 129.5 c 128,-1,32
 63 143 63 143 83 146 c 1,33,34
 114 101 114 101 153 80 c 128,-1,35
 192 59 192 59 249 59 c 256,36,37
 306 59 306 59 335 84.5 c 128,-1,38
 364 110 364 110 364 152 c 0,39,40
 364 179 364 179 346.5 196.5 c 128,-1,41
 329 214 329 214 302.5 224.5 c 128,-1,42
 276 235 276 235 231 247 c 0,43,44
 172 263 172 263 136.5 278.5 c 128,-1,45
 101 294 101 294 75.5 324.5 c 128,-1,46
 50 355 50 355 50 405 c 256,47,48
 50 455 50 455 78 490 c 128,-1,49
 106 525 106 525 150 542.5 c 128,-1,50
 194 560 194 560 242 560 c 0,51,52
 309 560 309 560 361.5 533.5 c 128,-1,53
 414 507 414 507 443 460 c 1,54,55
 431 443 431 443 417 433 c 128,-1,56
 403 423 403 423 391 423 c 0,57,58
 376 423 376 423 364 437 c 0,59,60
 316 493 316 493 241 493 c 0,61,62
 195 493 195 493 168 472 c 128,-1,63
 141 451 141 451 141 408 c 0,64,65
 141 381 141 381 158 364.5 c 128,-1,66
 175 348 175 348 201 338.5 c 128,-1,67
 227 329 227 329 271 318 c 0,68,69
 331 302 331 302 367 287 c 128,-1,70
 403 272 403 272 429 240 c 128,-1,71
 455 208 455 208 455 155 c 0,72,0
 455 85 455 85 407.5 42 c 128,-1,1
EndSplineSet
Substitution2: "'locl' Localized Forms in Latin lookup 7 subtable" uni0219
Substitution2: "'locl' Localized Forms in Latin lookup 6 subtable" uni0219
Substitution2: "'aalt' Access All Alternates lookup 0 subtable" uni0219
EndChar

StartChar: germandbls
Encoding: 223 223 367
Width: 624
Flags: W
LayerCount: 2
Fore
SplineSet
529.5 305 m 128,-1,1
 563 261 563 261 563 199 c 0,2,3
 563 96 563 96 504.5 41 c 128,-1,4
 446 -14 446 -14 352 -14 c 0,5,6
 290 -14 290 -14 247 4.5 c 128,-1,7
 204 23 204 23 204 61 c 0,8,9
 204 74 204 74 210.5 83.5 c 128,-1,10
 217 93 217 93 227 96 c 1,11,12
 254 75 254 75 283 65 c 128,-1,13
 312 55 312 55 349 55 c 0,14,15
 410 55 410 55 444 89.5 c 128,-1,16
 478 124 478 124 478 191 c 0,17,18
 478 253 478 253 444 288 c 128,-1,19
 410 323 410 323 343 323 c 0,20,21
 335 323 335 323 315 321 c 2,22,-1
 291 320 l 2,23,24
 278 320 278 320 268 342.5 c 128,-1,25
 258 365 258 365 258 381 c 0,26,27
 258 390 258 390 265 390 c 2,28,-1
 328 390 l 2,29,30
 380 390 380 390 416 428 c 128,-1,31
 452 466 452 466 452 530 c 0,32,33
 452 590 452 590 416.5 627 c 128,-1,34
 381 664 381 664 314 664 c 0,35,36
 244 664 244 664 204.5 625.5 c 128,-1,37
 165 587 165 587 165 515 c 2,38,-1
 165 0 l 1,39,-1
 77 0 l 1,40,-1
 77 515 l 2,41,42
 77 583 77 583 109 631.5 c 128,-1,43
 141 680 141 680 195 705.5 c 128,-1,44
 249 731 249 731 316 731 c 256,45,46
 383 731 383 731 433.5 704 c 128,-1,47
 484 677 484 677 511.5 631 c 128,-1,48
 539 585 539 585 539 530 c 0,49,50
 539 467 539 467 512 425 c 128,-1,51
 485 383 485 383 438 363 c 1,52,0
 496 349 496 349 529.5 305 c 128,-1,1
EndSplineSet
EndChar

StartChar: t
Encoding: 116 116 368
Width: 384
GlyphClass: 2
Flags: W
AnchorPoint: "Anchor-10" 335 630 basechar 0
AnchorPoint: "Anchor-9" 157 660 basechar 0
AnchorPoint: "Anchor-8" 0 0 basechar 0
AnchorPoint: "Anchor-7" 249 0 basechar 0
LayerCount: 2
Fore
SplineSet
365 63.5 m 128,-1,1
 370 54 370 54 370 42 c 0,2,3
 370 22 370 22 355 13 c 0,4,5
 340 2 340 2 313.5 -4 c 128,-1,6
 287 -10 287 -10 256 -10 c 0,7,8
 189 -10 189 -10 149 26.5 c 128,-1,9
 109 63 109 63 109 124 c 2,10,-1
 109 483 l 1,11,-1
 12 483 l 1,12,-1
 12 550 l 1,13,-1
 109 550 l 1,14,-1
 109 700 l 1,15,-1
 204 700 l 1,16,-1
 204 550 l 1,17,-1
 335 550 l 1,18,-1
 335 483 l 1,19,-1
 204 483 l 1,20,-1
 204 137 l 2,21,22
 204 97 204 97 220 78.5 c 128,-1,23
 236 60 236 60 269 60 c 0,24,25
 309 60 309 60 352 77 c 1,26,0
 360 73 360 73 365 63.5 c 128,-1,1
EndSplineSet
EndChar

StartChar: tbar
Encoding: 359 359 369
Width: 397
GlyphClass: 2
Flags: W
AnchorPoint: "Anchor-10" 335 630 basechar 0
AnchorPoint: "Anchor-9" 157 660 basechar 0
AnchorPoint: "Anchor-8" 0 0 basechar 0
AnchorPoint: "Anchor-7" 249 0 basechar 0
LayerCount: 2
Fore
SplineSet
365 63.5 m 128,-1,1
 370 54 370 54 370 42 c 0,2,3
 370 22 370 22 355 13 c 0,4,5
 340 2 340 2 313.5 -4 c 128,-1,6
 287 -10 287 -10 256 -10 c 0,7,8
 189 -10 189 -10 149 26.5 c 128,-1,9
 109 63 109 63 109 124 c 2,10,-1
 109 279 l 1,11,-1
 12 279 l 1,12,-1
 12 347 l 1,13,-1
 109 347 l 1,14,-1
 109 483 l 1,15,-1
 12 483 l 1,16,-1
 12 550 l 1,17,-1
 109 550 l 1,18,-1
 109 700 l 1,19,-1
 204 700 l 1,20,-1
 204 550 l 1,21,-1
 335 550 l 1,22,-1
 335 483 l 1,23,-1
 204 483 l 1,24,-1
 204 347 l 1,25,-1
 331 347 l 1,26,-1
 331 279 l 1,27,-1
 204 279 l 1,28,-1
 204 137 l 2,29,30
 204 97 204 97 220 78.5 c 128,-1,31
 236 60 236 60 269 60 c 0,32,33
 309 60 309 60 352 77 c 1,34,0
 360 73 360 73 365 63.5 c 128,-1,1
EndSplineSet
EndChar

StartChar: uni0163
Encoding: 355 355 371
Width: 384
GlyphClass: 2
Flags: W
AnchorPoint: "Anchor-10" 335 630 basechar 0
AnchorPoint: "Anchor-9" 0 0 basechar 0
AnchorPoint: "Anchor-8" 0 0 basechar 0
AnchorPoint: "Anchor-7" 249 -214 basechar 0
LayerCount: 2
Fore
SplineSet
365 63.5 m 128,-1,1
 370 54 370 54 370 42 c 0,2,3
 370 22 370 22 355 13 c 0,4,5
 330 -4 330 -4 283 -9 c 1,6,-1
 244 -54 l 1,7,-1
 252 -54 l 2,8,9
 295 -54 295 -54 322 -76 c 128,-1,10
 349 -98 349 -98 349 -136 c 0,11,12
 349 -181 349 -181 314.5 -206.5 c 128,-1,13
 280 -232 280 -232 221 -232 c 0,14,15
 173 -232 173 -232 149 -220 c 128,-1,16
 125 -208 125 -208 125 -186 c 0,17,18
 125 -178 125 -178 128 -170 c 1,19,20
 169 -181 169 -181 212 -181 c 0,21,22
 242 -181 242 -181 257.5 -170 c 128,-1,23
 273 -159 273 -159 273 -138 c 0,24,25
 273 -125 273 -125 261.5 -114.5 c 128,-1,26
 250 -104 250 -104 228 -104 c 0,27,28
 212 -104 212 -104 192 -110 c 1,29,-1
 168 -75 l 1,30,-1
 217 -6 l 1,31,32
 167 4 167 4 138 38.5 c 128,-1,33
 109 73 109 73 109 124 c 2,34,-1
 109 483 l 1,35,-1
 12 483 l 1,36,-1
 12 550 l 1,37,-1
 109 550 l 1,38,-1
 109 700 l 1,39,-1
 204 700 l 1,40,-1
 204 550 l 1,41,-1
 335 550 l 1,42,-1
 335 483 l 1,43,-1
 204 483 l 1,44,-1
 204 137 l 2,45,46
 204 97 204 97 220 78.5 c 128,-1,47
 236 60 236 60 269 60 c 0,48,49
 309 60 309 60 352 77 c 1,50,0
 360 73 360 73 365 63.5 c 128,-1,1
EndSplineSet
Substitution2: "'locl' Localized Forms in Latin lookup 7 subtable" uni021B
Substitution2: "'locl' Localized Forms in Latin lookup 6 subtable" uni021B
Substitution2: "'aalt' Access All Alternates lookup 0 subtable" uni021B
EndChar

StartChar: u
Encoding: 117 117 376
Width: 617
GlyphClass: 2
Flags: W
AnchorPoint: "Anchor-10" 517 523 basechar 0
AnchorPoint: "Anchor-9" 308 550 basechar 0
AnchorPoint: "Anchor-8" 545 10 basechar 0
AnchorPoint: "Anchor-7" 304 0 basechar 0
LayerCount: 2
Fore
SplineSet
545 10 m 1,1,2
 517 -5 517 -5 483 -5 c 0,3,4
 459 -5 459 -5 448.5 11 c 128,-1,5
 438 27 438 27 436 70 c 1,6,7
 407 33 407 33 359.5 11.5 c 128,-1,8
 312 -10 312 -10 256 -10 c 0,9,10
 170 -10 170 -10 126.5 36.5 c 128,-1,11
 83 83 83 83 83 175 c 2,12,-1
 83 550 l 1,13,-1
 178 550 l 1,14,-1
 178 182 l 2,15,16
 178 116 178 116 201.5 86.5 c 128,-1,17
 225 57 225 57 278 57 c 0,18,19
 325 57 325 57 366 81.5 c 128,-1,20
 407 106 407 106 435 151 c 1,21,-1
 435 550 l 1,22,-1
 530 550 l 1,23,-1
 530 120 l 2,24,0
 530 55 530 55 545 10 c 1,1,2
EndSplineSet
EndChar

StartChar: uhorn
Encoding: 432 432 389
Width: 616
GlyphClass: 2
Flags: W
AnchorPoint: "Anchor-10" 517 523 basechar 0
AnchorPoint: "Anchor-9" 308 550 basechar 0
AnchorPoint: "Anchor-8" 545 10 basechar 0
AnchorPoint: "Anchor-7" 304 0 basechar 0
LayerCount: 2
Fore
SplineSet
633.5 534.5 m 128,-1,1
 598 500 598 500 530 494 c 1,2,-1
 530 120 l 2,3,4
 530 55 530 55 545 10 c 1,5,6
 517 -5 517 -5 483 -5 c 0,7,8
 459 -5 459 -5 448.5 11 c 128,-1,9
 438 27 438 27 436 70 c 1,10,11
 407 33 407 33 359.5 11.5 c 128,-1,12
 312 -10 312 -10 256 -10 c 0,13,14
 170 -10 170 -10 126.5 36.5 c 128,-1,15
 83 83 83 83 83 175 c 2,16,-1
 83 550 l 1,17,-1
 178 550 l 1,18,-1
 178 182 l 2,19,20
 178 116 178 116 201.5 86.5 c 128,-1,21
 225 57 225 57 278 57 c 0,22,23
 325 57 325 57 366 81.5 c 128,-1,24
 407 106 407 106 435 151 c 1,25,-1
 435 550 l 1,26,-1
 517 550 l 2,27,28
 548 550 548 550 565 568 c 128,-1,29
 582 586 582 586 582 617 c 0,30,31
 582 647 582 647 553 669 c 1,32,33
 555 684 555 684 568.5 694.5 c 128,-1,34
 582 705 582 705 601 705 c 0,35,36
 631 705 631 705 650 684.5 c 128,-1,37
 669 664 669 664 669 627 c 0,38,0
 669 569 669 569 633.5 534.5 c 128,-1,1
EndSplineSet
EndChar

StartChar: uogonek
Encoding: 371 371 397
Width: 616
GlyphClass: 2
Flags: W
AnchorPoint: "Anchor-10" 517 523 basechar 0
AnchorPoint: "Anchor-9" 308 550 basechar 0
AnchorPoint: "Anchor-8" 545 10 basechar 0
AnchorPoint: "Anchor-7" 304 0 basechar 0
LayerCount: 2
Fore
SplineSet
584 -161 m 0,1,2
 584 -178 584 -178 565 -189 c 128,-1,3
 546 -200 546 -200 511 -200 c 0,4,5
 462 -200 462 -200 433.5 -177 c 128,-1,6
 405 -154 405 -154 405 -113 c 0,7,8
 405 -47 405 -47 472 -4 c 1,9,10
 454 -1 454 -1 445.5 15.5 c 128,-1,11
 437 32 437 32 436 70 c 1,12,13
 407 33 407 33 359.5 11.5 c 128,-1,14
 312 -10 312 -10 256 -10 c 0,15,16
 170 -10 170 -10 126.5 36.5 c 128,-1,17
 83 83 83 83 83 175 c 2,18,-1
 83 550 l 1,19,-1
 178 550 l 1,20,-1
 178 182 l 2,21,22
 178 116 178 116 201.5 86.5 c 128,-1,23
 225 57 225 57 278 57 c 0,24,25
 325 57 325 57 366 81.5 c 128,-1,26
 407 106 407 106 435 151 c 1,27,-1
 435 550 l 1,28,-1
 530 550 l 1,29,-1
 530 120 l 2,30,31
 530 55 530 55 545 10 c 1,32,33
 482 -40 482 -40 482 -98 c 0,34,35
 482 -121 482 -121 494 -133.5 c 128,-1,36
 506 -146 506 -146 527 -146 c 0,37,38
 551 -146 551 -146 573 -136 c 1,39,0
 584 -146 584 -146 584 -161 c 0,1,2
EndSplineSet
EndChar

StartChar: v
Encoding: 118 118 400
Width: 517
Flags: W
LayerCount: 2
Fore
SplineSet
499 550 m 1,0,1
 487 394 487 394 440 259.5 c 128,-1,2
 393 125 393 125 305 0 c 1,3,-1
 215 0 l 1,4,5
 125 125 125 125 77.5 259.5 c 128,-1,6
 30 394 30 394 18 550 c 1,7,-1
 115 550 l 1,8,9
 125 415 125 415 159 305.5 c 128,-1,10
 193 196 193 196 260 92 c 1,11,12
 326 196 326 196 359.5 305 c 128,-1,13
 393 414 393 414 402 550 c 1,14,-1
 499 550 l 1,0,1
EndSplineSet
EndChar

StartChar: w
Encoding: 119 119 401
Width: 773
GlyphClass: 2
Flags: W
AnchorPoint: "Anchor-10" 0 0 basechar 0
AnchorPoint: "Anchor-9" 390 550 basechar 0
AnchorPoint: "Anchor-8" 0 0 basechar 0
AnchorPoint: "Anchor-7" 387 0 basechar 0
LayerCount: 2
Fore
SplineSet
741 550 m 1,0,1
 708 236 708 236 591 0 c 1,2,-1
 515 0 l 1,3,4
 467 96 467 96 437 183 c 128,-1,5
 407 270 407 270 388 366 c 1,6,7
 370 270 370 270 339 183 c 128,-1,8
 308 96 308 96 259 0 c 1,9,-1
 182 0 l 1,10,11
 122 116 122 116 85.5 249 c 128,-1,12
 49 382 49 382 29 550 c 1,13,-1
 125 550 l 1,14,15
 140 411 140 411 162.5 307.5 c 128,-1,16
 185 204 185 204 226 115 c 1,17,18
 316 303 316 303 346 550 c 1,19,-1
 432 550 l 1,20,21
 464 297 464 297 552 112 c 1,22,23
 593 208 593 208 614.5 316 c 128,-1,24
 636 424 636 424 643 550 c 1,25,-1
 741 550 l 1,0,1
EndSplineSet
EndChar

StartChar: x
Encoding: 120 120 406
Width: 496
Flags: W
LayerCount: 2
Fore
SplineSet
385 0 m 1,0,1
 380 61 380 61 345 114.5 c 128,-1,2
 310 168 310 168 248 231 c 1,3,4
 186 168 186 168 151 114.5 c 128,-1,5
 116 61 116 61 111 0 c 1,6,-1
 16 0 l 1,7,8
 22 79 22 79 67 144 c 128,-1,9
 112 209 112 209 192 286 c 1,10,11
 115 361 115 361 73 420.5 c 128,-1,12
 31 480 31 480 25 550 c 1,13,-1
 120 550 l 1,14,15
 124 496 124 496 157 447 c 128,-1,16
 190 398 190 398 248 341 c 1,17,18
 306 398 306 398 339 447 c 128,-1,19
 372 496 372 496 376 550 c 1,20,-1
 471 550 l 1,21,22
 465 480 465 480 423 420.5 c 128,-1,23
 381 361 381 361 304 286 c 1,24,25
 384 209 384 209 429 144 c 128,-1,26
 474 79 474 79 480 0 c 1,27,-1
 385 0 l 1,0,1
EndSplineSet
EndChar

StartChar: y
Encoding: 121 121 407
Width: 502
GlyphClass: 2
Flags: W
AnchorPoint: "Anchor-10" 0 0 basechar 0
AnchorPoint: "Anchor-9" 251 550 basechar 0
AnchorPoint: "Anchor-8" 0 0 basechar 0
AnchorPoint: "Anchor-7" 373 0 basechar 0
LayerCount: 2
Fore
SplineSet
496 550 m 1,0,-1
 283 -42 l 2,1,2
 252 -127 252 -127 208.5 -164 c 128,-1,3
 165 -201 165 -201 95 -201 c 0,4,5
 53 -201 53 -201 28 -186.5 c 128,-1,6
 3 -172 3 -172 3 -149 c 256,7,8
 3 -126 3 -126 23 -107 c 1,9,10
 34 -115 34 -115 53 -119.5 c 128,-1,11
 72 -124 72 -124 91 -124 c 0,12,13
 131 -124 131 -124 157.5 -92.5 c 128,-1,14
 184 -61 184 -61 205 9 c 1,15,-1
 9 550 l 1,16,-1
 108 550 l 1,17,-1
 253 131 l 1,18,-1
 397 550 l 1,19,-1
 496 550 l 1,0,-1
EndSplineSet
EndChar

StartChar: z
Encoding: 122 122 416
Width: 507
GlyphClass: 2
Flags: W
AnchorPoint: "Anchor-10" 0 0 basechar 0
AnchorPoint: "Anchor-9" 253 550 basechar 0
AnchorPoint: "Anchor-8" 0 0 basechar 0
AnchorPoint: "Anchor-7" 253 0 basechar 0
LayerCount: 2
Fore
SplineSet
477 71 m 1,0,-1
 477 0 l 1,1,-1
 30 0 l 1,2,-1
 30 61 l 1,3,-1
 353 479 l 1,4,-1
 56 479 l 1,5,-1
 56 550 l 1,6,-1
 469 550 l 1,7,-1
 469 490 l 1,8,-1
 143 71 l 1,9,-1
 477 71 l 1,0,-1
EndSplineSet
EndChar

StartChar: ordfeminine
Encoding: 170 170 423
Width: 380
Flags: W
LayerCount: 2
Fore
SplineSet
341.5 402.5 m 128,-1,1
 343 387 343 387 349 373 c 1,2,3
 329 360 329 360 304 360 c 0,4,5
 269 360 269 360 265 410 c 1,6,7
 225 359 225 359 148 359 c 0,8,9
 100 359 100 359 69.5 384.5 c 128,-1,10
 39 410 39 410 39 453 c 0,11,12
 39 523 39 523 97 548 c 128,-1,13
 155 573 155 573 265 575 c 1,14,-1
 265 584 l 2,15,16
 265 657 265 657 194 657 c 0,17,18
 171 657 171 657 154.5 650 c 128,-1,19
 138 643 138 643 127.5 636 c 128,-1,20
 117 629 117 629 114 627 c 0,21,22
 102 618 102 618 96 615 c 128,-1,23
 90 612 90 612 82 612 c 0,24,25
 70 612 70 612 60.5 624 c 128,-1,26
 51 636 51 636 47 652 c 1,27,28
 104 712 104 712 203 712 c 0,29,30
 261 712 261 712 300.5 680 c 128,-1,31
 340 648 340 648 340 586 c 2,32,-1
 340 446 l 2,33,0
 340 418 340 418 341.5 402.5 c 128,-1,1
223 428 m 128,-1,35
 250 443 250 443 265 467 c 1,36,-1
 265 526 l 1,37,38
 193 525 193 525 153.5 511.5 c 128,-1,39
 114 498 114 498 114 458 c 0,40,41
 114 413 114 413 167 413 c 0,42,34
 196 413 196 413 223 428 c 128,-1,35
EndSplineSet
EndChar

StartChar: ordmasculine
Encoding: 186 186 424
Width: 380
Flags: W
LayerCount: 2
Fore
SplineSet
70.5 405.5 m 128,-1,1
 29 454 29 454 29 533 c 0,2,3
 29 613 29 613 70.5 661.5 c 128,-1,4
 112 710 112 710 191 710 c 0,5,6
 269 710 269 710 310 661.5 c 128,-1,7
 351 613 351 613 351 533 c 0,8,9
 351 454 351 454 310 405.5 c 128,-1,10
 269 357 269 357 191 357 c 0,11,0
 112 357 112 357 70.5 405.5 c 128,-1,1
254 441 m 128,-1,13
 275 470 275 470 275 533 c 256,14,15
 275 596 275 596 254 625.5 c 128,-1,16
 233 655 233 655 191 655 c 0,17,18
 105 655 105 655 105 533 c 0,19,20
 105 470 105 470 127 441 c 128,-1,21
 149 412 149 412 191 412 c 256,22,12
 233 412 233 412 254 441 c 128,-1,13
EndSplineSet
EndChar

StartChar: uni207F
Encoding: 8319 8319 425
Width: 380
Flags: W
LayerCount: 2
Fore
SplineSet
344.5 395 m 128,-1,1
 347 382 347 382 352 371 c 1,2,3
 322 360 322 360 295 360 c 0,4,5
 280 360 280 360 273.5 373.5 c 128,-1,6
 267 387 267 387 267 421 c 2,7,-1
 267 599 l 2,8,9
 267 628 267 628 254 641.5 c 128,-1,10
 241 655 241 655 212 655 c 0,11,12
 161 655 161 655 111 605 c 1,13,-1
 111 363 l 1,14,-1
 36 363 l 1,15,-1
 36 593 l 2,16,17
 36 676 36 676 28 695 c 1,18,19
 38 700 38 700 55 704.5 c 128,-1,20
 72 709 72 709 84 709 c 0,21,22
 111 709 111 709 111 673 c 2,23,-1
 111 665 l 1,24,25
 167 716 167 716 233 716 c 0,26,27
 342 716 342 716 342 605 c 2,28,-1
 342 439 l 2,29,0
 342 408 342 408 344.5 395 c 128,-1,1
EndSplineSet
EndChar

StartChar: uni0394
Encoding: 916 916 426
Width: 566
Flags: W
LayerCount: 2
Fore
SplineSet
566 43 m 1,0,-1
 566 0 l 1,1,-1
 0 0 l 1,2,-1
 0 43 l 1,3,-1
 243 700 l 1,4,-1
 323 700 l 1,5,-1
 566 43 l 1,0,-1
460 78 m 1,6,-1
 283 572 l 1,7,-1
 106 78 l 1,8,-1
 460 78 l 1,6,-1
EndSplineSet
EndChar

StartChar: uni03A9
Encoding: 937 937 427
Width: 689
Flags: W
LayerCount: 2
Fore
SplineSet
57 71 m 1,0,-1
 220 71 l 1,1,-1
 220 144 l 1,2,3
 140 168 140 168 90 241.5 c 128,-1,4
 40 315 40 315 40 410 c 0,5,6
 40 500 40 500 78 568 c 128,-1,7
 116 636 116 636 185 673 c 128,-1,8
 254 710 254 710 345 710 c 256,9,10
 436 710 436 710 504.5 673 c 128,-1,11
 573 636 573 636 611 568 c 128,-1,12
 649 500 649 500 649 410 c 0,13,14
 649 314 649 314 599 240 c 128,-1,15
 549 166 549 166 469 144 c 1,16,-1
 469 71 l 1,17,-1
 633 71 l 1,18,-1
 633 0 l 1,19,-1
 393 0 l 1,20,-1
 393 190 l 1,21,22
 469 206 469 206 514 265.5 c 128,-1,23
 559 325 559 325 559 410 c 0,24,25
 559 516 559 516 501.5 577 c 128,-1,26
 444 638 444 638 345 638 c 256,27,28
 246 638 246 638 189 577 c 128,-1,29
 132 516 132 516 132 410 c 0,30,31
 132 325 132 325 177 265.5 c 128,-1,32
 222 206 222 206 298 190 c 1,33,-1
 298 0 l 1,34,-1
 57 0 l 1,35,-1
 57 71 l 1,0,-1
EndSplineSet
EndChar

StartChar: uni03BC
Encoding: 956 956 428
Width: 617
GlyphClass: 2
Flags: W
AnchorPoint: "Anchor-6" 524 523 basechar 0
AnchorPoint: "Anchor-5" 308 550 basechar 0
AnchorPoint: "Anchor-4" 545 10 basechar 0
AnchorPoint: "Anchor-3" 304 0 basechar 0
LayerCount: 2
Fore
SplineSet
534 54 m 128,-1,1
 538 30 538 30 545 10 c 1,2,3
 513 -5 513 -5 483 -5 c 0,4,5
 459 -5 459 -5 448.5 12 c 128,-1,6
 438 29 438 29 436 68 c 1,7,8
 388 -12 388 -12 291 -12 c 0,9,10
 216 -12 216 -12 177 27 c 1,11,-1
 177 -220 l 1,12,-1
 83 -220 l 1,13,-1
 83 550 l 1,14,-1
 177 550 l 1,15,-1
 177 180 l 2,16,17
 177 117 177 117 208 86 c 128,-1,18
 239 55 239 55 294 55 c 0,19,20
 338 55 338 55 375.5 81.5 c 128,-1,21
 413 108 413 108 435 157 c 1,22,-1
 435 550 l 1,23,-1
 530 550 l 1,24,-1
 530 120 l 2,25,0
 530 78 530 78 534 54 c 128,-1,1
EndSplineSet
EndChar

StartChar: pi
Encoding: 960 960 429
Width: 640
Flags: W
LayerCount: 2
Fore
SplineSet
431 22 m 128,-1,1
 403 54 403 54 403 106 c 2,2,-1
 403 477 l 1,3,-1
 218 477 l 1,4,-1
 218 0 l 1,5,-1
 126 0 l 1,6,-1
 126 477 l 1,7,-1
 22 477 l 1,8,-1
 22 550 l 1,9,-1
 607 550 l 1,10,-1
 607 477 l 1,11,-1
 495 477 l 1,12,-1
 495 115 l 2,13,14
 495 81 495 81 509.5 67 c 128,-1,15
 524 53 524 53 551 53 c 0,16,17
 569 53 569 53 588.5 58 c 128,-1,18
 608 63 608 63 620 71 c 1,19,-1
 620 13 l 1,20,21
 597 1 597 1 573 -4.5 c 128,-1,22
 549 -10 549 -10 517 -10 c 0,23,0
 459 -10 459 -10 431 22 c 128,-1,1
EndSplineSet
EndChar

StartChar: uni0E01
Encoding: 3585 3585 430
Width: 608
GlyphClass: 2
Flags: W
AnchorPoint: "Anchor-12" 538 550 basechar 0
AnchorPoint: "Anchor-11" 538 0 basechar 0
LayerCount: 2
Fore
SplineSet
471.5 534 m 128,-1,1
 538 482 538 482 538 383 c 2,2,-1
 538 0 l 1,3,-1
 447 0 l 1,4,-1
 447 383 l 2,5,6
 447 451 447 451 409 486 c 128,-1,7
 371 521 371 521 299 521 c 0,8,9
 255 521 255 521 217.5 507.5 c 128,-1,10
 180 494 180 494 158 475 c 128,-1,11
 136 456 136 456 136 441 c 0,12,13
 136 422 136 422 158.5 406 c 128,-1,14
 181 390 181 390 198 390 c 0,15,16
 210 390 210 390 230 398 c 0,17,18
 246 405 246 405 256 405 c 0,19,20
 265 405 265 405 278 386 c 128,-1,21
 291 367 291 367 291 355 c 0,22,23
 291 346 291 346 284 346 c 0,24,25
 223 346 223 346 200 316 c 128,-1,26
 177 286 177 286 177 220 c 2,27,-1
 177 0 l 1,28,-1
 85 0 l 1,29,-1
 85 220 l 2,30,31
 85 305 85 305 133 348 c 1,32,33
 101 362 101 362 75.5 386 c 128,-1,34
 50 410 50 410 50 438 c 0,35,36
 50 470 50 470 81.5 505 c 128,-1,37
 113 540 113 540 170 563 c 128,-1,38
 227 586 227 586 299 586 c 0,39,0
 405 586 405 586 471.5 534 c 128,-1,1
EndSplineSet
EndChar

StartChar: uni0E02
Encoding: 3586 3586 431
Width: 582
GlyphClass: 2
Flags: W
AnchorPoint: "Anchor-12" 508 550 basechar 0
AnchorPoint: "Anchor-11" 508 0 basechar 0
LayerCount: 2
Fore
SplineSet
178 31 m 128,-1,1
 128 71 128 71 128 151 c 2,2,-1
 128 251 l 2,3,4
 128 270 128 270 145 281 c 0,5,6
 192 312 192 312 217.5 331.5 c 128,-1,7
 243 351 243 351 259 377.5 c 128,-1,8
 275 404 275 404 275 439 c 0,9,10
 275 484 275 484 250 505.5 c 128,-1,11
 225 527 225 527 185 527 c 0,12,13
 149 527 149 527 124 505.5 c 128,-1,14
 99 484 99 484 99 452 c 0,15,16
 99 427 99 427 111 414 c 128,-1,17
 123 401 123 401 143 401 c 0,18,19
 162 401 162 401 172.5 412 c 128,-1,20
 183 423 183 423 183 441 c 0,21,22
 183 457 183 457 174.5 467 c 128,-1,23
 166 477 166 477 151 478 c 0,24,25
 145 479 145 479 131 479 c 1,26,27
 134 487 134 487 144 494 c 128,-1,28
 154 501 154 501 169 501 c 0,29,30
 195 501 195 501 214 484 c 128,-1,31
 233 467 233 467 233 434 c 0,32,33
 233 397 233 397 207.5 373 c 128,-1,34
 182 349 182 349 144 349 c 0,35,36
 103 349 103 349 74 377 c 128,-1,37
 45 405 45 405 45 453 c 0,38,39
 45 509 45 509 86 544.5 c 128,-1,40
 127 580 127 580 191 580 c 0,41,42
 258 580 258 580 301 544.5 c 128,-1,43
 344 509 344 509 344 443 c 0,44,45
 344 398 344 398 328 363.5 c 128,-1,46
 312 329 312 329 286.5 304 c 128,-1,47
 261 279 261 279 220 247 c 1,48,-1
 220 159 l 2,49,50
 220 105 220 105 242.5 80.5 c 128,-1,51
 265 56 265 56 317 56 c 0,52,53
 375 56 375 56 396 80 c 128,-1,54
 417 104 417 104 417 166 c 2,55,-1
 417 576 l 1,56,-1
 508 576 l 1,57,-1
 508 163 l 2,58,59
 508 70 508 70 458 30.5 c 128,-1,60
 408 -9 408 -9 316 -9 c 0,61,0
 228 -9 228 -9 178 31 c 128,-1,1
EndSplineSet
EndChar

StartChar: uni0E03
Encoding: 3587 3587 432
Width: 613
GlyphClass: 2
Flags: W
AnchorPoint: "Anchor-12" 539 550 basechar 0
AnchorPoint: "Anchor-11" 539 0 basechar 0
LayerCount: 2
Fore
SplineSet
190 33.5 m 128,-1,1
 137 76 137 76 137 166 c 2,2,-1
 137 222 l 2,3,4
 137 264 137 264 157 294 c 128,-1,5
 177 324 177 324 214 358 c 0,6,7
 248 390 248 390 265 415 c 128,-1,8
 282 440 282 440 282 473 c 0,9,10
 282 518 282 518 245 518 c 0,11,12
 216 518 216 518 193 480 c 1,13,14
 181 501 181 501 168.5 510.5 c 128,-1,15
 156 520 156 520 137 520 c 256,16,17
 118 520 118 520 106 508.5 c 128,-1,18
 94 497 94 497 94 476 c 0,19,20
 94 454 94 454 106.5 442 c 128,-1,21
 119 430 119 430 137 430 c 0,22,23
 170 430 170 430 185 462 c 1,24,25
 201 451 201 451 201 437 c 0,26,27
 201 413 201 413 180.5 396 c 128,-1,28
 160 379 160 379 130 379 c 0,29,30
 86 379 86 379 58.5 405.5 c 128,-1,31
 31 432 31 432 31 478 c 0,32,33
 31 525 31 525 58.5 552.5 c 128,-1,34
 86 580 86 580 123 580 c 0,35,36
 149 580 149 580 165.5 570.5 c 128,-1,37
 182 561 182 561 194 541 c 1,38,39
 218 580 218 580 271 580 c 0,40,41
 313 580 313 580 339.5 553.5 c 128,-1,42
 366 527 366 527 366 477 c 0,43,44
 366 433 366 433 347.5 401 c 128,-1,45
 329 369 329 369 292 327 c 0,46,47
 262 294 262 294 247 270.5 c 128,-1,48
 232 247 232 247 232 218 c 2,49,-1
 232 166 l 2,50,51
 232 109 232 109 258 83.5 c 128,-1,52
 284 58 284 58 339 58 c 0,53,54
 401 58 401 58 424.5 82.5 c 128,-1,55
 448 107 448 107 448 166 c 2,56,-1
 448 576 l 1,57,-1
 539 576 l 1,58,-1
 539 162 l 2,59,60
 539 79 539 79 489 35 c 128,-1,61
 439 -9 439 -9 338 -9 c 0,62,0
 243 -9 243 -9 190 33.5 c 128,-1,1
EndSplineSet
EndChar

StartChar: uni0E04
Encoding: 3588 3588 433
Width: 627
GlyphClass: 2
Flags: W
AnchorPoint: "Anchor-12" 557 550 basechar 0
AnchorPoint: "Anchor-11" 557 0 basechar 0
LayerCount: 2
Fore
SplineSet
498.5 524.5 m 128,-1,1
 557 463 557 463 557 357 c 2,2,-1
 557 0 l 1,3,-1
 466 0 l 1,4,-1
 466 352 l 2,5,6
 466 434 466 434 431.5 477.5 c 128,-1,7
 397 521 397 521 317 521 c 0,8,9
 239 521 239 521 196.5 479.5 c 128,-1,10
 154 438 154 438 154 355 c 0,11,12
 154 309 154 309 166 266 c 1,13,14
 189 317 189 317 227 347 c 128,-1,15
 265 377 265 377 318 377 c 0,16,17
 363 377 363 377 390.5 351 c 128,-1,18
 418 325 418 325 418 281 c 0,19,20
 418 238 418 238 392.5 213.5 c 128,-1,21
 367 189 367 189 324 189 c 0,22,23
 297 189 297 189 277.5 203.5 c 128,-1,24
 258 218 258 218 258 239 c 0,25,26
 258 261 258 261 275 268 c 1,27,28
 291 236 291 236 323 236 c 0,29,30
 343 236 343 236 353 247.5 c 128,-1,31
 363 259 363 259 363 279 c 0,32,33
 363 298 363 298 350.5 309.5 c 128,-1,34
 338 321 338 321 316 321 c 0,35,36
 254 321 254 321 217 235.5 c 128,-1,37
 180 150 180 150 177 0 c 1,38,-1
 100 0 l 2,39,40
 85 0 85 0 85 20 c 0,41,42
 85 60 85 60 110 140 c 0,43,44
 118 166 118 166 118 172 c 0,45,46
 118 179 118 179 105 202 c 0,47,48
 86 236 86 236 74 270.5 c 128,-1,49
 62 305 62 305 62 355 c 0,50,51
 62 427 62 427 94.5 479 c 128,-1,52
 127 531 127 531 184.5 558.5 c 128,-1,53
 242 586 242 586 317 586 c 0,54,0
 440 586 440 586 498.5 524.5 c 128,-1,1
EndSplineSet
EndChar

StartChar: uni0E05
Encoding: 3589 3589 434
Width: 640
GlyphClass: 2
Flags: W
AnchorPoint: "Anchor-12" 570 550 basechar 0
AnchorPoint: "Anchor-11" 570 0 basechar 0
LayerCount: 2
Fore
SplineSet
532.5 511.5 m 128,-1,1
 570 461 570 461 570 370 c 2,2,-1
 570 0 l 1,3,-1
 478 0 l 1,4,-1
 478 370 l 2,5,6
 478 431 478 431 461.5 462.5 c 128,-1,7
 445 494 445 494 404 509 c 1,8,9
 381 490 381 490 324 453 c 1,10,11
 268 487 268 487 241 509 c 1,12,13
 198 490 198 490 176 452.5 c 128,-1,14
 154 415 154 415 154 355 c 0,15,16
 154 309 154 309 166 266 c 1,17,18
 189 317 189 317 228 347 c 128,-1,19
 267 377 267 377 320 377 c 0,20,21
 364 377 364 377 392 351 c 128,-1,22
 420 325 420 325 420 281 c 0,23,24
 420 238 420 238 394 213.5 c 128,-1,25
 368 189 368 189 325 189 c 0,26,27
 299 189 299 189 279.5 203.5 c 128,-1,28
 260 218 260 218 260 239 c 0,29,30
 260 261 260 261 276 268 c 1,31,32
 285 251 285 251 296.5 243.5 c 128,-1,33
 308 236 308 236 324 236 c 0,34,35
 344 236 344 236 354 247.5 c 128,-1,36
 364 259 364 259 364 279 c 0,37,38
 364 298 364 298 351.5 309.5 c 128,-1,39
 339 321 339 321 317 321 c 0,40,41
 255 321 255 321 217.5 235 c 128,-1,42
 180 149 180 149 177 0 c 1,43,-1
 100 0 l 2,44,45
 85 0 85 0 85 20 c 0,46,47
 85 60 85 60 110 140 c 0,48,49
 118 166 118 166 118 172 c 0,50,51
 118 179 118 179 105 202 c 0,52,53
 86 236 86 236 74 270.5 c 128,-1,54
 62 305 62 305 62 355 c 0,55,56
 62 443 62 443 107 501.5 c 128,-1,57
 152 560 152 560 240 586 c 1,58,59
 282 563 282 563 324 524 c 1,60,61
 365 561 365 561 405 586 c 1,62,0
 495 562 495 562 532.5 511.5 c 128,-1,1
EndSplineSet
EndChar

StartChar: uni0E06
Encoding: 3590 3590 435
Width: 669
GlyphClass: 2
Flags: W
AnchorPoint: "Anchor-12" 581 550 basechar 0
AnchorPoint: "Anchor-11" 581 0 basechar 0
LayerCount: 2
Fore
SplineSet
585 44 m 2,1,-1
 587 17 l 2,2,3
 587 0 587 0 573 0 c 2,4,-1
 492 0 l 1,5,6
 463 81 463 81 404.5 130.5 c 128,-1,7
 346 180 346 180 274 196 c 1,8,-1
 277 131 l 2,9,10
 278 65 278 65 254 28 c 128,-1,11
 230 -9 230 -9 167 -9 c 0,12,13
 118 -9 118 -9 88.5 24 c 128,-1,14
 59 57 59 57 59 118 c 256,15,16
 59 179 59 179 95 217.5 c 128,-1,17
 131 256 131 256 188 263 c 1,18,19
 195 289 195 289 207.5 309.5 c 128,-1,20
 220 330 220 330 244 360 c 0,21,22
 269 391 269 391 282 415.5 c 128,-1,23
 295 440 295 440 295 473 c 0,24,25
 295 495 295 495 285.5 506 c 128,-1,26
 276 517 276 517 259 517 c 0,27,28
 228 517 228 517 207 480 c 1,29,30
 186 520 186 520 150 520 c 0,31,32
 131 520 131 520 119 508 c 128,-1,33
 107 496 107 496 107 476 c 0,34,35
 107 455 107 455 119.5 443.5 c 128,-1,36
 132 432 132 432 150 432 c 0,37,38
 169 432 169 432 180.5 441.5 c 128,-1,39
 192 451 192 451 197 466 c 1,40,41
 206 464 206 464 211 457 c 128,-1,42
 216 450 216 450 216 441 c 0,43,44
 216 417 216 417 195.5 399.5 c 128,-1,45
 175 382 175 382 143 382 c 0,46,47
 99 382 99 382 71.5 408 c 128,-1,48
 44 434 44 434 44 478 c 0,49,50
 44 525 44 525 71 552.5 c 128,-1,51
 98 580 98 580 136 580 c 0,52,53
 188 580 188 580 207 541 c 1,54,55
 227 579 227 579 284 579 c 0,56,57
 325 579 325 579 352 552.5 c 128,-1,58
 379 526 379 526 379 477 c 0,59,60
 379 433 379 433 364 401 c 128,-1,61
 349 369 349 369 320 327 c 0,62,63
 290 284 290 284 281 256 c 1,64,65
 346 243 346 243 402 208 c 128,-1,66
 458 173 458 173 490 126 c 1,67,-1
 490 576 l 1,68,-1
 581 576 l 1,69,-1
 581 120 l 2,70,0
 581 84 581 84 585 44 c 2,1,-1
178 60 m 128,-1,72
 184 70 184 70 185 88.5 c 128,-1,73
 186 107 186 107 186 127 c 0,74,75
 186 140 186 140 184 174 c 2,76,-1
 183 201 l 1,77,78
 122 188 122 188 122 117 c 0,79,80
 122 85 122 85 131.5 67.5 c 128,-1,81
 141 50 141 50 158 50 c 0,82,71
 172 50 172 50 178 60 c 128,-1,72
EndSplineSet
EndChar

StartChar: uni0E07
Encoding: 3591 3591 436
Width: 533
GlyphClass: 2
Flags: W
AnchorPoint: "Anchor-12" 465 550 basechar 0
AnchorPoint: "Anchor-11" 425 0 basechar 0
LayerCount: 2
Fore
SplineSet
201 2 m 128,-1,1
 162 10 162 10 160 21 c 0,2,3
 137 137 137 137 105.5 218 c 128,-1,4
 74 299 74 299 27 365 c 1,5,6
 38 380 38 380 55.5 390 c 128,-1,7
 73 400 73 400 90 400 c 0,8,9
 108 400 108 400 118.5 392 c 128,-1,10
 129 384 129 384 138 366 c 0,11,12
 191 270 191 270 229 69 c 0,13,14
 230 63 230 63 245.5 59.5 c 128,-1,15
 261 56 261 56 286 56 c 256,16,17
 311 56 311 56 326.5 60 c 128,-1,18
 342 64 342 64 343 72 c 0,19,20
 359 174 359 174 367.5 273 c 128,-1,21
 376 372 376 372 376 441 c 0,22,23
 376 483 376 483 364.5 502.5 c 128,-1,24
 353 522 353 522 327 522 c 0,25,26
 308 522 308 522 297 512.5 c 128,-1,27
 286 503 286 503 286 486 c 0,28,29
 286 468 286 468 295.5 458 c 128,-1,30
 305 448 305 448 323 448 c 0,31,32
 339 448 339 448 353 454 c 1,33,34
 357 447 357 447 357 440 c 0,35,36
 357 426 357 426 344 415 c 128,-1,37
 331 404 331 404 307 404 c 0,38,39
 270 404 270 404 247.5 426.5 c 128,-1,40
 225 449 225 449 225 488 c 0,41,42
 225 530 225 530 255.5 556 c 128,-1,43
 286 582 286 582 337 582 c 0,44,45
 402 582 402 582 435 547 c 128,-1,46
 468 512 468 512 468 446 c 0,47,48
 468 296 468 296 416 22 c 0,49,50
 414 10 414 10 375 2 c 128,-1,51
 336 -6 336 -6 289 -6 c 0,52,0
 240 -6 240 -6 201 2 c 128,-1,1
EndSplineSet
EndChar

StartChar: uni0E08
Encoding: 3592 3592 437
Width: 598
GlyphClass: 2
Flags: W
AnchorPoint: "Anchor-12" 524 550 basechar 0
AnchorPoint: "Anchor-11" 478 1 basechar 0
LayerCount: 2
Fore
SplineSet
285.5 -0.5 m 128,-1,1
 254 8 254 8 253 19 c 0,2,3
 249 88 249 88 244.5 146 c 128,-1,4
 240 204 240 204 233 242 c 0,5,6
 228 269 228 269 215.5 281.5 c 128,-1,7
 203 294 203 294 183 294 c 0,8,9
 165 294 165 294 154 284 c 128,-1,10
 143 274 143 274 143 256 c 0,11,12
 143 239 143 239 154 228 c 128,-1,13
 165 217 165 217 184 217 c 0,14,15
 198 217 198 217 212 224 c 1,16,17
 215 218 215 218 215 211 c 0,18,19
 215 195 215 195 201.5 184.5 c 128,-1,20
 188 174 188 174 166 174 c 0,21,22
 130 174 130 174 108 197 c 128,-1,23
 86 220 86 220 86 258 c 0,24,25
 86 299 86 299 114.5 325.5 c 128,-1,26
 143 352 143 352 188 352 c 0,27,28
 235 352 235 352 265 326.5 c 128,-1,29
 295 301 295 301 304 257 c 0,30,31
 311 222 311 222 317 167 c 128,-1,32
 323 112 323 112 327 61 c 0,33,34
 327 56 327 56 336.5 53 c 128,-1,35
 346 50 346 50 361 50 c 0,36,37
 377 50 377 50 386 53.5 c 128,-1,38
 395 57 395 57 395 62 c 0,39,40
 400 111 400 111 416 210 c 0,41,42
 426 268 426 268 430.5 304 c 128,-1,43
 435 340 435 340 435 377 c 0,44,45
 435 444 435 444 400 479.5 c 128,-1,46
 365 515 365 515 296 515 c 0,47,48
 244 515 244 515 203 495.5 c 128,-1,49
 162 476 162 476 128 442 c 0,50,51
 115 430 115 430 100 430 c 0,52,53
 88 430 88 430 73 446.5 c 128,-1,54
 58 463 58 463 47 487 c 1,55,56
 85 526 85 526 150.5 556 c 128,-1,57
 216 586 216 586 297 586 c 0,58,59
 403 586 403 586 465.5 532 c 128,-1,60
 528 478 528 478 528 379 c 0,61,62
 528 340 528 340 521.5 301.5 c 128,-1,63
 515 263 515 263 502 204 c 0,64,65
 500 195 500 195 488.5 139 c 128,-1,66
 477 83 477 83 470 19 c 0,67,68
 469 7 469 7 435 -1 c 128,-1,69
 401 -9 401 -9 361 -9 c 0,70,0
 317 -9 317 -9 285.5 -0.5 c 128,-1,1
EndSplineSet
EndChar

StartChar: uni0E09
Encoding: 3593 3593 438
Width: 636
GlyphClass: 2
Flags: W
AnchorPoint: "Anchor-12" 568 550 basechar 0
AnchorPoint: "Anchor-11" 568 0 basechar 0
LayerCount: 2
Fore
SplineSet
613 99 m 0,1,2
 613 53 613 53 581 24.5 c 128,-1,3
 549 -4 549 -4 498 -4 c 0,4,5
 450 -4 450 -4 419.5 25 c 128,-1,6
 389 54 389 54 389 99 c 0,7,8
 389 124 389 124 398 143 c 128,-1,9
 407 162 407 162 423 180 c 1,10,11
 386 178 386 178 352.5 151.5 c 128,-1,12
 319 125 319 125 296 84 c 128,-1,13
 273 43 273 43 265 0 c 1,14,-1
 203 0 l 2,15,16
 192 0 192 0 187 4.5 c 128,-1,17
 182 9 182 9 182 19 c 2,18,-1
 182 93 l 2,19,20
 182 130 182 130 187 172 c 0,21,22
 188 182 188 182 190 207 c 128,-1,23
 192 232 192 232 192 256 c 0,24,25
 192 279 192 279 179.5 292.5 c 128,-1,26
 167 306 167 306 145 306 c 0,27,28
 125 306 125 306 112 293.5 c 128,-1,29
 99 281 99 281 99 262 c 0,30,31
 99 242 99 242 112 230 c 128,-1,32
 125 218 125 218 145 218 c 0,33,34
 164 218 164 218 175 227 c 1,35,36
 179 222 179 222 179 213 c 0,37,38
 179 198 179 198 165.5 186.5 c 128,-1,39
 152 175 152 175 127 175 c 0,40,41
 93 175 93 175 69 198 c 128,-1,42
 45 221 45 221 45 262 c 0,43,44
 45 304 45 304 77 332.5 c 128,-1,45
 109 361 109 361 157 361 c 0,46,47
 212 361 212 361 245 330 c 128,-1,48
 278 299 278 299 278 249 c 0,49,50
 278 227 278 227 273 154 c 1,51,52
 302 193 302 193 343.5 215 c 128,-1,53
 385 237 385 237 431 237 c 0,54,55
 451 237 451 237 470 234 c 1,56,57
 477 250 477 250 477 262 c 2,58,-1
 477 380 l 2,59,60
 477 445 477 445 436.5 480 c 128,-1,61
 396 515 396 515 320 515 c 0,62,63
 260 515 260 515 216 493 c 128,-1,64
 172 471 172 471 129 432 c 0,65,66
 118 424 118 424 109 424 c 0,67,68
 96 424 96 424 80.5 439 c 128,-1,69
 65 454 65 454 53 479 c 1,70,71
 96 525 96 525 166 555.5 c 128,-1,72
 236 586 236 586 320 586 c 0,73,74
 434 586 434 586 501 533 c 128,-1,75
 568 480 568 480 568 382 c 2,76,-1
 568 254 l 2,77,78
 568 229 568 229 549 208 c 1,79,0
 613 169 613 169 613 99 c 0,1,2
535 65 m 128,-1,81
 547 79 547 79 547 103 c 0,82,83
 547 149 547 149 499 169 c 1,84,85
 477 152 477 152 465.5 137.5 c 128,-1,86
 454 123 454 123 454 102 c 0,87,88
 454 79 454 79 465.5 65 c 128,-1,89
 477 51 477 51 500 51 c 256,90,80
 523 51 523 51 535 65 c 128,-1,81
EndSplineSet
EndChar

StartChar: uni0E0A
Encoding: 3594 3594 439
Width: 615
GlyphClass: 2
Flags: W
AnchorPoint: "Anchor-12" 525 550 basechar 0
AnchorPoint: "Anchor-11" 525 0 basechar 0
LayerCount: 2
Fore
SplineSet
506.5 396.5 m 128,-1,1
 525 369 525 369 525 325 c 2,2,-1
 525 163 l 2,3,4
 525 71 525 71 471 31 c 128,-1,5
 417 -9 417 -9 319 -9 c 0,6,7
 234 -9 234 -9 176.5 31.5 c 128,-1,8
 119 72 119 72 119 151 c 2,9,-1
 119 246 l 2,10,11
 119 266 119 266 136 275 c 0,12,13
 196 314 196 314 230 352 c 128,-1,14
 264 390 264 390 264 443 c 0,15,16
 264 484 264 484 240 504.5 c 128,-1,17
 216 525 216 525 175 525 c 0,18,19
 141 525 141 525 121.5 507 c 128,-1,20
 102 489 102 489 102 462 c 0,21,22
 102 440 102 440 113 427 c 128,-1,23
 124 414 124 414 143 414 c 256,24,25
 162 414 162 414 173 425.5 c 128,-1,26
 184 437 184 437 184 456 c 0,27,28
 184 474 184 474 175 488 c 1,29,30
 181 491 181 491 191 491 c 0,31,32
 208 491 208 491 219 479 c 128,-1,33
 230 467 230 467 230 446 c 0,34,35
 230 411 230 411 206 386.5 c 128,-1,36
 182 362 182 362 142 362 c 0,37,38
 101 362 101 362 73.5 388 c 128,-1,39
 46 414 46 414 46 462 c 0,40,41
 46 512 46 512 85 545.5 c 128,-1,42
 124 579 124 579 184 579 c 0,43,44
 247 579 247 579 289.5 543 c 128,-1,45
 332 507 332 507 332 445 c 0,46,47
 332 375 332 375 297 326.5 c 128,-1,48
 262 278 262 278 210 241 c 1,49,-1
 210 159 l 2,50,51
 210 107 210 107 239.5 81.5 c 128,-1,52
 269 56 269 56 320 56 c 0,53,54
 382 56 382 56 407.5 80.5 c 128,-1,55
 433 105 433 105 433 166 c 2,56,-1
 433 331 l 2,57,58
 433 368 433 368 421 387 c 128,-1,59
 409 406 409 406 394 406 c 0,60,61
 385 406 385 406 375.5 404.5 c 128,-1,62
 366 403 366 403 356 403 c 0,63,64
 349 403 349 403 341 419.5 c 128,-1,65
 333 436 333 436 333 447 c 0,66,67
 333 455 333 455 339 456 c 0,68,69
 399 465 399 465 430.5 501.5 c 128,-1,70
 462 538 462 538 481 618 c 1,71,72
 514 618 514 618 534 603.5 c 128,-1,73
 554 589 554 589 554 565 c 0,74,75
 554 529 554 529 525 491 c 128,-1,76
 496 453 496 453 457 436 c 1,77,0
 488 424 488 424 506.5 396.5 c 128,-1,1
EndSplineSet
EndChar

StartChar: uni0E0B
Encoding: 3595 3595 440
Width: 628
GlyphClass: 2
Flags: W
AnchorPoint: "Anchor-12" 546 550 basechar 0
AnchorPoint: "Anchor-11" 546 0 basechar 0
LayerCount: 2
Fore
SplineSet
529 403 m 128,-1,1
 546 375 546 375 546 329 c 2,2,-1
 546 162 l 2,3,4
 546 81 546 81 489.5 36 c 128,-1,5
 433 -9 433 -9 330 -9 c 0,6,7
 233 -9 233 -9 175 34 c 128,-1,8
 117 77 117 77 117 166 c 2,9,-1
 117 222 l 2,10,11
 117 264 117 264 138.5 293.5 c 128,-1,12
 160 323 160 323 201 359 c 0,13,14
 238 391 238 391 256.5 416 c 128,-1,15
 275 441 275 441 275 474 c 0,16,17
 275 496 275 496 265.5 507 c 128,-1,18
 256 518 256 518 239 518 c 0,19,20
 208 518 208 518 187 480 c 1,21,22
 174 501 174 501 161.5 510.5 c 128,-1,23
 149 520 149 520 130 520 c 256,24,25
 111 520 111 520 99 508 c 128,-1,26
 87 496 87 496 87 476 c 0,27,28
 87 455 87 455 99.5 443.5 c 128,-1,29
 112 432 112 432 130 432 c 0,30,31
 161 432 161 432 179 463 c 1,32,33
 193 456 193 456 193 437 c 0,34,35
 193 414 193 414 173 398 c 128,-1,36
 153 382 153 382 121 382 c 0,37,38
 78 382 78 382 51 408 c 128,-1,39
 24 434 24 434 24 478 c 0,40,41
 24 525 24 525 51 552.5 c 128,-1,42
 78 580 78 580 116 580 c 0,43,44
 143 580 143 580 159 570.5 c 128,-1,45
 175 561 175 561 187 541 c 1,46,47
 212 580 212 580 264 580 c 0,48,49
 305 580 305 580 332 554 c 128,-1,50
 359 528 359 528 359 479 c 0,51,52
 359 465 359 465 358 459 c 1,53,54
 420 475 420 475 451.5 510 c 128,-1,55
 483 545 483 545 502 618 c 1,56,57
 536 616 536 616 555.5 602.5 c 128,-1,58
 575 589 575 589 575 565 c 0,59,60
 575 531 575 531 548 496 c 128,-1,61
 521 461 521 461 484 442 c 1,62,0
 512 431 512 431 529 403 c 128,-1,1
454 336 m 2,63,64
 454 374 454 374 442 392.5 c 128,-1,65
 430 411 430 411 415 411 c 0,66,67
 409 411 409 411 397.5 408.5 c 128,-1,68
 386 406 386 406 379 406 c 0,69,70
 373 406 373 406 365.5 417 c 128,-1,71
 358 428 358 428 354 440 c 1,72,73
 346 409 346 409 327.5 384.5 c 128,-1,74
 309 360 309 360 278 329 c 0,75,76
 245 295 245 295 228.5 271 c 128,-1,77
 212 247 212 247 212 218 c 2,78,-1
 212 166 l 2,79,80
 212 111 212 111 243 84.5 c 128,-1,81
 274 58 274 58 331 58 c 0,82,83
 394 58 394 58 424 83.5 c 128,-1,84
 454 109 454 109 454 166 c 2,85,-1
 454 336 l 2,63,64
EndSplineSet
EndChar

StartChar: uni0E0C
Encoding: 3596 3596 441
Width: 917
GlyphClass: 2
Flags: W
AnchorPoint: "Anchor-12" 830 550 basechar 0
AnchorPoint: "Anchor-11" 830 0 basechar 0
LayerCount: 2
Fore
SplineSet
834 44 m 2,1,-1
 835 20 l 2,2,3
 835 0 835 0 820 0 c 2,4,-1
 740 0 l 1,5,6
 675 149 675 149 544 173 c 1,7,-1
 544 117 l 2,8,9
 544 -9 544 -9 446 -9 c 0,10,11
 401 -9 401 -9 373 20.5 c 128,-1,12
 345 50 345 50 345 101 c 0,13,14
 345 155 345 155 374 189 c 128,-1,15
 403 223 403 223 452 234 c 1,16,-1
 452 383 l 2,17,18
 452 451 452 451 412 486 c 128,-1,19
 372 521 372 521 296 521 c 0,20,21
 252 521 252 521 215 507.5 c 128,-1,22
 178 494 178 494 157 475 c 128,-1,23
 136 456 136 456 136 441 c 0,24,25
 136 422 136 422 157.5 406.5 c 128,-1,26
 179 391 179 391 196 391 c 0,27,28
 206 391 206 391 229 398 c 0,29,30
 247 404 247 404 254 404 c 0,31,32
 263 404 263 404 275 383.5 c 128,-1,33
 287 363 287 363 287 350 c 0,34,35
 287 342 287 342 281 342 c 0,36,37
 220 342 220 342 197 313.5 c 128,-1,38
 174 285 174 285 174 221 c 2,39,-1
 174 114 l 2,40,41
 174 82 174 82 187.5 65 c 128,-1,42
 201 48 201 48 225 48 c 0,43,44
 248 48 248 48 259.5 60 c 128,-1,45
 271 72 271 72 271 93 c 0,46,47
 271 113 271 113 259.5 124 c 128,-1,48
 248 135 248 135 227 135 c 0,49,50
 222 135 222 135 194 130 c 1,51,52
 191 138 191 138 191 144 c 0,53,54
 191 160 191 160 204 170.5 c 128,-1,55
 217 181 217 181 240 181 c 0,56,57
 278 181 278 181 302 158.5 c 128,-1,58
 326 136 326 136 326 94 c 0,59,60
 326 49 326 49 295 21 c 128,-1,61
 264 -7 264 -7 212 -7 c 0,62,63
 154 -7 154 -7 118 27 c 128,-1,64
 82 61 82 61 82 120 c 2,65,-1
 82 221 l 2,66,67
 82 305 82 305 131 349 c 1,68,69
 101 361 101 361 75.5 386 c 128,-1,70
 50 411 50 411 50 438 c 0,71,72
 50 470 50 470 80.5 505 c 128,-1,73
 111 540 111 540 167.5 563 c 128,-1,74
 224 586 224 586 296 586 c 0,75,76
 406 586 406 586 474.5 534 c 128,-1,77
 543 482 543 482 543 383 c 2,78,-1
 543 235 l 1,79,80
 600 227 600 227 650 199.5 c 128,-1,81
 700 172 700 172 738 128 c 1,82,-1
 738 576 l 1,83,-1
 830 576 l 1,84,-1
 830 138 l 2,85,0
 830 86 830 86 834 44 c 2,1,-1
451.5 65.5 m 128,-1,87
 456 81 456 81 456 119 c 0,88,89
 456 138 456 138 454 174 c 1,90,91
 428 168 428 168 414.5 152 c 128,-1,92
 401 136 401 136 401 104 c 0,93,94
 401 80 401 80 410 65 c 128,-1,95
 419 50 419 50 434 50 c 0,96,86
 447 50 447 50 451.5 65.5 c 128,-1,87
EndSplineSet
EndChar

StartChar: uni0E240E45
Encoding: 65537 -1 442
Width: 942
Flags: W
LayerCount: 2
Fore
SplineSet
452 383 m 2,0,1
 452 451 452 451 412 486 c 128,-1,2
 372 521 372 521 296 521 c 0,3,4
 252 521 252 521 215 507.5 c 128,-1,5
 178 494 178 494 157 475 c 128,-1,6
 136 456 136 456 136 441 c 0,7,8
 136 422 136 422 157.5 406.5 c 128,-1,9
 179 391 179 391 196 391 c 0,10,11
 206 391 206 391 229 398 c 0,12,13
 247 404 247 404 254 404 c 0,14,15
 263 404 263 404 275 383.5 c 128,-1,16
 287 363 287 363 287 350 c 0,17,18
 287 342 287 342 281 342 c 0,19,20
 220 342 220 342 197 313.5 c 128,-1,21
 174 285 174 285 174 221 c 2,22,-1
 174 114 l 2,23,24
 174 82 174 82 187.5 65 c 128,-1,25
 201 48 201 48 225 48 c 0,26,27
 248 48 248 48 259.5 60 c 128,-1,28
 271 72 271 72 271 93 c 0,29,30
 271 113 271 113 259.5 124 c 128,-1,31
 248 135 248 135 227 135 c 0,32,33
 222 135 222 135 194 130 c 1,34,35
 191 138 191 138 191 144 c 0,36,37
 191 160 191 160 204 170.5 c 128,-1,38
 217 181 217 181 240 181 c 0,39,40
 279 181 279 181 302.5 159 c 128,-1,41
 326 137 326 137 326 94 c 0,42,43
 326 49 326 49 295 21 c 128,-1,44
 264 -7 264 -7 212 -7 c 0,45,46
 154 -7 154 -7 118 27 c 128,-1,47
 82 61 82 61 82 120 c 2,48,-1
 82 221 l 2,49,50
 82 306 82 306 130 349 c 1,51,52
 100 363 100 363 75 387 c 128,-1,53
 50 411 50 411 50 438 c 0,54,55
 50 470 50 470 80.5 505 c 128,-1,56
 111 540 111 540 167.5 563 c 128,-1,57
 224 586 224 586 296 586 c 0,58,59
 357 586 357 586 406.5 569.5 c 128,-1,60
 456 553 456 553 489 521 c 1,61,62
 565 586 565 586 669 586 c 0,63,64
 762 586 762 586 817 536 c 128,-1,65
 872 486 872 486 872 396 c 2,66,-1
 872 -217 l 1,67,-1
 780 -217 l 1,68,-1
 780 397 l 2,69,70
 780 455 780 455 750 485.5 c 128,-1,71
 720 516 720 516 665 516 c 0,72,73
 587 516 587 516 531 458 c 1,74,75
 543 425 543 425 543 383 c 2,76,-1
 543 -220 l 1,77,-1
 452 -220 l 1,78,-1
 452 383 l 2,0,1
EndSplineSet
Ligature2: "'liga' Standard Ligatures lookup 13 subtable" uni0E24 uni0E45
EndChar

StartChar: uni0E260E45
Encoding: 65538 -1 443
Width: 949
Flags: W
LayerCount: 2
Fore
SplineSet
463 372 m 2,0,1
 463 453 463 453 424 487 c 128,-1,2
 385 521 385 521 310 521 c 0,3,4
 264 521 264 521 226.5 508.5 c 128,-1,5
 189 496 189 496 168 478 c 128,-1,6
 147 460 147 460 147 445 c 0,7,8
 147 432 147 432 158 420 c 128,-1,9
 169 408 169 408 183 400.5 c 128,-1,10
 197 393 197 393 205 393 c 0,11,12
 215 393 215 393 235 401 c 0,13,14
 257 409 257 409 264 409 c 0,15,16
 274 409 274 409 286 389.5 c 128,-1,17
 298 370 298 370 298 357 c 0,18,19
 298 349 298 349 292 349 c 0,20,21
 250 349 250 349 228.5 326 c 128,-1,22
 207 303 207 303 207 263 c 0,23,24
 207 229 207 229 216 186 c 0,25,26
 217 181 217 181 221 155 c 128,-1,27
 225 129 225 129 225 100 c 0,28,29
 225 50 225 50 196.5 21 c 128,-1,30
 168 -8 168 -8 113 -8 c 0,31,32
 65 -8 65 -8 38 17.5 c 128,-1,33
 11 43 11 43 11 83 c 0,34,35
 11 119 11 119 33 140 c 128,-1,36
 55 161 55 161 83 161 c 0,37,38
 100 161 100 161 110 151.5 c 128,-1,39
 120 142 120 142 120 125 c 1,40,-1
 103 125 l 2,41,42
 84 125 84 125 73 114.5 c 128,-1,43
 62 104 62 104 62 85 c 0,44,45
 62 69 62 69 73 57.5 c 128,-1,46
 84 46 84 46 103 46 c 256,47,48
 122 46 122 46 132.5 59 c 128,-1,49
 143 72 143 72 143 92 c 0,50,51
 143 111 143 111 138.5 133.5 c 128,-1,52
 134 156 134 156 129 177 c 0,53,54
 124 199 124 199 119.5 221.5 c 128,-1,55
 115 244 115 244 115 264 c 0,56,57
 115 320 115 320 154 349 c 1,58,59
 117 360 117 360 88.5 386.5 c 128,-1,60
 60 413 60 413 60 442 c 0,61,62
 60 472 60 472 91.5 505.5 c 128,-1,63
 123 539 123 539 180 562.5 c 128,-1,64
 237 586 237 586 310 586 c 0,65,66
 437 586 437 586 499 524 c 1,67,68
 573 586 573 586 676 586 c 0,69,70
 769 586 769 586 824 536 c 128,-1,71
 879 486 879 486 879 396 c 2,72,-1
 879 -217 l 1,73,-1
 787 -217 l 1,74,-1
 787 397 l 2,75,76
 787 455 787 455 757 485.5 c 128,-1,77
 727 516 727 516 672 516 c 0,78,79
 596 516 596 516 540 460 c 1,80,81
 555 424 555 424 555 372 c 2,82,-1
 555 -220 l 1,83,-1
 463 -220 l 1,84,-1
 463 372 l 2,0,1
EndSplineSet
Ligature2: "'liga' Standard Ligatures lookup 13 subtable" uni0E26 uni0E45
EndChar

StartChar: uni0E0D
Encoding: 3597 3597 444
Width: 940
GlyphClass: 2
Flags: W
AnchorPoint: "Anchor-12" 867 550 basechar 0
AnchorPoint: "Anchor-11" 867 -235 basechar 0
LayerCount: 2
Fore
SplineSet
495 31.5 m 128,-1,1
 445 72 445 72 445 173 c 2,2,-1
 445 383 l 2,3,4
 445 452 445 452 407.5 486.5 c 128,-1,5
 370 521 370 521 293 521 c 0,6,7
 247 521 247 521 211.5 507.5 c 128,-1,8
 176 494 176 494 156 475 c 128,-1,9
 136 456 136 456 136 441 c 0,10,11
 136 428 136 428 148 416.5 c 128,-1,12
 160 405 160 405 176.5 398 c 128,-1,13
 193 391 193 391 203 391 c 0,14,15
 214 391 214 391 224.5 394 c 128,-1,16
 235 397 235 397 238 398 c 0,17,18
 254 404 254 404 262 404 c 0,19,20
 271 404 271 404 283 384.5 c 128,-1,21
 295 365 295 365 295 352 c 0,22,23
 295 342 295 342 286 342 c 0,24,25
 227 342 227 342 200.5 312.5 c 128,-1,26
 174 283 174 283 174 221 c 2,27,-1
 174 114 l 2,28,29
 174 82 174 82 187.5 65 c 128,-1,30
 201 48 201 48 225 48 c 0,31,32
 248 48 248 48 259.5 60 c 128,-1,33
 271 72 271 72 271 93 c 0,34,35
 271 113 271 113 259.5 124 c 128,-1,36
 248 135 248 135 227 135 c 0,37,38
 222 135 222 135 194 130 c 1,39,40
 191 138 191 138 191 144 c 0,41,42
 191 160 191 160 204 170.5 c 128,-1,43
 217 181 217 181 240 181 c 0,44,45
 278 181 278 181 302 158.5 c 128,-1,46
 326 136 326 136 326 94 c 0,47,48
 326 49 326 49 295 21 c 128,-1,49
 264 -7 264 -7 212 -7 c 0,50,51
 154 -7 154 -7 118 27 c 128,-1,52
 82 61 82 61 82 120 c 2,53,-1
 82 221 l 2,54,55
 82 303 82 303 136 349 c 1,56,57
 103 363 103 363 76.5 387 c 128,-1,58
 50 411 50 411 50 438 c 0,59,60
 50 470 50 470 81.5 504.5 c 128,-1,61
 113 539 113 539 169.5 562.5 c 128,-1,62
 226 586 226 586 296 586 c 0,63,64
 407 586 407 586 472 534.5 c 128,-1,65
 537 483 537 483 537 383 c 2,66,-1
 537 172 l 2,67,68
 537 127 537 127 548 102.5 c 128,-1,69
 559 78 559 78 584.5 68 c 128,-1,70
 610 58 610 58 656 58 c 0,71,72
 704 58 704 58 729 68.5 c 128,-1,73
 754 79 754 79 764.5 103 c 128,-1,74
 775 127 775 127 775 172 c 2,75,-1
 775 576 l 1,76,-1
 867 576 l 1,77,-1
 867 177 l 2,78,79
 867 106 867 106 844.5 65.5 c 128,-1,80
 822 25 822 25 776 8 c 128,-1,81
 730 -9 730 -9 656 -9 c 0,82,0
 545 -9 545 -9 495 31.5 c 128,-1,1
514 -214.5 m 128,-1,84
 469 -188 469 -188 469 -137 c 0,85,86
 469 -96 469 -96 494.5 -72.5 c 128,-1,87
 520 -49 520 -49 556 -49 c 0,88,89
 590 -49 590 -49 610.5 -68 c 128,-1,90
 631 -87 631 -87 631 -116 c 0,91,92
 631 -134 631 -134 620.5 -146 c 128,-1,93
 610 -158 610 -158 596 -158 c 0,94,95
 587 -158 587 -158 577 -152 c 1,96,97
 585 -143 585 -143 585 -126 c 0,98,99
 585 -113 585 -113 578 -104.5 c 128,-1,100
 571 -96 571 -96 558 -96 c 256,101,102
 545 -96 545 -96 536.5 -104.5 c 128,-1,103
 528 -113 528 -113 528 -128 c 0,104,105
 528 -151 528 -151 553.5 -166.5 c 128,-1,106
 579 -182 579 -182 626 -182 c 0,107,108
 682 -182 682 -182 711 -161.5 c 128,-1,109
 740 -141 740 -141 753 -90 c 0,110,111
 760 -67 760 -67 780 -67 c 0,112,113
 803 -67 803 -67 839 -82 c 1,114,115
 828 -161 828 -161 768.5 -201 c 128,-1,116
 709 -241 709 -241 628 -241 c 0,117,83
 559 -241 559 -241 514 -214.5 c 128,-1,84
EndSplineSet
Substitution2: "Single Substitution lookup 14 subtable" yoYingthai.less
Substitution2: "'aalt' Access All Alternates lookup 0 subtable" yoYingthai.less
EndChar

StartChar: yoYingthai.less
Encoding: 65539 -1 445
Width: 940
GlyphClass: 2
Flags: W
AnchorPoint: "Anchor-12" 867 550 basechar 0
AnchorPoint: "Anchor-11" 867 0 basechar 0
LayerCount: 2
Fore
SplineSet
495 31.5 m 128,-1,1
 445 72 445 72 445 173 c 2,2,-1
 445 383 l 2,3,4
 445 452 445 452 407.5 486.5 c 128,-1,5
 370 521 370 521 293 521 c 0,6,7
 247 521 247 521 211.5 507.5 c 128,-1,8
 176 494 176 494 156 475 c 128,-1,9
 136 456 136 456 136 441 c 0,10,11
 136 428 136 428 148 416.5 c 128,-1,12
 160 405 160 405 176.5 398 c 128,-1,13
 193 391 193 391 203 391 c 0,14,15
 214 391 214 391 224.5 394 c 128,-1,16
 235 397 235 397 238 398 c 0,17,18
 254 404 254 404 262 404 c 0,19,20
 271 404 271 404 283 384.5 c 128,-1,21
 295 365 295 365 295 352 c 0,22,23
 295 342 295 342 286 342 c 0,24,25
 227 342 227 342 200.5 312.5 c 128,-1,26
 174 283 174 283 174 221 c 2,27,-1
 174 114 l 2,28,29
 174 82 174 82 187.5 65 c 128,-1,30
 201 48 201 48 225 48 c 0,31,32
 248 48 248 48 259.5 60 c 128,-1,33
 271 72 271 72 271 93 c 0,34,35
 271 113 271 113 259.5 124 c 128,-1,36
 248 135 248 135 227 135 c 0,37,38
 222 135 222 135 194 130 c 1,39,40
 191 138 191 138 191 144 c 0,41,42
 191 160 191 160 204 170.5 c 128,-1,43
 217 181 217 181 240 181 c 0,44,45
 278 181 278 181 302 158.5 c 128,-1,46
 326 136 326 136 326 94 c 0,47,48
 326 49 326 49 295 21 c 128,-1,49
 264 -7 264 -7 212 -7 c 0,50,51
 154 -7 154 -7 118 27 c 128,-1,52
 82 61 82 61 82 120 c 2,53,-1
 82 221 l 2,54,55
 82 303 82 303 136 349 c 1,56,57
 103 363 103 363 76.5 387 c 128,-1,58
 50 411 50 411 50 438 c 0,59,60
 50 470 50 470 81.5 504.5 c 128,-1,61
 113 539 113 539 169.5 562.5 c 128,-1,62
 226 586 226 586 296 586 c 0,63,64
 407 586 407 586 472 534.5 c 128,-1,65
 537 483 537 483 537 383 c 2,66,-1
 537 172 l 2,67,68
 537 127 537 127 548 102.5 c 128,-1,69
 559 78 559 78 584.5 68 c 128,-1,70
 610 58 610 58 656 58 c 0,71,72
 704 58 704 58 729 68.5 c 128,-1,73
 754 79 754 79 764.5 103 c 128,-1,74
 775 127 775 127 775 172 c 2,75,-1
 775 576 l 1,76,-1
 867 576 l 1,77,-1
 867 177 l 2,78,79
 867 106 867 106 844.5 65.5 c 128,-1,80
 822 25 822 25 776 8 c 128,-1,81
 730 -9 730 -9 656 -9 c 0,82,0
 545 -9 545 -9 495 31.5 c 128,-1,1
EndSplineSet
EndChar

StartChar: uni0E0E
Encoding: 3598 3598 446
Width: 625
GlyphClass: 2
Flags: W
AnchorPoint: "Anchor-12" 555 550 basechar 0
AnchorPoint: "Anchor-11" 555 -245 basechar 0
LayerCount: 2
Fore
SplineSet
487.5 535 m 128,-1,1
 555 484 555 484 555 372 c 2,2,-1
 555 -245 l 1,3,-1
 462 -245 l 1,4,5
 425 -193 425 -193 362 -155 c 1,6,7
 336 -198 336 -198 290.5 -223.5 c 128,-1,8
 245 -249 245 -249 191 -249 c 256,9,10
 137 -249 137 -249 102 -223 c 128,-1,11
 67 -197 67 -197 67 -156 c 0,12,13
 67 -128 67 -128 87 -105.5 c 128,-1,14
 107 -83 107 -83 142 -69.5 c 128,-1,15
 177 -56 177 -56 220 -56 c 0,16,17
 267 -56 267 -56 314 -70 c 1,18,19
 320 -35 320 -35 321 -9 c 1,20,21
 358 -9 358 -9 373.5 -21.5 c 128,-1,22
 389 -34 389 -34 389 -59 c 0,23,24
 389 -73 389 -73 385 -99 c 1,25,26
 433 -125 433 -125 463 -159 c 1,27,-1
 463 372 l 2,28,29
 463 453 463 453 424 487 c 128,-1,30
 385 521 385 521 310 521 c 0,31,32
 264 521 264 521 226.5 508.5 c 128,-1,33
 189 496 189 496 168 478 c 128,-1,34
 147 460 147 460 147 445 c 0,35,36
 147 432 147 432 158 420 c 128,-1,37
 169 408 169 408 183 400.5 c 128,-1,38
 197 393 197 393 205 393 c 0,39,40
 215 393 215 393 235 401 c 0,41,42
 257 409 257 409 264 409 c 0,43,44
 274 409 274 409 286 389.5 c 128,-1,45
 298 370 298 370 298 357 c 0,46,47
 298 349 298 349 292 349 c 0,48,49
 250 349 250 349 228.5 326 c 128,-1,50
 207 303 207 303 207 263 c 0,51,52
 207 229 207 229 216 186 c 0,53,54
 217 181 217 181 221 155 c 128,-1,55
 225 129 225 129 225 100 c 0,56,57
 225 50 225 50 196.5 21 c 128,-1,58
 168 -8 168 -8 113 -8 c 0,59,60
 65 -8 65 -8 38 17.5 c 128,-1,61
 11 43 11 43 11 83 c 0,62,63
 11 119 11 119 33 140 c 128,-1,64
 55 161 55 161 83 161 c 0,65,66
 100 161 100 161 110 151.5 c 128,-1,67
 120 142 120 142 120 125 c 1,68,-1
 103 125 l 2,69,70
 84 125 84 125 73 114.5 c 128,-1,71
 62 104 62 104 62 85 c 0,72,73
 62 69 62 69 73 57.5 c 128,-1,74
 84 46 84 46 103 46 c 256,75,76
 122 46 122 46 132.5 59 c 128,-1,77
 143 72 143 72 143 92 c 0,78,79
 143 111 143 111 138.5 133.5 c 128,-1,80
 134 156 134 156 129 177 c 0,81,82
 124 199 124 199 119.5 221.5 c 128,-1,83
 115 244 115 244 115 264 c 0,84,85
 115 321 115 321 154 349 c 1,86,87
 117 361 117 361 88.5 387.5 c 128,-1,88
 60 414 60 414 60 442 c 0,89,90
 60 472 60 472 91.5 505.5 c 128,-1,91
 123 539 123 539 180 562.5 c 128,-1,92
 237 586 237 586 310 586 c 0,93,0
 420 586 420 586 487.5 535 c 128,-1,1
254.5 -177 m 128,-1,95
 280 -160 280 -160 296 -125 c 1,96,97
 262 -113 262 -113 226 -113 c 0,98,99
 188 -113 188 -113 165.5 -126 c 128,-1,100
 143 -139 143 -139 143 -157 c 0,101,102
 143 -173 143 -173 158 -183.5 c 128,-1,103
 173 -194 173 -194 197 -194 c 0,104,94
 229 -194 229 -194 254.5 -177 c 128,-1,95
EndSplineSet
Substitution2: "Single Substitution lookup 14 subtable" doChadathai.short
Substitution2: "'aalt' Access All Alternates lookup 0 subtable" doChadathai.short
EndChar

StartChar: doChadathai.short
Encoding: 65540 -1 447
Width: 625
GlyphClass: 2
Flags: W
AnchorPoint: "Anchor-12" 555 550 basechar 0
AnchorPoint: "Anchor-11" 555 -195 basechar 0
LayerCount: 2
Fore
SplineSet
487.5 535 m 128,-1,1
 555 484 555 484 555 372 c 2,2,-1
 555 -195 l 1,3,-1
 464 -195 l 1,4,5
 426 -144 426 -144 363 -105 c 1,6,7
 337 -147 337 -147 292.5 -173 c 128,-1,8
 248 -199 248 -199 195 -199 c 0,9,10
 140 -199 140 -199 107 -175 c 128,-1,11
 74 -151 74 -151 74 -109 c 0,12,13
 74 -65 74 -65 114.5 -37 c 128,-1,14
 155 -9 155 -9 220 -9 c 0,15,16
 271 -9 271 -9 320 -26 c 1,17,18
 326 5 326 5 327 28 c 1,19,20
 361 28 361 28 375 16.5 c 128,-1,21
 389 5 389 5 389 -19 c 0,22,23
 389 -39 389 -39 385 -55 c 1,24,25
 432 -82 432 -82 463 -114 c 1,26,-1
 463 372 l 2,27,28
 463 453 463 453 424 487 c 128,-1,29
 385 521 385 521 310 521 c 0,30,31
 264 521 264 521 226.5 508.5 c 128,-1,32
 189 496 189 496 168 478 c 128,-1,33
 147 460 147 460 147 445 c 0,34,35
 147 432 147 432 158 420 c 128,-1,36
 169 408 169 408 183 400.5 c 128,-1,37
 197 393 197 393 205 393 c 0,38,39
 215 393 215 393 235 401 c 0,40,41
 257 409 257 409 264 409 c 0,42,43
 274 409 274 409 286 389.5 c 128,-1,44
 298 370 298 370 298 357 c 0,45,46
 298 349 298 349 292 349 c 0,47,48
 250 349 250 349 228.5 326 c 128,-1,49
 207 303 207 303 207 263 c 0,50,51
 207 229 207 229 216 186 c 0,52,53
 217 181 217 181 221 155 c 128,-1,54
 225 129 225 129 225 100 c 0,55,56
 225 50 225 50 196.5 21 c 128,-1,57
 168 -8 168 -8 113 -8 c 0,58,59
 65 -8 65 -8 38 17.5 c 128,-1,60
 11 43 11 43 11 83 c 0,61,62
 11 119 11 119 33 140 c 128,-1,63
 55 161 55 161 83 161 c 0,64,65
 100 161 100 161 110 151.5 c 128,-1,66
 120 142 120 142 120 125 c 1,67,-1
 103 125 l 2,68,69
 84 125 84 125 73 114.5 c 128,-1,70
 62 104 62 104 62 85 c 0,71,72
 62 69 62 69 73 57.5 c 128,-1,73
 84 46 84 46 103 46 c 256,74,75
 122 46 122 46 132.5 59 c 128,-1,76
 143 72 143 72 143 92 c 0,77,78
 143 111 143 111 138.5 133.5 c 128,-1,79
 134 156 134 156 129 177 c 0,80,81
 124 199 124 199 119.5 221.5 c 128,-1,82
 115 244 115 244 115 264 c 0,83,84
 115 321 115 321 154 349 c 1,85,86
 117 361 117 361 88.5 387.5 c 128,-1,87
 60 414 60 414 60 442 c 0,88,89
 60 472 60 472 91.5 505.5 c 128,-1,90
 123 539 123 539 180 562.5 c 128,-1,91
 237 586 237 586 310 586 c 0,92,0
 420 586 420 586 487.5 535 c 128,-1,1
260.5 -127 m 128,-1,94
 287 -110 287 -110 303 -77 c 1,95,96
 264 -63 264 -63 226 -63 c 0,97,98
 185 -63 185 -63 165.5 -75.5 c 128,-1,99
 146 -88 146 -88 146 -109 c 0,100,101
 146 -126 146 -126 160 -135 c 128,-1,102
 174 -144 174 -144 201 -144 c 0,103,93
 234 -144 234 -144 260.5 -127 c 128,-1,94
EndSplineSet
EndChar

StartChar: uni0E0F
Encoding: 3599 3599 448
Width: 625
GlyphClass: 2
Flags: W
AnchorPoint: "Anchor-12" 555 550 basechar 0
AnchorPoint: "Anchor-11" 555 -250 basechar 0
LayerCount: 2
Fore
SplineSet
487.5 535 m 128,-1,1
 555 484 555 484 555 372 c 2,2,-1
 555 -250 l 1,3,-1
 460 -250 l 1,4,-1
 396 -198 l 1,5,-1
 327 -247 l 1,6,-1
 276 -200 l 1,7,8
 251 -225 251 -225 219.5 -239 c 128,-1,9
 188 -253 188 -253 151 -253 c 0,10,11
 104 -253 104 -253 74 -230 c 128,-1,12
 44 -207 44 -207 44 -168 c 0,13,14
 44 -127 44 -127 77 -104 c 128,-1,15
 110 -81 110 -81 155 -81 c 0,16,17
 202 -81 202 -81 248 -110 c 1,18,19
 260 -71 260 -71 260 -26 c 1,20,21
 293 -26 293 -26 312 -38.5 c 128,-1,22
 331 -51 331 -51 331 -75 c 0,23,24
 331 -118 331 -118 307 -158 c 1,25,-1
 332 -180 l 1,26,-1
 397 -139 l 1,27,-1
 465 -185 l 1,28,-1
 463 372 l 2,29,30
 463 453 463 453 424 487 c 128,-1,31
 385 521 385 521 310 521 c 0,32,33
 264 521 264 521 226.5 508.5 c 128,-1,34
 189 496 189 496 168 478 c 128,-1,35
 147 460 147 460 147 445 c 0,36,37
 147 432 147 432 158 420 c 128,-1,38
 169 408 169 408 183 400.5 c 128,-1,39
 197 393 197 393 205 393 c 0,40,41
 215 393 215 393 235 401 c 0,42,43
 257 409 257 409 264 409 c 0,44,45
 274 409 274 409 286 389.5 c 128,-1,46
 298 370 298 370 298 357 c 0,47,48
 298 349 298 349 292 349 c 0,49,50
 250 349 250 349 228.5 326 c 128,-1,51
 207 303 207 303 207 263 c 0,52,53
 207 229 207 229 216 186 c 0,54,55
 217 181 217 181 221 155 c 128,-1,56
 225 129 225 129 225 100 c 0,57,58
 225 50 225 50 196.5 21 c 128,-1,59
 168 -8 168 -8 113 -8 c 0,60,61
 65 -8 65 -8 38 17.5 c 128,-1,62
 11 43 11 43 11 83 c 0,63,64
 11 119 11 119 33 140 c 128,-1,65
 55 161 55 161 83 161 c 0,66,67
 100 161 100 161 110 151.5 c 128,-1,68
 120 142 120 142 120 125 c 1,69,-1
 103 125 l 2,70,71
 84 125 84 125 73 114.5 c 128,-1,72
 62 104 62 104 62 85 c 0,73,74
 62 69 62 69 73 57.5 c 128,-1,75
 84 46 84 46 103 46 c 256,76,77
 122 46 122 46 132.5 59 c 128,-1,78
 143 72 143 72 143 92 c 0,79,80
 143 111 143 111 138.5 133.5 c 128,-1,81
 134 156 134 156 129 177 c 0,82,83
 124 199 124 199 119.5 221.5 c 128,-1,84
 115 244 115 244 115 264 c 0,85,86
 115 321 115 321 154 349 c 1,87,88
 117 361 117 361 88.5 387.5 c 128,-1,89
 60 414 60 414 60 442 c 0,90,91
 60 472 60 472 91.5 505.5 c 128,-1,92
 123 539 123 539 180 562.5 c 128,-1,93
 237 586 237 586 310 586 c 0,94,0
 420 586 420 586 487.5 535 c 128,-1,1
228 -157 m 1,96,97
 194 -131 194 -131 164 -131 c 0,98,99
 143 -131 143 -131 128.5 -140 c 128,-1,100
 114 -149 114 -149 114 -166 c 256,101,102
 114 -183 114 -183 127.5 -192.5 c 128,-1,103
 141 -202 141 -202 163 -202 c 0,104,95
 201 -202 201 -202 228 -157 c 1,96,97
EndSplineSet
Substitution2: "Single Substitution lookup 14 subtable" toPatakthai.short
Substitution2: "'aalt' Access All Alternates lookup 0 subtable" toPatakthai.short
EndChar

StartChar: toPatakthai.short
Encoding: 65541 -1 449
Width: 625
GlyphClass: 2
Flags: W
AnchorPoint: "Anchor-12" 555 550 basechar 0
AnchorPoint: "Anchor-11" 555 -197 basechar 0
LayerCount: 2
Fore
SplineSet
487.5 535 m 128,-1,1
 555 484 555 484 555 372 c 2,2,-1
 555 -197 l 1,3,-1
 460 -197 l 1,4,-1
 396 -145 l 1,5,-1
 327 -194 l 1,6,-1
 277 -147 l 1,7,8
 224 -200 224 -200 151 -200 c 0,9,10
 104 -200 104 -200 74 -177 c 128,-1,11
 44 -154 44 -154 44 -115 c 0,12,13
 44 -74 44 -74 77 -51 c 128,-1,14
 110 -28 110 -28 155 -28 c 0,15,16
 205 -28 205 -28 251 -59 c 1,17,18
 260 -26 260 -26 260 14 c 1,19,20
 293 14 293 14 312 2.5 c 128,-1,21
 331 -9 331 -9 331 -32 c 0,22,23
 331 -68 331 -68 308 -106 c 1,24,-1
 332 -127 l 1,25,-1
 397 -86 l 1,26,-1
 465 -134 l 1,27,-1
 463 372 l 2,28,29
 463 453 463 453 424 487 c 128,-1,30
 385 521 385 521 310 521 c 0,31,32
 264 521 264 521 226.5 508.5 c 128,-1,33
 189 496 189 496 168 478 c 128,-1,34
 147 460 147 460 147 445 c 0,35,36
 147 432 147 432 158 420 c 128,-1,37
 169 408 169 408 183 400.5 c 128,-1,38
 197 393 197 393 205 393 c 0,39,40
 215 393 215 393 235 401 c 0,41,42
 257 409 257 409 264 409 c 0,43,44
 274 409 274 409 286 389.5 c 128,-1,45
 298 370 298 370 298 357 c 0,46,47
 298 349 298 349 292 349 c 0,48,49
 250 349 250 349 228.5 326 c 128,-1,50
 207 303 207 303 207 263 c 0,51,52
 207 229 207 229 216 186 c 0,53,54
 217 181 217 181 221 155 c 128,-1,55
 225 129 225 129 225 100 c 0,56,57
 225 50 225 50 196.5 21 c 128,-1,58
 168 -8 168 -8 113 -8 c 0,59,60
 65 -8 65 -8 38 17.5 c 128,-1,61
 11 43 11 43 11 83 c 0,62,63
 11 119 11 119 33 140 c 128,-1,64
 55 161 55 161 83 161 c 0,65,66
 100 161 100 161 110 151.5 c 128,-1,67
 120 142 120 142 120 125 c 1,68,-1
 103 125 l 2,69,70
 84 125 84 125 73 114.5 c 128,-1,71
 62 104 62 104 62 85 c 0,72,73
 62 69 62 69 73 57.5 c 128,-1,74
 84 46 84 46 103 46 c 256,75,76
 122 46 122 46 132.5 59 c 128,-1,77
 143 72 143 72 143 92 c 0,78,79
 143 111 143 111 138.5 133.5 c 128,-1,80
 134 156 134 156 129 177 c 0,81,82
 124 199 124 199 119.5 221.5 c 128,-1,83
 115 244 115 244 115 264 c 0,84,85
 115 321 115 321 154 349 c 1,86,87
 117 361 117 361 88.5 387.5 c 128,-1,88
 60 414 60 414 60 442 c 0,89,90
 60 472 60 472 91.5 505.5 c 128,-1,91
 123 539 123 539 180 562.5 c 128,-1,92
 237 586 237 586 310 586 c 0,93,0
 420 586 420 586 487.5 535 c 128,-1,1
231 -106 m 1,95,96
 193 -78 193 -78 164 -78 c 0,97,98
 143 -78 143 -78 128.5 -87 c 128,-1,99
 114 -96 114 -96 114 -113 c 256,100,101
 114 -130 114 -130 127.5 -139.5 c 128,-1,102
 141 -149 141 -149 163 -149 c 0,103,94
 204 -149 204 -149 231 -106 c 1,95,96
EndSplineSet
EndChar

StartChar: uni0E10
Encoding: 3600 3600 450
Width: 589
GlyphClass: 2
Flags: W
AnchorPoint: "Anchor-12" 519 550 basechar 0
AnchorPoint: "Anchor-11" 519 -284 basechar 0
LayerCount: 2
Fore
SplineSet
529.5 563.5 m 128,-1,1
 536 549 536 549 536 535 c 0,2,3
 536 507 536 507 505.5 492.5 c 128,-1,4
 475 478 475 478 427 478 c 0,5,6
 392 478 392 478 330 495 c 0,7,8
 325 496 325 496 302.5 501.5 c 128,-1,9
 280 507 280 507 260.5 509.5 c 128,-1,10
 241 512 241 512 225 512 c 0,11,12
 155 512 155 512 155 446 c 0,13,14
 155 421 155 421 164 408 c 1,15,16
 181 408 181 408 193 409 c 2,17,-1
 253 410 l 2,18,19
 309 410 309 410 350 405 c 0,20,21
 425 399 425 399 465.5 359 c 128,-1,22
 506 319 506 319 506 245 c 0,23,24
 506 216 506 216 501.5 185 c 128,-1,25
 497 154 497 154 488 104 c 0,26,27
 478 48 478 48 474 19 c 0,28,29
 473 7 473 7 440 -1 c 128,-1,30
 407 -9 407 -9 363 -9 c 0,31,32
 318 -9 318 -9 285 -0.5 c 128,-1,33
 252 8 252 8 251 19 c 0,34,35
 249 118 249 118 241 178 c 0,36,37
 236 208 236 208 226 220 c 128,-1,38
 216 232 216 232 196 232 c 0,39,40
 179 232 179 232 168 221.5 c 128,-1,41
 157 211 157 211 157 195 c 0,42,43
 157 178 157 178 167 168 c 128,-1,44
 177 158 177 158 195 158 c 0,45,46
 212 158 212 158 225 167 c 1,47,48
 230 160 230 160 230 154 c 0,49,50
 230 139 230 139 216 128.5 c 128,-1,51
 202 118 202 118 176 118 c 0,52,53
 142 118 142 118 120.5 139.5 c 128,-1,54
 99 161 99 161 99 197 c 0,55,56
 99 236 99 236 127 261 c 128,-1,57
 155 286 155 286 198 286 c 0,58,59
 247 286 247 286 275.5 262 c 128,-1,60
 304 238 304 238 311 192 c 0,61,62
 321 127 321 127 323 61 c 0,63,64
 323 56 323 56 333 53 c 128,-1,65
 343 50 343 50 359 50 c 256,66,67
 375 50 375 50 384 53.5 c 128,-1,68
 393 57 393 57 394 62 c 0,69,70
 414 184 414 184 414 237 c 0,71,72
 414 289 414 289 386.5 314.5 c 128,-1,73
 359 340 359 340 294 341 c 0,74,75
 278 342 278 342 243 342 c 0,76,77
 225 342 225 342 132 339 c 2,78,-1
 102 338 l 1,79,80
 86 356 86 356 75.5 382.5 c 128,-1,81
 65 409 65 409 65 440 c 0,82,83
 65 504 65 504 107.5 543.5 c 128,-1,84
 150 583 150 583 216 583 c 0,85,86
 260 583 260 583 328 571 c 0,87,88
 377 562 377 562 401 562 c 0,89,90
 477 562 477 562 514 589 c 1,91,0
 523 578 523 578 529.5 563.5 c 128,-1,1
490 -73.5 m 128,-1,93
 514 -96 514 -96 514 -133 c 0,94,95
 514 -149 514 -149 510.5 -163.5 c 128,-1,96
 507 -178 507 -178 499 -199 c 0,97,98
 491 -224 491 -224 486.5 -242 c 128,-1,99
 482 -260 482 -260 482 -282 c 1,100,-1
 390 -282 l 1,101,-1
 342 -248 l 1,102,-1
 287 -285 l 1,103,-1
 245 -242 l 1,104,105
 225 -262 225 -262 200.5 -273.5 c 128,-1,106
 176 -285 176 -285 150 -285 c 0,107,108
 106 -285 106 -285 80.5 -261 c 128,-1,109
 55 -237 55 -237 55 -203 c 0,110,111
 55 -165 55 -165 80 -143 c 128,-1,112
 105 -121 105 -121 143 -121 c 0,113,114
 183 -121 183 -121 222 -153 c 1,115,116
 226 -129 226 -129 226 -92 c 1,117,118
 259 -92 259 -92 274 -99.5 c 128,-1,119
 289 -107 289 -107 289 -128 c 0,120,121
 289 -168 289 -168 272 -202 c 1,122,-1
 293 -223 l 1,123,-1
 341 -196 l 1,124,-1
 408 -233 l 1,125,126
 409 -221 409 -221 413 -211.5 c 128,-1,127
 417 -202 417 -202 421.5 -193.5 c 128,-1,128
 426 -185 426 -185 428 -182 c 0,129,130
 437 -167 437 -167 442 -155.5 c 128,-1,131
 447 -144 447 -144 447 -131 c 0,132,133
 447 -115 447 -115 438.5 -106 c 128,-1,134
 430 -97 430 -97 416 -97 c 0,135,136
 401 -97 401 -97 392.5 -105 c 128,-1,137
 384 -113 384 -113 384 -126 c 0,138,139
 384 -140 384 -140 392.5 -149.5 c 128,-1,140
 401 -159 401 -159 417 -162 c 1,141,142
 416 -169 416 -169 409 -173.5 c 128,-1,143
 402 -178 402 -178 389 -178 c 0,144,145
 368 -178 368 -178 353.5 -163 c 128,-1,146
 339 -148 339 -148 339 -125 c 0,147,148
 339 -91 339 -91 363 -71 c 128,-1,149
 387 -51 387 -51 424 -51 c 0,150,92
 466 -51 466 -51 490 -73.5 c 128,-1,93
206 -202 m 1,152,153
 173 -171 173 -171 151 -171 c 0,154,155
 136 -171 136 -171 125.5 -179 c 128,-1,156
 115 -187 115 -187 115 -201 c 0,157,158
 115 -217 115 -217 125.5 -225.5 c 128,-1,159
 136 -234 136 -234 153 -234 c 0,160,151
 187 -234 187 -234 206 -202 c 1,152,153
EndSplineSet
Substitution2: "Single Substitution lookup 14 subtable" thoThanthai.less
Substitution2: "'aalt' Access All Alternates lookup 0 subtable" thoThanthai.less
EndChar

StartChar: thoThanthai.less
Encoding: 65542 -1 451
Width: 578
GlyphClass: 2
Flags: W
AnchorPoint: "Anchor-12" 519 550 basechar 0
AnchorPoint: "Anchor-11" 487 0 basechar 0
LayerCount: 2
Fore
SplineSet
285 -0.5 m 128,-1,1
 252 8 252 8 251 19 c 0,2,3
 249 118 249 118 241 178 c 0,4,5
 236 208 236 208 226 220 c 128,-1,6
 216 232 216 232 196 232 c 0,7,8
 179 232 179 232 168 221.5 c 128,-1,9
 157 211 157 211 157 195 c 0,10,11
 157 178 157 178 167 168 c 128,-1,12
 177 158 177 158 195 158 c 0,13,14
 212 158 212 158 225 167 c 1,15,16
 230 160 230 160 230 154 c 0,17,18
 230 139 230 139 216 128.5 c 128,-1,19
 202 118 202 118 176 118 c 0,20,21
 142 118 142 118 120.5 139.5 c 128,-1,22
 99 161 99 161 99 197 c 0,23,24
 99 236 99 236 127 261 c 128,-1,25
 155 286 155 286 198 286 c 0,26,27
 247 286 247 286 275.5 262 c 128,-1,28
 304 238 304 238 311 192 c 0,29,30
 321 127 321 127 323 61 c 0,31,32
 323 56 323 56 333 53 c 128,-1,33
 343 50 343 50 359 50 c 256,34,35
 375 50 375 50 384 53.5 c 128,-1,36
 393 57 393 57 394 62 c 0,37,38
 414 184 414 184 414 237 c 0,39,40
 414 289 414 289 386.5 314.5 c 128,-1,41
 359 340 359 340 294 341 c 0,42,43
 278 342 278 342 243 342 c 0,44,45
 225 342 225 342 132 339 c 2,46,-1
 102 338 l 1,47,48
 86 356 86 356 75.5 382.5 c 128,-1,49
 65 409 65 409 65 440 c 0,50,51
 65 504 65 504 107.5 543.5 c 128,-1,52
 150 583 150 583 216 583 c 0,53,54
 260 583 260 583 328 571 c 0,55,56
 377 562 377 562 401 562 c 0,57,58
 477 562 477 562 514 589 c 1,59,60
 523 578 523 578 529.5 563.5 c 128,-1,61
 536 549 536 549 536 535 c 0,62,63
 536 507 536 507 505.5 492.5 c 128,-1,64
 475 478 475 478 427 478 c 0,65,66
 392 478 392 478 330 495 c 0,67,68
 325 496 325 496 302.5 501.5 c 128,-1,69
 280 507 280 507 260.5 509.5 c 128,-1,70
 241 512 241 512 225 512 c 0,71,72
 155 512 155 512 155 446 c 0,73,74
 155 421 155 421 164 408 c 1,75,76
 181 408 181 408 193 409 c 2,77,-1
 253 410 l 2,78,79
 309 410 309 410 350 405 c 0,80,81
 425 399 425 399 465.5 359 c 128,-1,82
 506 319 506 319 506 245 c 0,83,84
 506 216 506 216 501.5 185 c 128,-1,85
 497 154 497 154 488 104 c 0,86,87
 478 48 478 48 474 19 c 0,88,89
 473 7 473 7 440 -1 c 128,-1,90
 407 -9 407 -9 363 -9 c 0,91,0
 318 -9 318 -9 285 -0.5 c 128,-1,1
EndSplineSet
EndChar

StartChar: uni0E11
Encoding: 3601 3601 452
Width: 663
GlyphClass: 2
Flags: W
AnchorPoint: "Anchor-12" 593 550 basechar 0
AnchorPoint: "Anchor-11" 593 0 basechar 0
LayerCount: 2
Fore
SplineSet
558 542 m 128,-1,1
 593 504 593 504 593 438 c 2,2,-1
 593 0 l 1,3,-1
 502 0 l 1,4,-1
 502 421 l 2,5,6
 502 469 502 469 489.5 487.5 c 128,-1,7
 477 506 477 506 448 506 c 0,8,9
 425 506 425 506 405.5 494.5 c 128,-1,10
 386 483 386 483 360.5 452.5 c 128,-1,11
 335 422 335 422 288 358 c 0,12,13
 259 319 259 319 244.5 285.5 c 128,-1,14
 230 252 230 252 230 212 c 2,15,-1
 229 0 l 1,16,-1
 153 0 l 2,17,18
 133 0 133 0 133 20 c 0,19,20
 133 24 133 24 135 44 c 0,21,22
 138 86 138 86 138 106 c 2,23,-1
 138 219 l 2,24,25
 138 254 138 254 148.5 282.5 c 128,-1,26
 159 311 159 311 172.5 331 c 128,-1,27
 186 351 186 351 214 386 c 0,28,29
 257 442 257 442 257 479 c 0,30,31
 257 497 257 497 248 507.5 c 128,-1,32
 239 518 239 518 225 518 c 0,33,34
 200 518 200 518 177 480 c 1,35,36
 164 502 164 502 152.5 511 c 128,-1,37
 141 520 141 520 122 520 c 0,38,39
 104 520 104 520 92 508.5 c 128,-1,40
 80 497 80 497 80 476 c 256,41,42
 80 455 80 455 92 443.5 c 128,-1,43
 104 432 104 432 122 432 c 0,44,45
 151 432 151 432 169 463 c 1,46,47
 185 452 185 452 185 438 c 0,48,49
 185 416 185 416 165 399 c 128,-1,50
 145 382 145 382 115 382 c 0,51,52
 74 382 74 382 47 408 c 128,-1,53
 20 434 20 434 20 478 c 0,54,55
 20 525 20 525 46.5 552.5 c 128,-1,56
 73 580 73 580 111 580 c 0,57,58
 137 580 137 580 153 570.5 c 128,-1,59
 169 561 169 561 181 541 c 1,60,61
 205 580 205 580 254 580 c 0,62,63
 282 580 282 580 302.5 563.5 c 128,-1,64
 323 547 323 547 331 517 c 1,65,66
 356 546 356 546 389 563 c 128,-1,67
 422 580 422 580 461 580 c 0,68,0
 523 580 523 580 558 542 c 128,-1,1
EndSplineSet
EndChar

StartChar: uni0E12
Encoding: 3602 3602 453
Width: 947
GlyphClass: 2
Flags: W
AnchorPoint: "Anchor-12" 861 550 basechar 0
AnchorPoint: "Anchor-11" 861 0 basechar 0
LayerCount: 2
Fore
SplineSet
863 54.5 m 128,-1,1
 865 28 865 28 865 20 c 0,2,3
 865 0 865 0 846 0 c 2,4,-1
 771 0 l 1,5,6
 706 148 706 148 576 170 c 1,7,-1
 576 114 l 2,8,9
 576 -9 576 -9 476 -9 c 0,10,11
 431 -9 431 -9 402.5 20.5 c 128,-1,12
 374 50 374 50 374 101 c 256,13,14
 374 152 374 152 403.5 186 c 128,-1,15
 433 220 433 220 484 231 c 1,16,-1
 484 370 l 2,17,18
 484 431 484 431 467.5 462.5 c 128,-1,19
 451 494 451 494 410 509 c 1,20,21
 390 492 390 492 363 475 c 128,-1,22
 336 458 336 458 328 453 c 1,23,24
 321 457 321 457 291.5 474.5 c 128,-1,25
 262 492 262 492 242 509 c 1,26,27
 152 469 152 469 152 337 c 0,28,29
 152 278 152 278 167.5 237.5 c 128,-1,30
 183 197 183 197 211 167 c 1,31,32
 233 189 233 189 284 225 c 2,33,-1
 311 245 l 2,34,35
 353 276 353 276 353 310 c 0,36,37
 353 332 353 332 342 343 c 128,-1,38
 331 354 331 354 312 354 c 0,39,40
 292 354 292 354 280.5 343.5 c 128,-1,41
 269 333 269 333 269 314 c 0,42,43
 269 299 269 299 275.5 287.5 c 128,-1,44
 282 276 282 276 297 264 c 1,45,46
 291 257 291 257 284 254 c 128,-1,47
 277 251 277 251 266 251 c 0,48,49
 244 251 244 251 229 270.5 c 128,-1,50
 214 290 214 290 214 317 c 0,51,52
 214 357 214 357 242 382.5 c 128,-1,53
 270 408 270 408 314 408 c 0,54,55
 360 408 360 408 387 381.5 c 128,-1,56
 414 355 414 355 414 318 c 0,57,58
 414 289 414 289 405.5 269.5 c 128,-1,59
 397 250 397 250 382 235.5 c 128,-1,60
 367 221 367 221 336 195 c 0,61,62
 290 159 290 159 265.5 134.5 c 128,-1,63
 241 110 241 110 224.5 77 c 128,-1,64
 208 44 208 44 208 0 c 1,65,-1
 124 0 l 2,66,67
 119 0 119 0 116 2 c 128,-1,68
 113 4 113 4 113 11 c 0,69,70
 113 32 113 32 120 49.5 c 128,-1,71
 127 67 127 67 139 86 c 256,72,73
 151 105 151 105 151 112 c 0,74,75
 151 117 151 117 136 134 c 0,76,77
 104 172 104 172 81 218 c 128,-1,78
 58 264 58 264 58 339 c 0,79,80
 58 433 58 433 104.5 495 c 128,-1,81
 151 557 151 557 241 586 c 1,82,83
 291 558 291 558 328 524 c 1,84,85
 365 558 365 558 411 586 c 1,86,87
 501 562 501 562 538 511.5 c 128,-1,88
 575 461 575 461 575 370 c 2,89,-1
 575 232 l 1,90,91
 631 224 631 224 681 196.5 c 128,-1,92
 731 169 731 169 769 125 c 1,93,-1
 769 576 l 1,94,-1
 861 576 l 1,95,-1
 861 130 l 2,96,0
 861 81 861 81 863 54.5 c 128,-1,1
482.5 65 m 128,-1,98
 488 80 488 80 488 116 c 0,99,100
 488 134 488 134 486 170 c 1,101,102
 430 158 430 158 430 104 c 0,103,104
 430 78 430 78 439 64 c 128,-1,105
 448 50 448 50 464 50 c 0,106,97
 477 50 477 50 482.5 65 c 128,-1,98
EndSplineSet
EndChar

StartChar: uni0E13
Encoding: 3603 3603 454
Width: 938
GlyphClass: 2
Flags: W
AnchorPoint: "Anchor-12" 867 550 basechar 0
AnchorPoint: "Anchor-11" 867 0 basechar 0
LayerCount: 2
Fore
SplineSet
898.5 181 m 128,-1,1
 918 151 918 151 918 111 c 0,2,3
 918 57 918 57 884 26.5 c 128,-1,4
 850 -4 850 -4 799 -4 c 0,5,6
 750 -4 750 -4 718 26 c 128,-1,7
 686 56 686 56 686 109 c 0,8,9
 686 136 686 136 695.5 155.5 c 128,-1,10
 705 175 705 175 722 196 c 1,11,12
 676 196 676 196 634.5 168 c 128,-1,13
 593 140 593 140 568 94.5 c 128,-1,14
 543 49 543 49 543 0 c 1,15,-1
 462 0 l 2,16,17
 454 0 454 0 450.5 4 c 128,-1,18
 447 8 447 8 449 20 c 0,19,20
 453 48 453 48 453 120 c 2,21,-1
 452 383 l 2,22,23
 452 451 452 451 413 486 c 128,-1,24
 374 521 374 521 298 521 c 0,25,26
 251 521 251 521 214 507.5 c 128,-1,27
 177 494 177 494 156.5 475 c 128,-1,28
 136 456 136 456 136 441 c 0,29,30
 136 428 136 428 148 416.5 c 128,-1,31
 160 405 160 405 176.5 398 c 128,-1,32
 193 391 193 391 203 391 c 0,33,34
 217 391 217 391 239 401 c 0,35,36
 242 402 242 402 250 405 c 128,-1,37
 258 408 258 408 264 408 c 0,38,39
 273 408 273 408 285 387 c 128,-1,40
 297 366 297 366 297 353 c 0,41,42
 297 345 297 345 291 345 c 0,43,44
 229 345 229 345 201.5 314 c 128,-1,45
 174 283 174 283 174 221 c 2,46,-1
 174 114 l 2,47,48
 174 82 174 82 187.5 65 c 128,-1,49
 201 48 201 48 225 48 c 0,50,51
 248 48 248 48 259.5 60 c 128,-1,52
 271 72 271 72 271 93 c 0,53,54
 271 113 271 113 259.5 124 c 128,-1,55
 248 135 248 135 227 135 c 0,56,57
 222 135 222 135 194 130 c 1,58,59
 191 138 191 138 191 144 c 0,60,61
 191 160 191 160 204 170.5 c 128,-1,62
 217 181 217 181 240 181 c 0,63,64
 278 181 278 181 302 158.5 c 128,-1,65
 326 136 326 136 326 94 c 0,66,67
 326 49 326 49 295 21 c 128,-1,68
 264 -7 264 -7 212 -7 c 0,69,70
 154 -7 154 -7 118 27 c 128,-1,71
 82 61 82 61 82 120 c 2,72,-1
 82 221 l 2,73,74
 82 302 82 302 136 349 c 1,75,76
 104 362 104 362 77 386.5 c 128,-1,77
 50 411 50 411 50 438 c 0,78,79
 50 471 50 471 80.5 505.5 c 128,-1,80
 111 540 111 540 167.5 563 c 128,-1,81
 224 586 224 586 298 586 c 0,82,83
 412 586 412 586 477.5 535 c 128,-1,84
 543 484 543 484 543 383 c 2,85,-1
 543 158 l 1,86,87
 576 204 576 204 625 229 c 128,-1,88
 674 254 674 254 732 254 c 0,89,90
 745 254 745 254 767 252 c 1,91,92
 775 270 775 270 775 290 c 2,93,-1
 775 576 l 1,94,-1
 867 576 l 1,95,-1
 867 295 l 2,96,97
 867 274 867 274 861.5 258.5 c 128,-1,98
 856 243 856 243 844 229 c 1,99,0
 879 211 879 211 898.5 181 c 128,-1,1
840 69.5 m 128,-1,101
 854 85 854 85 854 113 c 0,102,103
 854 164 854 164 797 185 c 1,104,105
 772 164 772 164 760.5 149 c 128,-1,106
 749 134 749 134 749 112 c 0,107,108
 749 86 749 86 763 70 c 128,-1,109
 777 54 777 54 801 54 c 0,110,100
 826 54 826 54 840 69.5 c 128,-1,101
EndSplineSet
EndChar

StartChar: uni0E14
Encoding: 3604 3604 455
Width: 632
GlyphClass: 2
Flags: W
AnchorPoint: "Anchor-12" 562 550 basechar 0
AnchorPoint: "Anchor-11" 562 0 basechar 0
LayerCount: 2
Fore
SplineSet
499 522 m 128,-1,1
 562 458 562 458 562 347 c 2,2,-1
 562 0 l 1,3,-1
 470 0 l 1,4,-1
 470 342 l 2,5,6
 470 431 470 431 432.5 476 c 128,-1,7
 395 521 395 521 316 521 c 256,8,9
 237 521 237 521 193.5 475 c 128,-1,10
 150 429 150 429 150 349 c 0,11,12
 150 245 150 245 207 168 c 1,13,14
 226 187 226 187 282 223 c 2,15,-1
 307 240 l 2,16,17
 350 271 350 271 350 307 c 0,18,19
 350 330 350 330 338.5 341.5 c 128,-1,20
 327 353 327 353 308 353 c 0,21,22
 287 353 287 353 275 342 c 128,-1,23
 263 331 263 331 263 312 c 0,24,25
 263 296 263 296 270.5 283.5 c 128,-1,26
 278 271 278 271 295 260 c 1,27,28
 287 252 287 252 281.5 249 c 128,-1,29
 276 246 276 246 265 246 c 0,30,31
 241 246 241 246 225 266 c 128,-1,32
 209 286 209 286 209 313 c 0,33,34
 209 354 209 354 236.5 379.5 c 128,-1,35
 264 405 264 405 309 405 c 256,36,37
 354 405 354 405 381 377 c 128,-1,38
 408 349 408 349 408 313 c 0,39,40
 408 272 408 272 391 247 c 128,-1,41
 374 222 374 222 333 193 c 0,42,43
 282 157 282 157 255 133.5 c 128,-1,44
 228 110 228 110 210 77.5 c 128,-1,45
 192 45 192 45 192 0 c 1,46,-1
 109 0 l 2,47,48
 104 0 104 0 101 2 c 128,-1,49
 98 4 98 4 98 11 c 0,50,51
 98 33 98 33 105.5 52 c 128,-1,52
 113 71 113 71 126 92 c 0,53,54
 138 111 138 111 138 118 c 0,55,56
 138 128 138 128 119 159 c 0,57,58
 92 205 92 205 75 250 c 128,-1,59
 58 295 58 295 58 354 c 0,60,61
 58 421 58 421 91 473.5 c 128,-1,62
 124 526 124 526 182.5 556 c 128,-1,63
 241 586 241 586 316 586 c 0,64,0
 436 586 436 586 499 522 c 128,-1,1
EndSplineSet
EndChar

StartChar: uni0E15
Encoding: 3605 3605 456
Width: 640
GlyphClass: 2
Flags: W
AnchorPoint: "Anchor-12" 570 550 basechar 0
AnchorPoint: "Anchor-11" 570 0 basechar 0
LayerCount: 2
Fore
SplineSet
532 513.5 m 128,-1,1
 570 462 570 462 570 370 c 2,2,-1
 570 0 l 1,3,-1
 478 0 l 1,4,-1
 478 370 l 2,5,6
 478 432 478 432 461 464.5 c 128,-1,7
 444 497 444 497 403 509 c 1,8,9
 373 484 373 484 325 453 c 1,10,11
 276 483 276 483 244 509 c 1,12,13
 200 491 200 491 176 447 c 128,-1,14
 152 403 152 403 152 337 c 0,15,16
 152 280 152 280 169.5 240 c 128,-1,17
 187 200 187 200 217 168 c 1,18,19
 240 190 240 190 285 216 c 2,20,-1
 313 235 l 2,21,22
 336 251 336 251 346.5 267 c 128,-1,23
 357 283 357 283 357 302 c 0,24,25
 357 323 357 323 345 335 c 128,-1,26
 333 347 333 347 314 347 c 0,27,28
 294 347 294 347 282 336 c 128,-1,29
 270 325 270 325 270 306 c 0,30,31
 270 290 270 290 278 278 c 128,-1,32
 286 266 286 266 302 254 c 1,33,34
 294 246 294 246 288.5 243 c 128,-1,35
 283 240 283 240 272 240 c 0,36,37
 248 240 248 240 232.5 259.5 c 128,-1,38
 217 279 217 279 217 307 c 0,39,40
 217 348 217 348 243.5 373.5 c 128,-1,41
 270 399 270 399 315 399 c 0,42,43
 361 399 361 399 388 372 c 128,-1,44
 415 345 415 345 415 307 c 0,45,46
 415 266 415 266 398.5 241.5 c 128,-1,47
 382 217 382 217 341 188 c 0,48,49
 290 153 290 153 264 131 c 128,-1,50
 238 109 238 109 221.5 77 c 128,-1,51
 205 45 205 45 205 0 c 1,52,-1
 121 0 l 2,53,54
 116 0 116 0 113 2 c 128,-1,55
 110 4 110 4 110 11 c 0,56,57
 110 30 110 30 116.5 47 c 128,-1,58
 123 64 123 64 134 84 c 0,59,60
 148 109 148 109 148 119 c 0,61,62
 148 125 148 125 132 144 c 0,63,64
 101 182 101 182 79.5 226.5 c 128,-1,65
 58 271 58 271 58 335 c 0,66,67
 58 431 58 431 104 496 c 128,-1,68
 150 561 150 561 243 586 c 1,69,70
 280 565 280 565 325 524 c 1,71,72
 370 565 370 565 404 586 c 1,73,0
 494 565 494 565 532 513.5 c 128,-1,1
EndSplineSet
EndChar

StartChar: uni0E16
Encoding: 3606 3606 457
Width: 613
GlyphClass: 2
Flags: W
AnchorPoint: "Anchor-12" 543 550 basechar 0
AnchorPoint: "Anchor-11" 543 0 basechar 0
LayerCount: 2
Fore
SplineSet
474.5 534 m 128,-1,1
 543 482 543 482 543 383 c 2,2,-1
 543 0 l 1,3,-1
 452 0 l 1,4,-1
 452 383 l 2,5,6
 452 451 452 451 412 486 c 128,-1,7
 372 521 372 521 296 521 c 0,8,9
 252 521 252 521 215 507.5 c 128,-1,10
 178 494 178 494 157 475 c 128,-1,11
 136 456 136 456 136 441 c 0,12,13
 136 422 136 422 157.5 406.5 c 128,-1,14
 179 391 179 391 196 391 c 0,15,16
 206 391 206 391 229 398 c 0,17,18
 247 404 247 404 254 404 c 0,19,20
 263 404 263 404 275 383.5 c 128,-1,21
 287 363 287 363 287 350 c 0,22,23
 287 342 287 342 281 342 c 0,24,25
 220 342 220 342 197 313.5 c 128,-1,26
 174 285 174 285 174 221 c 2,27,-1
 174 114 l 2,28,29
 174 82 174 82 187.5 65 c 128,-1,30
 201 48 201 48 225 48 c 0,31,32
 248 48 248 48 259.5 60 c 128,-1,33
 271 72 271 72 271 93 c 0,34,35
 271 113 271 113 259.5 124 c 128,-1,36
 248 135 248 135 227 135 c 0,37,38
 222 135 222 135 194 130 c 1,39,40
 191 138 191 138 191 144 c 0,41,42
 191 160 191 160 204 170.5 c 128,-1,43
 217 181 217 181 240 181 c 0,44,45
 279 181 279 181 302.5 159 c 128,-1,46
 326 137 326 137 326 94 c 0,47,48
 326 49 326 49 295 21 c 128,-1,49
 264 -7 264 -7 212 -7 c 0,50,51
 154 -7 154 -7 118 27 c 128,-1,52
 82 61 82 61 82 120 c 2,53,-1
 82 221 l 2,54,55
 82 305 82 305 131 349 c 1,56,57
 101 361 101 361 75.5 386 c 128,-1,58
 50 411 50 411 50 438 c 0,59,60
 50 470 50 470 80.5 505 c 128,-1,61
 111 540 111 540 167.5 563 c 128,-1,62
 224 586 224 586 296 586 c 0,63,0
 406 586 406 586 474.5 534 c 128,-1,1
EndSplineSet
EndChar

StartChar: uni0E17
Encoding: 3607 3607 458
Width: 682
GlyphClass: 2
Flags: W
AnchorPoint: "Anchor-12" 612 550 basechar 0
AnchorPoint: "Anchor-11" 612 0 basechar 0
LayerCount: 2
Fore
SplineSet
580.5 553.5 m 128,-1,1
 612 521 612 521 612 459 c 2,2,-1
 612 0 l 1,3,-1
 520 0 l 1,4,-1
 520 435 l 2,5,6
 520 471 520 471 508.5 487 c 128,-1,7
 497 503 497 503 473 503 c 0,8,9
 442 503 442 503 416.5 475 c 128,-1,10
 391 447 391 447 362 387 c 0,11,12
 308 271 308 271 285.5 191.5 c 128,-1,13
 263 112 263 112 261 42 c 2,14,-1
 260 0 l 1,15,-1
 179 0 l 2,16,17
 171 0 171 0 167.5 4 c 128,-1,18
 164 8 164 8 164 18 c 0,19,20
 164 25 164 25 166.5 51.5 c 128,-1,21
 169 78 169 78 169 112 c 2,22,-1
 169 483 l 2,23,24
 169 504 169 504 158.5 517.5 c 128,-1,25
 148 531 148 531 127 531 c 256,26,27
 106 531 106 531 95 519.5 c 128,-1,28
 84 508 84 508 84 488 c 0,29,30
 84 467 84 467 97 454.5 c 128,-1,31
 110 442 110 442 130 442 c 2,32,-1
 153 442 l 1,33,34
 153 399 153 399 110 399 c 0,35,36
 77 399 77 399 53.5 423 c 128,-1,37
 30 447 30 447 30 488 c 0,38,39
 30 530 30 530 60.5 558 c 128,-1,40
 91 586 91 586 139 586 c 0,41,42
 194 586 194 586 228 555.5 c 128,-1,43
 262 525 262 525 262 469 c 2,44,-1
 261 293 l 1,45,46
 289 374 289 374 322 442 c 0,47,48
 354 511 354 511 395.5 548.5 c 128,-1,49
 437 586 437 586 496 586 c 0,50,0
 549 586 549 586 580.5 553.5 c 128,-1,1
EndSplineSet
EndChar

StartChar: uni0E18
Encoding: 3608 3608 459
Width: 590
GlyphClass: 2
Flags: W
AnchorPoint: "Anchor-12" 503 550 basechar 0
AnchorPoint: "Anchor-11" 484 0 basechar 0
LayerCount: 2
Fore
SplineSet
175.5 5.5 m 128,-1,1
 132 20 132 20 111 54.5 c 128,-1,2
 90 89 90 89 90 150 c 2,3,-1
 90 264 l 1,4,5
 112 270 112 270 137 270 c 0,6,7
 158 270 158 270 170 262.5 c 128,-1,8
 182 255 182 255 182 241 c 2,9,-1
 182 154 l 2,10,11
 182 117 182 117 189.5 97.5 c 128,-1,12
 197 78 197 78 220.5 68 c 128,-1,13
 244 58 244 58 293 58 c 0,14,15
 343 58 343 58 369.5 67 c 128,-1,16
 396 76 396 76 406.5 94.5 c 128,-1,17
 417 113 417 113 417 146 c 2,18,-1
 417 221 l 2,19,20
 417 266 417 266 399 285.5 c 128,-1,21
 381 305 381 305 338 314 c 0,22,23
 271 328 271 328 139 328 c 2,24,-1
 93 327 l 1,25,26
 77 343 77 343 66 377.5 c 128,-1,27
 55 412 55 412 55 443 c 0,28,29
 55 506 55 506 102 544 c 128,-1,30
 149 582 149 582 218 582 c 0,31,32
 254 582 254 582 322 574 c 0,33,34
 382 568 382 568 401 568 c 0,35,36
 472 568 472 568 510 595 c 1,37,38
 517 585 517 585 522 569.5 c 128,-1,39
 527 554 527 554 527 539 c 0,40,41
 527 512 527 512 501 498 c 128,-1,42
 475 484 475 484 431 484 c 0,43,44
 408 484 408 484 379 488.5 c 128,-1,45
 350 493 350 493 323 499 c 0,46,47
 298 504 298 504 272 508.5 c 128,-1,48
 246 513 246 513 226 513 c 0,49,50
 184 513 184 513 163.5 495 c 128,-1,51
 143 477 143 477 143 445 c 0,52,53
 143 412 143 412 154 395 c 1,54,-1
 174 395 l 2,55,56
 321 392 321 392 384 377 c 0,57,58
 445 362 445 362 477 327.5 c 128,-1,59
 509 293 509 293 509 223 c 2,60,-1
 509 150 l 2,61,62
 509 88 509 88 485.5 53.5 c 128,-1,63
 462 19 462 19 415 5 c 128,-1,64
 368 -9 368 -9 293 -9 c 0,65,0
 219 -9 219 -9 175.5 5.5 c 128,-1,1
EndSplineSet
EndChar

StartChar: uni0E19
Encoding: 3609 3609 460
Width: 654
GlyphClass: 2
Flags: W
AnchorPoint: "Anchor-12" 580 550 basechar 0
AnchorPoint: "Anchor-11" 580 0 basechar 0
LayerCount: 2
Fore
SplineSet
632 107 m 0,1,2
 632 57 632 57 598 26.5 c 128,-1,3
 564 -4 564 -4 513 -4 c 256,4,5
 462 -4 462 -4 430 26.5 c 128,-1,6
 398 57 398 57 398 106 c 0,7,8
 398 152 398 152 429 188 c 1,9,10
 384 186 384 186 340 159.5 c 128,-1,11
 296 133 296 133 268.5 90.5 c 128,-1,12
 241 48 241 48 241 0 c 1,13,-1
 166 0 l 2,14,15
 146 0 146 0 146 20 c 0,16,17
 146 31 146 31 147 40 c 0,18,19
 150 91 150 91 150 113 c 2,20,-1
 149 483 l 2,21,22
 149 504 149 504 138.5 517.5 c 128,-1,23
 128 531 128 531 107 531 c 256,24,25
 86 531 86 531 75 519.5 c 128,-1,26
 64 508 64 508 64 488 c 0,27,28
 64 467 64 467 77 454.5 c 128,-1,29
 90 442 90 442 110 442 c 2,30,-1
 133 442 l 1,31,32
 133 399 133 399 90 399 c 0,33,34
 57 399 57 399 33.5 423 c 128,-1,35
 10 447 10 447 10 488 c 0,36,37
 10 530 10 530 40.5 558 c 128,-1,38
 71 586 71 586 119 586 c 0,39,40
 174 586 174 586 208 555.5 c 128,-1,41
 242 525 242 525 242 469 c 2,42,-1
 241 149 l 1,43,44
 276 196 276 196 329.5 221.5 c 128,-1,45
 383 247 383 247 443 247 c 0,46,47
 456 247 456 247 480 245 c 1,48,49
 489 262 489 262 489 283 c 2,50,-1
 489 576 l 1,51,-1
 580 576 l 1,52,-1
 580 284 l 2,53,54
 580 251 580 251 559 225 c 1,55,0
 632 190 632 190 632 107 c 0,1,2
553.5 68.5 m 128,-1,57
 568 83 568 83 568 110 c 0,58,59
 568 136 568 136 552 153 c 128,-1,60
 536 170 536 170 507 179 c 1,61,62
 485 161 485 161 473.5 146 c 128,-1,63
 462 131 462 131 462 110 c 0,64,65
 462 85 462 85 476.5 69.5 c 128,-1,66
 491 54 491 54 515 54 c 256,67,56
 539 54 539 54 553.5 68.5 c 128,-1,57
EndSplineSet
EndChar

StartChar: uni0E1A
Encoding: 3610 3610 461
Width: 678
GlyphClass: 2
Flags: W
AnchorPoint: "Anchor-12" 605 550 basechar 0
AnchorPoint: "Anchor-11" 605 0 basechar 0
LayerCount: 2
Fore
SplineSet
261 4.5 m 128,-1,1
 206 18 206 18 179 50 c 0,2,3
 162 71 162 71 155.5 104 c 128,-1,4
 149 137 149 137 149 187 c 2,5,-1
 149 483 l 2,6,7
 149 504 149 504 138.5 517.5 c 128,-1,8
 128 531 128 531 107 531 c 256,9,10
 86 531 86 531 75 519.5 c 128,-1,11
 64 508 64 508 64 488 c 0,12,13
 64 467 64 467 77 454.5 c 128,-1,14
 90 442 90 442 110 442 c 2,15,-1
 133 442 l 1,16,17
 133 399 133 399 90 399 c 0,18,19
 57 399 57 399 33.5 423 c 128,-1,20
 10 447 10 447 10 488 c 0,21,22
 10 530 10 530 40.5 558 c 128,-1,23
 71 586 71 586 119 586 c 0,24,25
 174 586 174 586 208 555.5 c 128,-1,26
 242 525 242 525 242 469 c 2,27,-1
 241 180 l 2,28,29
 241 106 241 106 259 88 c 0,30,31
 291 56 291 56 379 56 c 0,32,33
 468 56 468 56 497 88 c 0,34,35
 508 100 508 100 510.5 117.5 c 128,-1,36
 513 135 513 135 513 169 c 2,37,-1
 513 576 l 1,38,-1
 605 576 l 1,39,-1
 605 190 l 2,40,41
 605 132 605 132 598.5 102 c 128,-1,42
 592 72 592 72 573 50 c 0,43,44
 544 18 544 18 490.5 4.5 c 128,-1,45
 437 -9 437 -9 379 -9 c 0,46,0
 316 -9 316 -9 261 4.5 c 128,-1,1
EndSplineSet
EndChar

StartChar: uni0E1B
Encoding: 3611 3611 462
Width: 678
GlyphClass: 2
Flags: W
AnchorPoint: "Anchor-12" 453 550 basechar 0
AnchorPoint: "Anchor-11" 605 0 basechar 0
LayerCount: 2
Fore
SplineSet
261 4.5 m 128,-1,1
 206 18 206 18 179 50 c 0,2,3
 162 71 162 71 155.5 104 c 128,-1,4
 149 137 149 137 149 187 c 2,5,-1
 149 483 l 2,6,7
 149 504 149 504 138.5 517.5 c 128,-1,8
 128 531 128 531 107 531 c 256,9,10
 86 531 86 531 75 519.5 c 128,-1,11
 64 508 64 508 64 488 c 0,12,13
 64 467 64 467 77 454.5 c 128,-1,14
 90 442 90 442 110 442 c 2,15,-1
 133 442 l 1,16,17
 133 399 133 399 90 399 c 0,18,19
 57 399 57 399 33.5 423 c 128,-1,20
 10 447 10 447 10 488 c 0,21,22
 10 530 10 530 40.5 558 c 128,-1,23
 71 586 71 586 119 586 c 0,24,25
 174 586 174 586 208 555.5 c 128,-1,26
 242 525 242 525 242 469 c 2,27,-1
 241 180 l 2,28,29
 241 106 241 106 259 88 c 0,30,31
 291 56 291 56 379 56 c 0,32,33
 468 56 468 56 497 88 c 0,34,35
 508 100 508 100 510.5 117.5 c 128,-1,36
 513 135 513 135 513 169 c 2,37,-1
 513 783 l 1,38,-1
 605 783 l 1,39,-1
 605 190 l 2,40,41
 605 132 605 132 598.5 102 c 128,-1,42
 592 72 592 72 573 50 c 0,43,44
 544 18 544 18 490.5 4.5 c 128,-1,45
 437 -9 437 -9 379 -9 c 0,46,0
 316 -9 316 -9 261 4.5 c 128,-1,1
EndSplineSet
EndChar

StartChar: uni0E1C
Encoding: 3612 3612 463
Width: 637
GlyphClass: 2
Flags: W
AnchorPoint: "Anchor-12" 560 550 basechar 0
AnchorPoint: "Anchor-11" 560 0 basechar 0
LayerCount: 2
Fore
SplineSet
563 49 m 2,1,-1
 564 22 l 2,2,3
 564 9 564 9 560.5 4.5 c 128,-1,4
 557 0 557 0 549 0 c 2,5,-1
 471 0 l 1,6,-1
 471 14 l 2,7,8
 471 62 471 62 428 122.5 c 128,-1,9
 385 183 385 183 319 239 c 1,10,11
 250 184 250 184 203.5 123 c 128,-1,12
 157 62 157 62 157 14 c 2,13,-1
 157 0 l 1,14,-1
 76 0 l 2,15,16
 61 0 61 0 61 11 c 0,17,18
 61 23 61 23 64 47 c 0,19,20
 69 110 69 110 69 135 c 2,21,-1
 69 452 l 2,22,23
 69 514 69 514 106.5 550 c 128,-1,24
 144 586 144 586 202 586 c 0,25,26
 254 586 254 586 285.5 557.5 c 128,-1,27
 317 529 317 529 317 483 c 0,28,29
 317 441 317 441 292 418.5 c 128,-1,30
 267 396 267 396 229 396 c 0,31,32
 204 396 204 396 191 406 c 128,-1,33
 178 416 178 416 178 432 c 0,34,35
 178 439 178 439 181 446 c 1,36,37
 206 441 206 441 215 441 c 0,38,39
 235 441 235 441 247 452.5 c 128,-1,40
 259 464 259 464 259 484 c 256,41,42
 259 504 259 504 247.5 515.5 c 128,-1,43
 236 527 236 527 213 527 c 0,44,45
 189 527 189 527 174.5 510 c 128,-1,46
 160 493 160 493 160 462 c 2,47,-1
 161 161 l 1,48,49
 184 200 184 200 225 241 c 128,-1,50
 266 282 266 282 314 319 c 1,51,-1
 323 319 l 1,52,53
 369 286 369 286 407 245.5 c 128,-1,54
 445 205 445 205 468 164 c 1,55,-1
 468 576 l 1,56,-1
 560 576 l 1,57,-1
 560 132 l 2,58,0
 560 94 560 94 563 49 c 2,1,-1
EndSplineSet
EndChar

StartChar: uni0E1D
Encoding: 3613 3613 464
Width: 637
GlyphClass: 2
Flags: W
AnchorPoint: "Anchor-12" 412 550 basechar 0
AnchorPoint: "Anchor-11" 560 0 basechar 0
LayerCount: 2
Fore
SplineSet
563 49 m 2,1,-1
 564 22 l 2,2,3
 564 9 564 9 560.5 4.5 c 128,-1,4
 557 0 557 0 549 0 c 2,5,-1
 471 0 l 1,6,-1
 471 14 l 2,7,8
 471 62 471 62 428 122.5 c 128,-1,9
 385 183 385 183 319 239 c 1,10,11
 250 184 250 184 203.5 123 c 128,-1,12
 157 62 157 62 157 14 c 2,13,-1
 157 0 l 1,14,-1
 76 0 l 2,15,16
 61 0 61 0 61 11 c 0,17,18
 61 23 61 23 64 47 c 0,19,20
 69 110 69 110 69 135 c 2,21,-1
 69 452 l 2,22,23
 69 514 69 514 106.5 550 c 128,-1,24
 144 586 144 586 202 586 c 0,25,26
 254 586 254 586 285.5 557.5 c 128,-1,27
 317 529 317 529 317 483 c 0,28,29
 317 441 317 441 292 418.5 c 128,-1,30
 267 396 267 396 229 396 c 0,31,32
 204 396 204 396 191 406 c 128,-1,33
 178 416 178 416 178 432 c 0,34,35
 178 439 178 439 181 446 c 1,36,37
 206 441 206 441 215 441 c 0,38,39
 235 441 235 441 247 452.5 c 128,-1,40
 259 464 259 464 259 484 c 256,41,42
 259 504 259 504 247.5 515.5 c 128,-1,43
 236 527 236 527 213 527 c 0,44,45
 189 527 189 527 174.5 510 c 128,-1,46
 160 493 160 493 160 462 c 2,47,-1
 161 161 l 1,48,49
 184 200 184 200 225 241 c 128,-1,50
 266 282 266 282 314 319 c 1,51,-1
 323 319 l 1,52,53
 369 286 369 286 407 245.5 c 128,-1,54
 445 205 445 205 468 164 c 1,55,-1
 468 783 l 1,56,-1
 560 783 l 1,57,-1
 560 132 l 2,58,0
 560 94 560 94 563 49 c 2,1,-1
EndSplineSet
EndChar

StartChar: uni0E1E
Encoding: 3614 3614 465
Width: 739
GlyphClass: 2
Flags: W
AnchorPoint: "Anchor-12" 661 550 basechar 0
AnchorPoint: "Anchor-11" 661 0 basechar 0
LayerCount: 2
Fore
SplineSet
665 14 m 2,0,1
 665 6 665 6 662 3 c 128,-1,2
 659 0 659 0 653 0 c 2,3,-1
 571 0 l 1,4,-1
 571 14 l 2,5,6
 571 70 571 70 523 179.5 c 128,-1,7
 475 289 475 289 413 399 c 1,8,9
 353 291 353 291 305 180 c 128,-1,10
 257 69 257 69 257 14 c 2,11,-1
 257 0 l 1,12,-1
 172 0 l 2,13,14
 156 0 156 0 160 20 c 0,15,16
 161 24 161 24 163.5 41 c 128,-1,17
 166 58 166 58 167.5 95 c 128,-1,18
 169 132 169 132 169 190 c 2,19,-1
 169 483 l 2,20,21
 169 504 169 504 158.5 517.5 c 128,-1,22
 148 531 148 531 127 531 c 256,23,24
 106 531 106 531 95 519.5 c 128,-1,25
 84 508 84 508 84 488 c 0,26,27
 84 467 84 467 97 454.5 c 128,-1,28
 110 442 110 442 130 442 c 2,29,-1
 153 442 l 1,30,31
 153 399 153 399 110 399 c 0,32,33
 77 399 77 399 53.5 423 c 128,-1,34
 30 447 30 447 30 488 c 0,35,36
 30 530 30 530 60.5 558 c 128,-1,37
 91 586 91 586 139 586 c 0,38,39
 194 586 194 586 228 555.5 c 128,-1,40
 262 525 262 525 262 469 c 2,41,-1
 261 231 l 1,42,43
 307 357 307 357 406 527 c 1,44,-1
 420 527 l 1,45,46
 463 460 463 460 504 378 c 128,-1,47
 545 296 545 296 569 227 c 1,48,-1
 569 576 l 1,49,-1
 661 576 l 1,50,-1
 661 190 l 2,51,52
 661 53 661 53 665 20 c 1,53,-1
 665 14 l 2,0,1
EndSplineSet
EndChar

StartChar: uni0E1F
Encoding: 3615 3615 466
Width: 739
GlyphClass: 2
Flags: W
AnchorPoint: "Anchor-12" 514 550 basechar 0
AnchorPoint: "Anchor-11" 661 0 basechar 0
LayerCount: 2
Fore
SplineSet
665 14 m 2,0,1
 665 6 665 6 662 3 c 128,-1,2
 659 0 659 0 653 0 c 2,3,-1
 571 0 l 1,4,-1
 571 14 l 2,5,6
 571 70 571 70 523 179.5 c 128,-1,7
 475 289 475 289 413 399 c 1,8,9
 353 291 353 291 305 180 c 128,-1,10
 257 69 257 69 257 14 c 2,11,-1
 257 0 l 1,12,-1
 172 0 l 2,13,14
 156 0 156 0 160 20 c 0,15,16
 161 24 161 24 163.5 41 c 128,-1,17
 166 58 166 58 167.5 95 c 128,-1,18
 169 132 169 132 169 190 c 2,19,-1
 169 483 l 2,20,21
 169 504 169 504 158.5 517.5 c 128,-1,22
 148 531 148 531 127 531 c 256,23,24
 106 531 106 531 95 519.5 c 128,-1,25
 84 508 84 508 84 488 c 0,26,27
 84 467 84 467 97 454.5 c 128,-1,28
 110 442 110 442 130 442 c 2,29,-1
 153 442 l 1,30,31
 153 399 153 399 110 399 c 0,32,33
 77 399 77 399 53.5 423 c 128,-1,34
 30 447 30 447 30 488 c 0,35,36
 30 530 30 530 60.5 558 c 128,-1,37
 91 586 91 586 139 586 c 0,38,39
 194 586 194 586 228 555.5 c 128,-1,40
 262 525 262 525 262 469 c 2,41,-1
 261 231 l 1,42,43
 307 357 307 357 406 527 c 1,44,-1
 420 527 l 1,45,46
 463 460 463 460 504 378 c 128,-1,47
 545 296 545 296 569 227 c 1,48,-1
 569 783 l 1,49,-1
 661 783 l 1,50,-1
 661 190 l 2,51,52
 661 53 661 53 665 20 c 1,53,-1
 665 14 l 2,0,1
EndSplineSet
EndChar

StartChar: uni0E20
Encoding: 3616 3616 467
Width: 625
GlyphClass: 2
Flags: W
AnchorPoint: "Anchor-12" 555 550 basechar 0
AnchorPoint: "Anchor-11" 555 0 basechar 0
LayerCount: 2
Fore
SplineSet
487.5 535 m 128,-1,1
 555 484 555 484 555 372 c 2,2,-1
 555 0 l 1,3,-1
 463 0 l 1,4,-1
 463 372 l 2,5,6
 463 453 463 453 424 487 c 128,-1,7
 385 521 385 521 310 521 c 0,8,9
 264 521 264 521 226.5 508.5 c 128,-1,10
 189 496 189 496 168 478 c 128,-1,11
 147 460 147 460 147 445 c 0,12,13
 147 432 147 432 158 420 c 128,-1,14
 169 408 169 408 183 400.5 c 128,-1,15
 197 393 197 393 205 393 c 0,16,17
 215 393 215 393 235 401 c 0,18,19
 257 409 257 409 264 409 c 0,20,21
 274 409 274 409 286 389.5 c 128,-1,22
 298 370 298 370 298 357 c 0,23,24
 298 349 298 349 292 349 c 0,25,26
 250 349 250 349 228.5 326 c 128,-1,27
 207 303 207 303 207 263 c 0,28,29
 207 229 207 229 216 186 c 0,30,31
 217 181 217 181 221 155 c 128,-1,32
 225 129 225 129 225 100 c 0,33,34
 225 50 225 50 196.5 21 c 128,-1,35
 168 -8 168 -8 113 -8 c 0,36,37
 65 -8 65 -8 38 17.5 c 128,-1,38
 11 43 11 43 11 83 c 0,39,40
 11 119 11 119 33 140 c 128,-1,41
 55 161 55 161 83 161 c 0,42,43
 100 161 100 161 110 151.5 c 128,-1,44
 120 142 120 142 120 125 c 1,45,-1
 103 125 l 2,46,47
 84 125 84 125 73 114.5 c 128,-1,48
 62 104 62 104 62 85 c 0,49,50
 62 69 62 69 73 57.5 c 128,-1,51
 84 46 84 46 103 46 c 256,52,53
 122 46 122 46 132.5 59 c 128,-1,54
 143 72 143 72 143 92 c 0,55,56
 143 111 143 111 138.5 133.5 c 128,-1,57
 134 156 134 156 129 177 c 0,58,59
 124 199 124 199 119.5 221.5 c 128,-1,60
 115 244 115 244 115 264 c 0,61,62
 115 321 115 321 154 349 c 1,63,64
 117 361 117 361 88.5 387.5 c 128,-1,65
 60 414 60 414 60 442 c 0,66,67
 60 472 60 472 91.5 505.5 c 128,-1,68
 123 539 123 539 180 562.5 c 128,-1,69
 237 586 237 586 310 586 c 0,70,0
 420 586 420 586 487.5 535 c 128,-1,1
EndSplineSet
EndChar

StartChar: uni0E21
Encoding: 3617 3617 468
Width: 674
GlyphClass: 2
Flags: W
AnchorPoint: "Anchor-12" 587 550 basechar 0
AnchorPoint: "Anchor-11" 587 0 basechar 0
LayerCount: 2
Fore
SplineSet
591 44 m 2,1,-1
 592 20 l 2,2,3
 592 0 592 0 577 0 c 2,4,-1
 497 0 l 1,5,6
 475 88 475 88 415.5 141 c 128,-1,7
 356 194 356 194 282 200 c 1,8,-1
 283 168 l 2,9,10
 285 134 285 134 285 120 c 0,11,12
 285 -9 285 -9 175 -9 c 0,13,14
 127 -9 127 -9 97 24 c 128,-1,15
 67 57 67 57 67 113 c 0,16,17
 67 175 67 175 103 214.5 c 128,-1,18
 139 254 139 254 191 261 c 1,19,20
 189 281 189 281 189 307 c 2,21,-1
 189 483 l 2,22,23
 189 504 189 504 178.5 517.5 c 128,-1,24
 168 531 168 531 147 531 c 256,25,26
 126 531 126 531 115 519.5 c 128,-1,27
 104 508 104 508 104 488 c 0,28,29
 104 467 104 467 117 454.5 c 128,-1,30
 130 442 130 442 150 442 c 2,31,-1
 173 442 l 1,32,33
 173 399 173 399 130 399 c 0,34,35
 97 399 97 399 73.5 423 c 128,-1,36
 50 447 50 447 50 488 c 0,37,38
 50 530 50 530 80.5 558 c 128,-1,39
 111 586 111 586 159 586 c 0,40,41
 214 586 214 586 248 555.5 c 128,-1,42
 282 525 282 525 282 469 c 2,43,-1
 281 263 l 1,44,45
 345 261 345 261 402.5 229.5 c 128,-1,46
 460 198 460 198 495 143 c 1,47,-1
 495 576 l 1,48,-1
 587 576 l 1,49,-1
 587 138 l 2,50,0
 587 86 587 86 591 44 c 2,1,-1
189 65.5 m 128,-1,52
 196 81 196 81 196 124 c 0,53,54
 196 146 196 146 192 200 c 1,55,56
 165 193 165 193 147 171.5 c 128,-1,57
 129 150 129 150 129 113 c 0,58,59
 129 83 129 83 139 66.5 c 128,-1,60
 149 50 149 50 166 50 c 0,61,51
 182 50 182 50 189 65.5 c 128,-1,52
EndSplineSet
EndChar

StartChar: uni0E22
Encoding: 3618 3618 469
Width: 627
GlyphClass: 2
Flags: W
AnchorPoint: "Anchor-12" 553 550 basechar 0
AnchorPoint: "Anchor-11" 553 0 basechar 0
LayerCount: 2
Fore
SplineSet
551 158 m 128,-1,1
 549 125 549 125 540 96.5 c 128,-1,2
 531 68 531 68 510 48 c 0,3,4
 453 -9 453 -9 316 -9 c 0,5,6
 176 -9 176 -9 119 48 c 0,7,8
 97 71 97 71 86.5 99 c 128,-1,9
 76 127 76 127 76 169 c 2,10,-1
 76 178 l 2,11,12
 76 223 76 223 97.5 253 c 128,-1,13
 119 283 119 283 150 296 c 1,14,15
 115 311 115 311 91 346 c 128,-1,16
 67 381 67 381 67 439 c 0,17,18
 67 480 67 480 86.5 514 c 128,-1,19
 106 548 106 548 139 567 c 128,-1,20
 172 586 172 586 212 586 c 0,21,22
 265 586 265 586 293 561 c 128,-1,23
 321 536 321 536 321 495 c 0,24,25
 321 456 321 456 299 432.5 c 128,-1,26
 277 409 277 409 238 409 c 0,27,28
 212 409 212 409 196.5 420.5 c 128,-1,29
 181 432 181 432 181 450 c 0,30,31
 181 455 181 455 183 463 c 1,32,33
 201 453 201 453 225 453 c 0,34,35
 244 453 244 453 254.5 464 c 128,-1,36
 265 475 265 475 265 492 c 0,37,38
 265 510 265 510 253.5 520.5 c 128,-1,39
 242 531 242 531 222 531 c 0,40,41
 191 531 191 531 172 508 c 128,-1,42
 153 485 153 485 153 438 c 0,43,44
 153 375 153 375 194 347 c 128,-1,45
 235 319 235 319 332 319 c 0,46,47
 337 319 337 319 337 311 c 0,48,49
 337 296 337 296 325 274 c 128,-1,50
 313 252 313 252 302 252 c 0,51,52
 288 252 288 252 262 260 c 0,53,54
 259 261 259 261 247.5 264 c 128,-1,55
 236 267 236 267 225 267 c 0,56,57
 200 267 200 267 183.5 243.5 c 128,-1,58
 167 220 167 220 167 184 c 2,59,-1
 167 171 l 2,60,61
 167 143 167 143 172.5 124.5 c 128,-1,62
 178 106 178 106 191 92 c 0,63,64
 224 58 224 58 316 58 c 0,65,66
 405 58 405 58 439 92 c 0,67,68
 453 106 453 106 457 131.5 c 128,-1,69
 461 157 461 157 461 202 c 2,70,-1
 461 254 l 1,71,-1
 461 576 l 1,72,-1
 553 576 l 1,73,-1
 553 257 l 2,74,0
 553 191 553 191 551 158 c 128,-1,1
EndSplineSet
EndChar

StartChar: uni0E23
Encoding: 3619 3619 470
Width: 518
GlyphClass: 2
Flags: W
AnchorPoint: "Anchor-12" 446 550 basechar 0
AnchorPoint: "Anchor-11" 424 0 basechar 0
LayerCount: 2
Fore
SplineSet
210.5 21 m 128,-1,1
 179 50 179 50 179 95 c 0,2,3
 179 136 179 136 204.5 161.5 c 128,-1,4
 230 187 230 187 269 187 c 0,5,6
 312 187 312 187 312 140 c 1,7,8
 302 141 302 141 281 141 c 256,9,10
 260 141 260 141 248.5 129 c 128,-1,11
 237 117 237 117 237 96 c 0,12,13
 237 76 237 76 249 64 c 128,-1,14
 261 52 261 52 282 52 c 0,15,16
 312 52 312 52 326.5 73.5 c 128,-1,17
 341 95 341 95 341 141 c 2,18,-1
 341 196 l 2,19,20
 342 249 342 249 322.5 275.5 c 128,-1,21
 303 302 303 302 260 312 c 0,22,23
 211 324 211 324 126 324 c 2,24,-1
 77 324 l 1,25,26
 61 340 61 340 50 372.5 c 128,-1,27
 39 405 39 405 39 437 c 0,28,29
 39 504 39 504 84 543 c 128,-1,30
 129 582 129 582 194 582 c 0,31,32
 228 582 228 582 284 574 c 0,33,34
 334 568 334 568 355 568 c 0,35,36
 415 568 415 568 456 591 c 1,37,38
 463 585 463 585 468.5 570.5 c 128,-1,39
 474 556 474 556 474 540 c 0,40,41
 474 513 474 513 446.5 498.5 c 128,-1,42
 419 484 419 484 378 484 c 0,43,44
 345 484 345 484 292 499 c 0,45,46
 234 513 234 513 205 513 c 0,47,48
 168 513 168 513 149 493.5 c 128,-1,49
 130 474 130 474 130 439 c 0,50,51
 130 409 130 409 140 391 c 1,52,53
 147 391 147 391 199 390 c 128,-1,54
 251 389 251 389 307 375 c 0,55,56
 434 346 434 346 433 202 c 2,57,-1
 433 144 l 2,58,59
 432 71 432 71 395 31.5 c 128,-1,60
 358 -8 358 -8 292 -8 c 0,61,0
 242 -8 242 -8 210.5 21 c 128,-1,1
EndSplineSet
EndChar

StartChar: uni0E24
Encoding: 3620 3620 471
Width: 613
GlyphClass: 2
Flags: W
AnchorPoint: "Anchor-12" 543 550 basechar 0
AnchorPoint: "Anchor-11" 543 -220 basechar 0
LayerCount: 2
Fore
SplineSet
452 383 m 2,0,1
 452 451 452 451 412 486 c 128,-1,2
 372 521 372 521 296 521 c 0,3,4
 252 521 252 521 215 507.5 c 128,-1,5
 178 494 178 494 157 475 c 128,-1,6
 136 456 136 456 136 441 c 0,7,8
 136 422 136 422 157.5 406.5 c 128,-1,9
 179 391 179 391 196 391 c 0,10,11
 206 391 206 391 229 398 c 0,12,13
 247 404 247 404 254 404 c 0,14,15
 263 404 263 404 275 383.5 c 128,-1,16
 287 363 287 363 287 350 c 0,17,18
 287 342 287 342 281 342 c 0,19,20
 220 342 220 342 197 313.5 c 128,-1,21
 174 285 174 285 174 221 c 2,22,-1
 174 114 l 2,23,24
 174 82 174 82 187.5 65 c 128,-1,25
 201 48 201 48 225 48 c 0,26,27
 248 48 248 48 259.5 60 c 128,-1,28
 271 72 271 72 271 93 c 0,29,30
 271 113 271 113 259.5 124 c 128,-1,31
 248 135 248 135 227 135 c 0,32,33
 222 135 222 135 194 130 c 1,34,35
 191 138 191 138 191 144 c 0,36,37
 191 160 191 160 204 170.5 c 128,-1,38
 217 181 217 181 240 181 c 0,39,40
 279 181 279 181 302.5 159 c 128,-1,41
 326 137 326 137 326 94 c 0,42,43
 326 49 326 49 295 21 c 128,-1,44
 264 -7 264 -7 212 -7 c 0,45,46
 154 -7 154 -7 118 27 c 128,-1,47
 82 61 82 61 82 120 c 2,48,-1
 82 221 l 2,49,50
 82 306 82 306 130 349 c 1,51,52
 100 363 100 363 75 387 c 128,-1,53
 50 411 50 411 50 438 c 0,54,55
 50 470 50 470 80.5 505 c 128,-1,56
 111 540 111 540 167.5 563 c 128,-1,57
 224 586 224 586 296 586 c 0,58,59
 406 586 406 586 474.5 534 c 128,-1,60
 543 482 543 482 543 383 c 2,61,-1
 543 -220 l 1,62,-1
 452 -220 l 1,63,-1
 452 383 l 2,0,1
EndSplineSet
Substitution2: "Single Substitution lookup 14 subtable" uni0E24.short
Substitution2: "'aalt' Access All Alternates lookup 0 subtable" uni0E24.short
EndChar

StartChar: uni0E24.short
Encoding: 65543 -1 472
Width: 613
GlyphClass: 2
Flags: W
AnchorPoint: "Anchor-12" 543 550 basechar 0
AnchorPoint: "Anchor-11" 543 -160 basechar 0
LayerCount: 2
Fore
SplineSet
452 383 m 2,0,1
 452 451 452 451 412 486 c 128,-1,2
 372 521 372 521 296 521 c 0,3,4
 252 521 252 521 215 507.5 c 128,-1,5
 178 494 178 494 157 475 c 128,-1,6
 136 456 136 456 136 441 c 0,7,8
 136 422 136 422 157.5 406.5 c 128,-1,9
 179 391 179 391 196 391 c 0,10,11
 206 391 206 391 229 398 c 0,12,13
 247 404 247 404 254 404 c 0,14,15
 263 404 263 404 275 383.5 c 128,-1,16
 287 363 287 363 287 350 c 0,17,18
 287 342 287 342 281 342 c 0,19,20
 220 342 220 342 197 313.5 c 128,-1,21
 174 285 174 285 174 221 c 2,22,-1
 174 114 l 2,23,24
 174 82 174 82 187.5 65 c 128,-1,25
 201 48 201 48 225 48 c 0,26,27
 248 48 248 48 259.5 60 c 128,-1,28
 271 72 271 72 271 93 c 0,29,30
 271 113 271 113 259.5 124 c 128,-1,31
 248 135 248 135 227 135 c 0,32,33
 222 135 222 135 194 130 c 1,34,35
 191 138 191 138 191 144 c 0,36,37
 191 160 191 160 204 170.5 c 128,-1,38
 217 181 217 181 240 181 c 0,39,40
 279 181 279 181 302.5 159 c 128,-1,41
 326 137 326 137 326 94 c 0,42,43
 326 49 326 49 295 21 c 128,-1,44
 264 -7 264 -7 212 -7 c 0,45,46
 154 -7 154 -7 118 27 c 128,-1,47
 82 61 82 61 82 120 c 2,48,-1
 82 221 l 2,49,50
 82 306 82 306 130 349 c 1,51,52
 100 363 100 363 75 387 c 128,-1,53
 50 411 50 411 50 438 c 0,54,55
 50 470 50 470 80.5 505 c 128,-1,56
 111 540 111 540 167.5 563 c 128,-1,57
 224 586 224 586 296 586 c 0,58,59
 406 586 406 586 474.5 534 c 128,-1,60
 543 482 543 482 543 383 c 2,61,-1
 543 -160 l 1,62,-1
 452 -160 l 1,63,-1
 452 383 l 2,0,1
EndSplineSet
EndChar

StartChar: uni0E25
Encoding: 3621 3621 473
Width: 628
GlyphClass: 2
Flags: W
AnchorPoint: "Anchor-12" 541 550 basechar 0
AnchorPoint: "Anchor-11" 541 0 basechar 0
LayerCount: 2
Fore
SplineSet
546 284 m 0,1,2
 540 222 540 222 540 187 c 0,3,4
 540 157 540 157 546 87 c 0,5,6
 551 40 551 40 551 19 c 0,7,8
 551 0 551 0 539 0 c 2,9,-1
 453 0 l 1,10,11
 453 156 453 156 406.5 231.5 c 128,-1,12
 360 307 360 307 280 307 c 0,13,14
 227 307 227 307 196 271 c 128,-1,15
 165 235 165 235 165 168 c 0,16,17
 165 106 165 106 183 76.5 c 128,-1,18
 201 47 201 47 232 47 c 0,19,20
 252 47 252 47 262.5 58 c 128,-1,21
 273 69 273 69 273 88 c 0,22,23
 273 106 273 106 263 116.5 c 128,-1,24
 253 127 253 127 234 127 c 0,25,26
 216 127 216 127 195 115 c 1,27,28
 192 121 192 121 192 131 c 0,29,30
 192 147 192 147 206.5 158.5 c 128,-1,31
 221 170 221 170 245 170 c 0,32,33
 281 170 281 170 305 147 c 128,-1,34
 329 124 329 124 329 88 c 0,35,36
 329 44 329 44 301.5 17.5 c 128,-1,37
 274 -9 274 -9 222 -9 c 0,38,39
 157 -9 157 -9 117 36.5 c 128,-1,40
 77 82 77 82 77 173 c 0,41,42
 77 236 77 236 103.5 281.5 c 128,-1,43
 130 327 130 327 174.5 350.5 c 128,-1,44
 219 374 219 374 270 374 c 0,45,46
 333 374 333 374 379.5 346.5 c 128,-1,47
 426 319 426 319 453 273 c 1,48,49
 459 343 459 343 458 387 c 0,50,51
 457 448 457 448 419.5 481.5 c 128,-1,52
 382 515 382 515 318 515 c 0,53,54
 262 515 262 515 219.5 496.5 c 128,-1,55
 177 478 177 478 140 444 c 0,56,57
 127 434 127 434 117 434 c 0,58,59
 104 434 104 434 88.5 448 c 128,-1,60
 73 462 73 462 64 486 c 1,61,62
 99 527 99 527 165.5 556.5 c 128,-1,63
 232 586 232 586 319 586 c 0,64,65
 425 586 425 586 488.5 535 c 128,-1,66
 552 484 552 484 552 394 c 0,67,0
 552 352 552 352 546 284 c 0,1,2
EndSplineSet
EndChar

StartChar: uni0E26
Encoding: 3622 3622 474
Width: 625
GlyphClass: 2
Flags: W
AnchorPoint: "Anchor-12" 555 550 basechar 0
AnchorPoint: "Anchor-11" 555 -220 basechar 0
LayerCount: 2
Fore
SplineSet
463 372 m 2,0,1
 463 453 463 453 424 487 c 128,-1,2
 385 521 385 521 310 521 c 0,3,4
 264 521 264 521 226.5 508.5 c 128,-1,5
 189 496 189 496 168 478 c 128,-1,6
 147 460 147 460 147 445 c 0,7,8
 147 432 147 432 158 420 c 128,-1,9
 169 408 169 408 183 400.5 c 128,-1,10
 197 393 197 393 205 393 c 0,11,12
 215 393 215 393 235 401 c 0,13,14
 257 409 257 409 264 409 c 0,15,16
 274 409 274 409 286 389.5 c 128,-1,17
 298 370 298 370 298 357 c 0,18,19
 298 349 298 349 292 349 c 0,20,21
 250 349 250 349 228.5 326 c 128,-1,22
 207 303 207 303 207 263 c 0,23,24
 207 229 207 229 216 186 c 0,25,26
 217 181 217 181 221 155 c 128,-1,27
 225 129 225 129 225 100 c 0,28,29
 225 50 225 50 196.5 21 c 128,-1,30
 168 -8 168 -8 113 -8 c 0,31,32
 65 -8 65 -8 38 17.5 c 128,-1,33
 11 43 11 43 11 83 c 0,34,35
 11 119 11 119 33 140 c 128,-1,36
 55 161 55 161 83 161 c 0,37,38
 100 161 100 161 110 151.5 c 128,-1,39
 120 142 120 142 120 125 c 1,40,-1
 103 125 l 2,41,42
 84 125 84 125 73 114.5 c 128,-1,43
 62 104 62 104 62 85 c 0,44,45
 62 69 62 69 73 57.5 c 128,-1,46
 84 46 84 46 103 46 c 256,47,48
 122 46 122 46 132.5 59 c 128,-1,49
 143 72 143 72 143 92 c 0,50,51
 143 111 143 111 138.5 133.5 c 128,-1,52
 134 156 134 156 129 177 c 0,53,54
 124 199 124 199 119.5 221.5 c 128,-1,55
 115 244 115 244 115 264 c 0,56,57
 115 320 115 320 154 349 c 1,58,59
 117 360 117 360 88.5 386.5 c 128,-1,60
 60 413 60 413 60 442 c 0,61,62
 60 472 60 472 91.5 505.5 c 128,-1,63
 123 539 123 539 180 562.5 c 128,-1,64
 237 586 237 586 310 586 c 0,65,66
 420 586 420 586 487.5 535 c 128,-1,67
 555 484 555 484 555 372 c 2,68,-1
 555 -220 l 1,69,-1
 463 -220 l 1,70,-1
 463 372 l 2,0,1
EndSplineSet
Substitution2: "Single Substitution lookup 14 subtable" uni0E26.short
Substitution2: "'aalt' Access All Alternates lookup 0 subtable" uni0E26.short
EndChar

StartChar: uni0E26.short
Encoding: 65544 -1 475
Width: 625
GlyphClass: 2
Flags: W
AnchorPoint: "Anchor-12" 555 550 basechar 0
AnchorPoint: "Anchor-11" 555 -160 basechar 0
LayerCount: 2
Fore
SplineSet
463 372 m 2,0,1
 463 453 463 453 424 487 c 128,-1,2
 385 521 385 521 310 521 c 0,3,4
 264 521 264 521 226.5 508.5 c 128,-1,5
 189 496 189 496 168 478 c 128,-1,6
 147 460 147 460 147 445 c 0,7,8
 147 432 147 432 158 420 c 128,-1,9
 169 408 169 408 183 400.5 c 128,-1,10
 197 393 197 393 205 393 c 0,11,12
 215 393 215 393 235 401 c 0,13,14
 257 409 257 409 264 409 c 0,15,16
 274 409 274 409 286 389.5 c 128,-1,17
 298 370 298 370 298 357 c 0,18,19
 298 349 298 349 292 349 c 0,20,21
 250 349 250 349 228.5 326 c 128,-1,22
 207 303 207 303 207 263 c 0,23,24
 207 229 207 229 216 186 c 0,25,26
 217 181 217 181 221 155 c 128,-1,27
 225 129 225 129 225 100 c 0,28,29
 225 50 225 50 196.5 21 c 128,-1,30
 168 -8 168 -8 113 -8 c 0,31,32
 65 -8 65 -8 38 17.5 c 128,-1,33
 11 43 11 43 11 83 c 0,34,35
 11 119 11 119 33 140 c 128,-1,36
 55 161 55 161 83 161 c 0,37,38
 100 161 100 161 110 151.5 c 128,-1,39
 120 142 120 142 120 125 c 1,40,-1
 103 125 l 2,41,42
 84 125 84 125 73 114.5 c 128,-1,43
 62 104 62 104 62 85 c 0,44,45
 62 69 62 69 73 57.5 c 128,-1,46
 84 46 84 46 103 46 c 256,47,48
 122 46 122 46 132.5 59 c 128,-1,49
 143 72 143 72 143 92 c 0,50,51
 143 111 143 111 138.5 133.5 c 128,-1,52
 134 156 134 156 129 177 c 0,53,54
 124 199 124 199 119.5 221.5 c 128,-1,55
 115 244 115 244 115 264 c 0,56,57
 115 320 115 320 154 349 c 1,58,59
 117 360 117 360 88.5 386.5 c 128,-1,60
 60 413 60 413 60 442 c 0,61,62
 60 472 60 472 91.5 505.5 c 128,-1,63
 123 539 123 539 180 562.5 c 128,-1,64
 237 586 237 586 310 586 c 0,65,66
 420 586 420 586 487.5 535 c 128,-1,67
 555 484 555 484 555 372 c 2,68,-1
 555 -160 l 1,69,-1
 463 -160 l 1,70,-1
 463 372 l 2,0,1
EndSplineSet
EndChar

StartChar: uni0E27
Encoding: 3623 3623 476
Width: 528
GlyphClass: 2
Flags: W
AnchorPoint: "Anchor-12" 455 550 basechar 0
AnchorPoint: "Anchor-11" 455 0 basechar 0
LayerCount: 2
Fore
SplineSet
231 19.5 m 128,-1,1
 199 48 199 48 199 92 c 0,2,3
 199 132 199 132 225 157 c 128,-1,4
 251 182 251 182 287 182 c 0,5,6
 310 182 310 182 323.5 171 c 128,-1,7
 337 160 337 160 337 144 c 0,8,9
 337 137 337 137 336 133 c 1,10,11
 323 137 323 137 303 137 c 0,12,13
 282 137 282 137 270 125.5 c 128,-1,14
 258 114 258 114 258 94 c 0,15,16
 258 75 258 75 270.5 63 c 128,-1,17
 283 51 283 51 304 51 c 0,18,19
 334 51 334 51 350 72.5 c 128,-1,20
 366 94 366 94 366 133 c 2,21,-1
 366 382 l 2,22,23
 366 446 366 446 336.5 481.5 c 128,-1,24
 307 517 307 517 246 517 c 0,25,26
 197 517 197 517 162.5 496 c 128,-1,27
 128 475 128 475 100 437 c 0,28,29
 93 430 93 430 82 430 c 0,30,31
 68 430 68 430 52.5 443 c 128,-1,32
 37 456 37 456 25 479 c 1,33,34
 55 523 55 523 114.5 554.5 c 128,-1,35
 174 586 174 586 251 586 c 0,36,37
 345 586 345 586 400 532 c 128,-1,38
 455 478 455 478 455 380 c 2,39,-1
 455 139 l 2,40,41
 455 71 455 71 416 31 c 128,-1,42
 377 -9 377 -9 314 -9 c 0,43,0
 263 -9 263 -9 231 19.5 c 128,-1,1
EndSplineSet
EndChar

StartChar: uni0E28
Encoding: 3624 3624 477
Width: 617
GlyphClass: 2
Flags: W
AnchorPoint: "Anchor-12" 557 550 basechar 0
AnchorPoint: "Anchor-11" 557 0 basechar 0
LayerCount: 2
Fore
SplineSet
575.5 535 m 128,-1,1
 551 515 551 515 515 506 c 1,2,3
 557 450 557 450 557 357 c 2,4,-1
 557 0 l 1,5,-1
 466 0 l 1,6,-1
 466 352 l 2,7,8
 466 434 466 434 431.5 477.5 c 128,-1,9
 397 521 397 521 317 521 c 0,10,11
 239 521 239 521 196.5 479.5 c 128,-1,12
 154 438 154 438 154 355 c 0,13,14
 154 309 154 309 166 266 c 1,15,16
 189 317 189 317 227 347 c 128,-1,17
 265 377 265 377 318 377 c 0,18,19
 363 377 363 377 390.5 351 c 128,-1,20
 418 325 418 325 418 281 c 0,21,22
 418 238 418 238 392.5 213.5 c 128,-1,23
 367 189 367 189 324 189 c 0,24,25
 297 189 297 189 277.5 203.5 c 128,-1,26
 258 218 258 218 258 239 c 0,27,28
 258 261 258 261 275 268 c 1,29,30
 291 236 291 236 323 236 c 0,31,32
 343 236 343 236 353 247.5 c 128,-1,33
 363 259 363 259 363 279 c 0,34,35
 363 298 363 298 350.5 309.5 c 128,-1,36
 338 321 338 321 316 321 c 0,37,38
 254 321 254 321 217 235.5 c 128,-1,39
 180 150 180 150 177 0 c 1,40,-1
 100 0 l 2,41,42
 85 0 85 0 85 20 c 0,43,44
 85 60 85 60 110 140 c 0,45,46
 118 166 118 166 118 172 c 0,47,48
 118 179 118 179 105 202 c 0,49,50
 86 236 86 236 74 270.5 c 128,-1,51
 62 305 62 305 62 355 c 0,52,53
 62 427 62 427 94.5 479 c 128,-1,54
 127 531 127 531 184.5 558.5 c 128,-1,55
 242 586 242 586 317 586 c 0,56,57
 401 586 401 586 454 557 c 1,58,59
 483 566 483 566 506 586.5 c 128,-1,60
 529 607 529 607 542 631 c 1,61,62
 567 627 567 627 583.5 610.5 c 128,-1,63
 600 594 600 594 600 578 c 0,64,0
 600 555 600 555 575.5 535 c 128,-1,1
EndSplineSet
EndChar

StartChar: uni0E29
Encoding: 3625 3625 478
Width: 678
GlyphClass: 2
Flags: W
AnchorPoint: "Anchor-12" 605 550 basechar 0
AnchorPoint: "Anchor-11" 605 0 basechar 0
LayerCount: 2
Fore
SplineSet
605 576 m 1,0,-1
 605 190 l 2,1,2
 605 132 605 132 598.5 102 c 128,-1,3
 592 72 592 72 573 50 c 0,4,5
 544 18 544 18 490.5 4.5 c 128,-1,6
 437 -9 437 -9 379 -9 c 0,7,8
 316 -9 316 -9 261 4.5 c 128,-1,9
 206 18 206 18 179 50 c 0,10,11
 162 71 162 71 155.5 104 c 128,-1,12
 149 137 149 137 149 187 c 2,13,-1
 149 483 l 2,14,15
 149 504 149 504 138.5 517.5 c 128,-1,16
 128 531 128 531 107 531 c 256,17,18
 86 531 86 531 75 519.5 c 128,-1,19
 64 508 64 508 64 488 c 0,20,21
 64 467 64 467 77 454.5 c 128,-1,22
 90 442 90 442 110 442 c 2,23,-1
 133 442 l 1,24,25
 133 399 133 399 90 399 c 0,26,27
 57 399 57 399 33.5 423 c 128,-1,28
 10 447 10 447 10 488 c 0,29,30
 10 530 10 530 40.5 558 c 128,-1,31
 71 586 71 586 119 586 c 0,32,33
 174 586 174 586 208 555.5 c 128,-1,34
 242 525 242 525 242 469 c 2,35,-1
 241 180 l 2,36,37
 241 106 241 106 259 88 c 0,38,39
 291 56 291 56 379 56 c 0,40,41
 468 56 468 56 497 88 c 0,42,43
 508 100 508 100 510.5 117.5 c 128,-1,44
 513 135 513 135 513 169 c 2,45,-1
 513 224 l 1,46,47
 499 205 499 205 472.5 192.5 c 128,-1,48
 446 180 446 180 410 180 c 0,49,50
 359 180 359 180 323.5 209.5 c 128,-1,51
 288 239 288 239 288 288 c 0,52,53
 288 325 288 325 313.5 348.5 c 128,-1,54
 339 372 339 372 374 372 c 0,55,56
 406 372 406 372 427.5 353.5 c 128,-1,57
 449 335 449 335 449 301 c 0,58,59
 449 279 449 279 437 267.5 c 128,-1,60
 425 256 425 256 406 256 c 0,61,62
 396 256 396 256 388 264 c 1,63,64
 404 276 404 276 404 295 c 0,65,66
 404 309 404 309 396.5 317.5 c 128,-1,67
 389 326 389 326 376 326 c 0,68,69
 361 326 361 326 351.5 317.5 c 128,-1,70
 342 309 342 309 342 293 c 0,71,72
 342 265 342 265 362.5 249.5 c 128,-1,73
 383 234 383 234 419 234 c 0,74,75
 467 234 467 234 490 260.5 c 128,-1,76
 513 287 513 287 513 346 c 2,77,-1
 513 576 l 1,78,-1
 605 576 l 1,0,-1
EndSplineSet
EndChar

StartChar: uni0E2A
Encoding: 3626 3626 479
Width: 627
GlyphClass: 2
Flags: W
AnchorPoint: "Anchor-12" 546 550 basechar 0
AnchorPoint: "Anchor-11" 546 0 basechar 0
LayerCount: 2
Fore
SplineSet
581 530.5 m 128,-1,1
 557 511 557 511 520 502 c 1,2,3
 552 458 552 458 552 394 c 0,4,5
 552 352 552 352 546 284 c 0,6,7
 540 222 540 222 540 187 c 0,8,9
 540 157 540 157 546 87 c 0,10,11
 551 40 551 40 551 19 c 0,12,13
 551 0 551 0 539 0 c 2,14,-1
 453 0 l 1,15,16
 453 156 453 156 406.5 231.5 c 128,-1,17
 360 307 360 307 280 307 c 0,18,19
 227 307 227 307 196 271 c 128,-1,20
 165 235 165 235 165 168 c 0,21,22
 165 106 165 106 183 76.5 c 128,-1,23
 201 47 201 47 232 47 c 0,24,25
 252 47 252 47 262.5 58 c 128,-1,26
 273 69 273 69 273 88 c 0,27,28
 273 106 273 106 263 116.5 c 128,-1,29
 253 127 253 127 234 127 c 0,30,31
 216 127 216 127 195 115 c 1,32,33
 192 121 192 121 192 131 c 0,34,35
 192 147 192 147 206.5 158.5 c 128,-1,36
 221 170 221 170 245 170 c 0,37,38
 281 170 281 170 305 147 c 128,-1,39
 329 124 329 124 329 88 c 0,40,41
 329 44 329 44 301.5 17.5 c 128,-1,42
 274 -9 274 -9 222 -9 c 0,43,44
 157 -9 157 -9 117 36.5 c 128,-1,45
 77 82 77 82 77 173 c 0,46,47
 77 236 77 236 103.5 281.5 c 128,-1,48
 130 327 130 327 174.5 350.5 c 128,-1,49
 219 374 219 374 270 374 c 0,50,51
 333 374 333 374 379.5 346.5 c 128,-1,52
 426 319 426 319 453 273 c 1,53,54
 459 343 459 343 458 387 c 0,55,56
 457 448 457 448 419.5 481.5 c 128,-1,57
 382 515 382 515 318 515 c 0,58,59
 262 515 262 515 219.5 496.5 c 128,-1,60
 177 478 177 478 140 444 c 0,61,62
 127 434 127 434 117 434 c 0,63,64
 104 434 104 434 88.5 448 c 128,-1,65
 73 462 73 462 64 486 c 1,66,67
 99 527 99 527 165.5 556.5 c 128,-1,68
 232 586 232 586 319 586 c 0,69,70
 402 586 402 586 460 554 c 1,71,72
 489 563 489 563 511.5 583 c 128,-1,73
 534 603 534 603 547 628 c 1,74,75
 573 624 573 624 589 607.5 c 128,-1,76
 605 591 605 591 605 574 c 0,77,0
 605 550 605 550 581 530.5 c 128,-1,1
EndSplineSet
EndChar

StartChar: uni0E2B
Encoding: 3627 3627 480
Width: 671
GlyphClass: 2
Flags: W
AnchorPoint: "Anchor-12" 599 550 basechar 0
AnchorPoint: "Anchor-11" 599 0 basechar 0
LayerCount: 2
Fore
SplineSet
569 361 m 1,1,2
 599 328 599 328 599 288 c 2,3,-1
 599 0 l 1,4,-1
 507 0 l 1,5,-1
 507 271 l 2,6,7
 507 291 507 291 505 303 c 128,-1,8
 503 315 503 315 497 324 c 1,9,10
 406 282 406 282 353 248.5 c 128,-1,11
 300 215 300 215 270.5 172.5 c 128,-1,12
 241 130 241 130 241 72 c 2,13,-1
 241 0 l 1,14,-1
 160 0 l 2,15,16
 145 0 145 0 145 15 c 2,17,-1
 146 42 l 2,18,19
 149 105 149 105 149 116 c 2,20,-1
 149 483 l 2,21,22
 149 504 149 504 138.5 517.5 c 128,-1,23
 128 531 128 531 107 531 c 256,24,25
 86 531 86 531 75 519.5 c 128,-1,26
 64 508 64 508 64 488 c 0,27,28
 64 467 64 467 77 454.5 c 128,-1,29
 90 442 90 442 110 442 c 2,30,-1
 133 442 l 1,31,32
 133 399 133 399 90 399 c 0,33,34
 57 399 57 399 33.5 423 c 128,-1,35
 10 447 10 447 10 488 c 0,36,37
 10 530 10 530 40.5 558 c 128,-1,38
 71 586 71 586 119 586 c 0,39,40
 174 586 174 586 208 555.5 c 128,-1,41
 242 525 242 525 242 469 c 2,42,-1
 241 238 l 1,43,44
 265 268 265 268 304 292 c 128,-1,45
 343 316 343 316 422 356 c 0,46,47
 429 360 429 360 436 363.5 c 128,-1,48
 443 367 443 367 449 370 c 1,49,50
 424 394 424 394 409.5 419 c 128,-1,51
 395 444 395 444 395 476 c 0,52,53
 395 525 395 525 428 555.5 c 128,-1,54
 461 586 461 586 514 586 c 0,55,56
 565 586 565 586 598.5 557.5 c 128,-1,57
 632 529 632 529 632 477 c 0,58,0
 632 404 632 404 569 361 c 1,1,2
476.5 514 m 128,-1,60
 462 500 462 500 462 477 c 0,61,62
 462 456 462 456 474.5 440 c 128,-1,63
 487 424 487 424 515 404 c 1,64,65
 541 420 541 420 553 437 c 128,-1,66
 565 454 565 454 565 477 c 256,67,68
 565 500 565 500 552 514 c 128,-1,69
 539 528 539 528 514 528 c 0,70,59
 491 528 491 528 476.5 514 c 128,-1,60
EndSplineSet
EndChar

StartChar: uni0E2C
Encoding: 3628 3628 481
Width: 738
GlyphClass: 2
Flags: W
AnchorPoint: "Anchor-12" 665 550 basechar 0
AnchorPoint: "Anchor-11" 665 0 basechar 0
LayerCount: 2
Fore
SplineSet
714 585 m 128,-1,1
 728 574 728 574 728 559 c 0,2,3
 728 540 728 540 717 521 c 0,4,5
 697 488 697 488 664 467 c 1,6,-1
 664 190 l 1,7,-1
 664 137 l 2,8,9
 664 41 664 41 668 20 c 0,10,11
 669 16 669 16 669 11 c 0,12,13
 669 4 669 4 666 2 c 128,-1,14
 663 0 663 0 658 0 c 2,15,-1
 574 0 l 1,16,-1
 574 14 l 2,17,18
 574 72 574 72 536.5 135 c 128,-1,19
 499 198 499 198 431 286 c 2,20,-1
 419 302 l 1,21,22
 365 235 365 235 335 194.5 c 128,-1,23
 305 154 305 154 281 105 c 128,-1,24
 257 56 257 56 257 14 c 2,25,-1
 257 0 l 1,26,-1
 170 0 l 2,27,28
 165 0 165 0 162 2 c 128,-1,29
 159 4 159 4 159 11 c 0,30,31
 159 16 159 16 160 20 c 0,32,33
 165 47 165 47 167 74.5 c 128,-1,34
 169 102 169 102 169 190 c 2,35,-1
 169 483 l 2,36,37
 169 504 169 504 158.5 517.5 c 128,-1,38
 148 531 148 531 127 531 c 256,39,40
 106 531 106 531 95 519.5 c 128,-1,41
 84 508 84 508 84 488 c 0,42,43
 84 467 84 467 97 454.5 c 128,-1,44
 110 442 110 442 130 442 c 2,45,-1
 153 442 l 1,46,47
 153 399 153 399 110 399 c 0,48,49
 77 399 77 399 53.5 423 c 128,-1,50
 30 447 30 447 30 488 c 0,51,52
 30 530 30 530 60.5 558 c 128,-1,53
 91 586 91 586 139 586 c 0,54,55
 194 586 194 586 228 555.5 c 128,-1,56
 262 525 262 525 262 469 c 2,57,-1
 261 195 l 1,58,59
 281 233 281 233 310.5 273 c 128,-1,60
 340 313 340 313 387 369 c 2,61,-1
 415 403 l 1,62,-1
 423 403 l 1,63,64
 457 358 457 358 460 354 c 0,65,66
 503 297 503 297 529 259.5 c 128,-1,67
 555 222 555 222 572 187 c 1,68,-1
 572 433 l 1,69,70
 551 429 551 429 519 429 c 0,71,72
 460 429 460 429 422.5 454.5 c 128,-1,73
 385 480 385 480 385 521 c 0,74,75
 385 559 385 559 420 584.5 c 128,-1,76
 455 610 455 610 506 610 c 0,77,78
 547 610 547 610 583 592 c 128,-1,79
 619 574 619 574 640 544 c 1,80,81
 662 571 662 571 678 601 c 1,82,0
 700 596 700 596 714 585 c 128,-1,1
572 492 m 1,84,85
 569 521 569 521 550 537.5 c 128,-1,86
 531 554 531 554 502 554 c 0,87,88
 480 554 480 554 464 545 c 128,-1,89
 448 536 448 536 448 520 c 0,90,91
 448 502 448 502 466 492 c 128,-1,92
 484 482 484 482 518 482 c 0,93,83
 544 482 544 482 572 492 c 1,84,85
EndSplineSet
Substitution2: "Single Substitution lookup 14 subtable" loChulathai.short
Substitution2: "'aalt' Access All Alternates lookup 0 subtable" loChulathai.short
EndChar

StartChar: uni0E2D
Encoding: 3629 3629 483
Width: 618
GlyphClass: 2
Flags: W
AnchorPoint: "Anchor-12" 535 550 basechar 0
AnchorPoint: "Anchor-11" 535 0 basechar 0
LayerCount: 2
Fore
SplineSet
132 43.5 m 128,-1,1
 77 96 77 96 77 205 c 0,2,3
 77 255 77 255 97 290 c 128,-1,4
 117 325 117 325 149.5 343 c 128,-1,5
 182 361 182 361 220 361 c 0,6,7
 269 361 269 361 294.5 335.5 c 128,-1,8
 320 310 320 310 320 265 c 0,9,10
 320 226 320 226 297 203 c 128,-1,11
 274 180 274 180 240 180 c 0,12,13
 215 180 215 180 200 194 c 128,-1,14
 185 208 185 208 185 233 c 1,15,16
 208 226 208 226 221 226 c 0,17,18
 240 226 240 226 251.5 237 c 128,-1,19
 263 248 263 248 263 267 c 0,20,21
 263 303 263 303 226 303 c 0,22,23
 197 303 197 303 181 278.5 c 128,-1,24
 165 254 165 254 165 210 c 0,25,26
 165 127 165 127 198 93 c 128,-1,27
 231 59 231 59 309 59 c 0,28,29
 364 59 364 59 394 78.5 c 128,-1,30
 424 98 424 98 437 143 c 128,-1,31
 450 188 450 188 450 267 c 2,32,-1
 450 307 l 2,33,34
 450 391 450 391 432 436.5 c 128,-1,35
 414 482 414 482 381 498.5 c 128,-1,36
 348 515 348 515 294 515 c 0,37,38
 251 515 251 515 211 495 c 128,-1,39
 171 475 171 475 139 446 c 0,40,41
 129 438 129 438 122.5 435 c 128,-1,42
 116 432 116 432 107 432 c 0,43,44
 95 432 95 432 82 447.5 c 128,-1,45
 69 463 69 463 57 487 c 1,46,47
 93 527 93 527 157 556.5 c 128,-1,48
 221 586 221 586 297 586 c 0,49,50
 379 586 379 586 433 561.5 c 128,-1,51
 487 537 487 537 516 475.5 c 128,-1,52
 545 414 545 414 545 307 c 2,53,-1
 545 267 l 2,54,55
 545 168 545 168 522.5 108 c 128,-1,56
 500 48 500 48 448.5 19.5 c 128,-1,57
 397 -9 397 -9 309 -9 c 0,58,0
 187 -9 187 -9 132 43.5 c 128,-1,1
EndSplineSet
EndChar

